G04 #@! TF.GenerationSoftware,KiCad,Pcbnew,9.0.2*
G04 #@! TF.CreationDate,2025-06-26T14:40:00-07:00*
G04 #@! TF.ProjectId,pawb_sao,70617762-5f73-4616-9f2e-6b696361645f,rev?*
G04 #@! TF.SameCoordinates,Original*
G04 #@! TF.FileFunction,Legend,Bot*
G04 #@! TF.FilePolarity,Positive*
%FSLAX46Y46*%
G04 Gerber Fmt 4.6, Leading zero omitted, Abs format (unit mm)*
G04 Created by KiCad (PCBNEW 9.0.2) date 2025-06-26 14:40:00*
%MOMM*%
%LPD*%
G01*
G04 APERTURE LIST*
%ADD10C,0.175000*%
%ADD11C,0.250000*%
%ADD12C,0.150000*%
%ADD13C,0.100000*%
%ADD14C,0.000000*%
%ADD15C,0.120000*%
%ADD16C,1.500000*%
%ADD17R,1.700000X1.700000*%
%ADD18C,1.700000*%
%ADD19C,0.990600*%
%ADD20C,0.787400*%
G04 APERTURE END LIST*
D10*
X175515130Y-105088066D02*
X175581797Y-105054733D01*
X175581797Y-105054733D02*
X175681797Y-105054733D01*
X175681797Y-105054733D02*
X175781797Y-105088066D01*
X175781797Y-105088066D02*
X175848464Y-105154733D01*
X175848464Y-105154733D02*
X175881797Y-105221400D01*
X175881797Y-105221400D02*
X175915130Y-105354733D01*
X175915130Y-105354733D02*
X175915130Y-105454733D01*
X175915130Y-105454733D02*
X175881797Y-105588066D01*
X175881797Y-105588066D02*
X175848464Y-105654733D01*
X175848464Y-105654733D02*
X175781797Y-105721400D01*
X175781797Y-105721400D02*
X175681797Y-105754733D01*
X175681797Y-105754733D02*
X175615130Y-105754733D01*
X175615130Y-105754733D02*
X175515130Y-105721400D01*
X175515130Y-105721400D02*
X175481797Y-105688066D01*
X175481797Y-105688066D02*
X175481797Y-105454733D01*
X175481797Y-105454733D02*
X175615130Y-105454733D01*
X175181797Y-105754733D02*
X175181797Y-105054733D01*
X175181797Y-105054733D02*
X174781797Y-105754733D01*
X174781797Y-105754733D02*
X174781797Y-105054733D01*
X174448464Y-105754733D02*
X174448464Y-105054733D01*
X174448464Y-105054733D02*
X174281797Y-105054733D01*
X174281797Y-105054733D02*
X174181797Y-105088066D01*
X174181797Y-105088066D02*
X174115131Y-105154733D01*
X174115131Y-105154733D02*
X174081797Y-105221400D01*
X174081797Y-105221400D02*
X174048464Y-105354733D01*
X174048464Y-105354733D02*
X174048464Y-105454733D01*
X174048464Y-105454733D02*
X174081797Y-105588066D01*
X174081797Y-105588066D02*
X174115131Y-105654733D01*
X174115131Y-105654733D02*
X174181797Y-105721400D01*
X174181797Y-105721400D02*
X174281797Y-105754733D01*
X174281797Y-105754733D02*
X174448464Y-105754733D01*
D11*
X175937431Y-80004619D02*
X175937431Y-79004619D01*
X175937431Y-79004619D02*
X175699336Y-79004619D01*
X175699336Y-79004619D02*
X175556479Y-79052238D01*
X175556479Y-79052238D02*
X175461241Y-79147476D01*
X175461241Y-79147476D02*
X175413622Y-79242714D01*
X175413622Y-79242714D02*
X175366003Y-79433190D01*
X175366003Y-79433190D02*
X175366003Y-79576047D01*
X175366003Y-79576047D02*
X175413622Y-79766523D01*
X175413622Y-79766523D02*
X175461241Y-79861761D01*
X175461241Y-79861761D02*
X175556479Y-79957000D01*
X175556479Y-79957000D02*
X175699336Y-80004619D01*
X175699336Y-80004619D02*
X175937431Y-80004619D01*
X174556479Y-79957000D02*
X174651717Y-80004619D01*
X174651717Y-80004619D02*
X174842193Y-80004619D01*
X174842193Y-80004619D02*
X174937431Y-79957000D01*
X174937431Y-79957000D02*
X174985050Y-79861761D01*
X174985050Y-79861761D02*
X174985050Y-79480809D01*
X174985050Y-79480809D02*
X174937431Y-79385571D01*
X174937431Y-79385571D02*
X174842193Y-79337952D01*
X174842193Y-79337952D02*
X174651717Y-79337952D01*
X174651717Y-79337952D02*
X174556479Y-79385571D01*
X174556479Y-79385571D02*
X174508860Y-79480809D01*
X174508860Y-79480809D02*
X174508860Y-79576047D01*
X174508860Y-79576047D02*
X174985050Y-79671285D01*
X174127907Y-79957000D02*
X174032669Y-80004619D01*
X174032669Y-80004619D02*
X173842193Y-80004619D01*
X173842193Y-80004619D02*
X173746955Y-79957000D01*
X173746955Y-79957000D02*
X173699336Y-79861761D01*
X173699336Y-79861761D02*
X173699336Y-79814142D01*
X173699336Y-79814142D02*
X173746955Y-79718904D01*
X173746955Y-79718904D02*
X173842193Y-79671285D01*
X173842193Y-79671285D02*
X173985050Y-79671285D01*
X173985050Y-79671285D02*
X174080288Y-79623666D01*
X174080288Y-79623666D02*
X174127907Y-79528428D01*
X174127907Y-79528428D02*
X174127907Y-79480809D01*
X174127907Y-79480809D02*
X174080288Y-79385571D01*
X174080288Y-79385571D02*
X173985050Y-79337952D01*
X173985050Y-79337952D02*
X173842193Y-79337952D01*
X173842193Y-79337952D02*
X173746955Y-79385571D01*
X173270764Y-80004619D02*
X173270764Y-79337952D01*
X173270764Y-79004619D02*
X173318383Y-79052238D01*
X173318383Y-79052238D02*
X173270764Y-79099857D01*
X173270764Y-79099857D02*
X173223145Y-79052238D01*
X173223145Y-79052238D02*
X173270764Y-79004619D01*
X173270764Y-79004619D02*
X173270764Y-79099857D01*
X172366003Y-79337952D02*
X172366003Y-80147476D01*
X172366003Y-80147476D02*
X172413622Y-80242714D01*
X172413622Y-80242714D02*
X172461241Y-80290333D01*
X172461241Y-80290333D02*
X172556479Y-80337952D01*
X172556479Y-80337952D02*
X172699336Y-80337952D01*
X172699336Y-80337952D02*
X172794574Y-80290333D01*
X172366003Y-79957000D02*
X172461241Y-80004619D01*
X172461241Y-80004619D02*
X172651717Y-80004619D01*
X172651717Y-80004619D02*
X172746955Y-79957000D01*
X172746955Y-79957000D02*
X172794574Y-79909380D01*
X172794574Y-79909380D02*
X172842193Y-79814142D01*
X172842193Y-79814142D02*
X172842193Y-79528428D01*
X172842193Y-79528428D02*
X172794574Y-79433190D01*
X172794574Y-79433190D02*
X172746955Y-79385571D01*
X172746955Y-79385571D02*
X172651717Y-79337952D01*
X172651717Y-79337952D02*
X172461241Y-79337952D01*
X172461241Y-79337952D02*
X172366003Y-79385571D01*
X171889812Y-79337952D02*
X171889812Y-80004619D01*
X171889812Y-79433190D02*
X171842193Y-79385571D01*
X171842193Y-79385571D02*
X171746955Y-79337952D01*
X171746955Y-79337952D02*
X171604098Y-79337952D01*
X171604098Y-79337952D02*
X171508860Y-79385571D01*
X171508860Y-79385571D02*
X171461241Y-79480809D01*
X171461241Y-79480809D02*
X171461241Y-80004619D01*
X170604098Y-79957000D02*
X170699336Y-80004619D01*
X170699336Y-80004619D02*
X170889812Y-80004619D01*
X170889812Y-80004619D02*
X170985050Y-79957000D01*
X170985050Y-79957000D02*
X171032669Y-79861761D01*
X171032669Y-79861761D02*
X171032669Y-79480809D01*
X171032669Y-79480809D02*
X170985050Y-79385571D01*
X170985050Y-79385571D02*
X170889812Y-79337952D01*
X170889812Y-79337952D02*
X170699336Y-79337952D01*
X170699336Y-79337952D02*
X170604098Y-79385571D01*
X170604098Y-79385571D02*
X170556479Y-79480809D01*
X170556479Y-79480809D02*
X170556479Y-79576047D01*
X170556479Y-79576047D02*
X171032669Y-79671285D01*
X169699336Y-80004619D02*
X169699336Y-79004619D01*
X169699336Y-79957000D02*
X169794574Y-80004619D01*
X169794574Y-80004619D02*
X169985050Y-80004619D01*
X169985050Y-80004619D02*
X170080288Y-79957000D01*
X170080288Y-79957000D02*
X170127907Y-79909380D01*
X170127907Y-79909380D02*
X170175526Y-79814142D01*
X170175526Y-79814142D02*
X170175526Y-79528428D01*
X170175526Y-79528428D02*
X170127907Y-79433190D01*
X170127907Y-79433190D02*
X170080288Y-79385571D01*
X170080288Y-79385571D02*
X169985050Y-79337952D01*
X169985050Y-79337952D02*
X169794574Y-79337952D01*
X169794574Y-79337952D02*
X169699336Y-79385571D01*
X168508859Y-79718904D02*
X168032669Y-79718904D01*
X168604097Y-80004619D02*
X168270764Y-79004619D01*
X168270764Y-79004619D02*
X167937431Y-80004619D01*
X167746954Y-79337952D02*
X167366002Y-79337952D01*
X167604097Y-79004619D02*
X167604097Y-79861761D01*
X167604097Y-79861761D02*
X167556478Y-79957000D01*
X167556478Y-79957000D02*
X167461240Y-80004619D01*
X167461240Y-80004619D02*
X167366002Y-80004619D01*
D10*
X180258566Y-99861797D02*
X180291900Y-99828464D01*
X180291900Y-99828464D02*
X180325233Y-99728464D01*
X180325233Y-99728464D02*
X180325233Y-99661797D01*
X180325233Y-99661797D02*
X180291900Y-99561797D01*
X180291900Y-99561797D02*
X180225233Y-99495131D01*
X180225233Y-99495131D02*
X180158566Y-99461797D01*
X180158566Y-99461797D02*
X180025233Y-99428464D01*
X180025233Y-99428464D02*
X179925233Y-99428464D01*
X179925233Y-99428464D02*
X179791900Y-99461797D01*
X179791900Y-99461797D02*
X179725233Y-99495131D01*
X179725233Y-99495131D02*
X179658566Y-99561797D01*
X179658566Y-99561797D02*
X179625233Y-99661797D01*
X179625233Y-99661797D02*
X179625233Y-99728464D01*
X179625233Y-99728464D02*
X179658566Y-99828464D01*
X179658566Y-99828464D02*
X179691900Y-99861797D01*
X180325233Y-100161797D02*
X179625233Y-100161797D01*
X179958566Y-100161797D02*
X179958566Y-100561797D01*
X180325233Y-100561797D02*
X179625233Y-100561797D01*
X179625233Y-100828464D02*
X179625233Y-101261797D01*
X179625233Y-101261797D02*
X179891900Y-101028464D01*
X179891900Y-101028464D02*
X179891900Y-101128464D01*
X179891900Y-101128464D02*
X179925233Y-101195130D01*
X179925233Y-101195130D02*
X179958566Y-101228464D01*
X179958566Y-101228464D02*
X180025233Y-101261797D01*
X180025233Y-101261797D02*
X180191900Y-101261797D01*
X180191900Y-101261797D02*
X180258566Y-101228464D01*
X180258566Y-101228464D02*
X180291900Y-101195130D01*
X180291900Y-101195130D02*
X180325233Y-101128464D01*
X180325233Y-101128464D02*
X180325233Y-100928464D01*
X180325233Y-100928464D02*
X180291900Y-100861797D01*
X180291900Y-100861797D02*
X180258566Y-100828464D01*
X179691900Y-101528464D02*
X179658566Y-101561797D01*
X179658566Y-101561797D02*
X179625233Y-101628464D01*
X179625233Y-101628464D02*
X179625233Y-101795131D01*
X179625233Y-101795131D02*
X179658566Y-101861797D01*
X179658566Y-101861797D02*
X179691900Y-101895131D01*
X179691900Y-101895131D02*
X179758566Y-101928464D01*
X179758566Y-101928464D02*
X179825233Y-101928464D01*
X179825233Y-101928464D02*
X179925233Y-101895131D01*
X179925233Y-101895131D02*
X180325233Y-101495131D01*
X180325233Y-101495131D02*
X180325233Y-101928464D01*
X179625233Y-102128464D02*
X180325233Y-102361798D01*
X180325233Y-102361798D02*
X179625233Y-102595131D01*
X179625233Y-102961798D02*
X179625233Y-103028464D01*
X179625233Y-103028464D02*
X179658566Y-103095131D01*
X179658566Y-103095131D02*
X179691900Y-103128464D01*
X179691900Y-103128464D02*
X179758566Y-103161798D01*
X179758566Y-103161798D02*
X179891900Y-103195131D01*
X179891900Y-103195131D02*
X180058566Y-103195131D01*
X180058566Y-103195131D02*
X180191900Y-103161798D01*
X180191900Y-103161798D02*
X180258566Y-103128464D01*
X180258566Y-103128464D02*
X180291900Y-103095131D01*
X180291900Y-103095131D02*
X180325233Y-103028464D01*
X180325233Y-103028464D02*
X180325233Y-102961798D01*
X180325233Y-102961798D02*
X180291900Y-102895131D01*
X180291900Y-102895131D02*
X180258566Y-102861798D01*
X180258566Y-102861798D02*
X180191900Y-102828464D01*
X180191900Y-102828464D02*
X180058566Y-102795131D01*
X180058566Y-102795131D02*
X179891900Y-102795131D01*
X179891900Y-102795131D02*
X179758566Y-102828464D01*
X179758566Y-102828464D02*
X179691900Y-102861798D01*
X179691900Y-102861798D02*
X179658566Y-102895131D01*
X179658566Y-102895131D02*
X179625233Y-102961798D01*
X179625233Y-103628465D02*
X179625233Y-103695131D01*
X179625233Y-103695131D02*
X179658566Y-103761798D01*
X179658566Y-103761798D02*
X179691900Y-103795131D01*
X179691900Y-103795131D02*
X179758566Y-103828465D01*
X179758566Y-103828465D02*
X179891900Y-103861798D01*
X179891900Y-103861798D02*
X180058566Y-103861798D01*
X180058566Y-103861798D02*
X180191900Y-103828465D01*
X180191900Y-103828465D02*
X180258566Y-103795131D01*
X180258566Y-103795131D02*
X180291900Y-103761798D01*
X180291900Y-103761798D02*
X180325233Y-103695131D01*
X180325233Y-103695131D02*
X180325233Y-103628465D01*
X180325233Y-103628465D02*
X180291900Y-103561798D01*
X180291900Y-103561798D02*
X180258566Y-103528465D01*
X180258566Y-103528465D02*
X180191900Y-103495131D01*
X180191900Y-103495131D02*
X180058566Y-103461798D01*
X180058566Y-103461798D02*
X179891900Y-103461798D01*
X179891900Y-103461798D02*
X179758566Y-103495131D01*
X179758566Y-103495131D02*
X179691900Y-103528465D01*
X179691900Y-103528465D02*
X179658566Y-103561798D01*
X179658566Y-103561798D02*
X179625233Y-103628465D01*
X179625233Y-104095132D02*
X179625233Y-104528465D01*
X179625233Y-104528465D02*
X179891900Y-104295132D01*
X179891900Y-104295132D02*
X179891900Y-104395132D01*
X179891900Y-104395132D02*
X179925233Y-104461798D01*
X179925233Y-104461798D02*
X179958566Y-104495132D01*
X179958566Y-104495132D02*
X180025233Y-104528465D01*
X180025233Y-104528465D02*
X180191900Y-104528465D01*
X180191900Y-104528465D02*
X180258566Y-104495132D01*
X180258566Y-104495132D02*
X180291900Y-104461798D01*
X180291900Y-104461798D02*
X180325233Y-104395132D01*
X180325233Y-104395132D02*
X180325233Y-104195132D01*
X180325233Y-104195132D02*
X180291900Y-104128465D01*
X180291900Y-104128465D02*
X180258566Y-104095132D01*
X179958566Y-105061799D02*
X179958566Y-104828465D01*
X180325233Y-104828465D02*
X179625233Y-104828465D01*
X179625233Y-104828465D02*
X179625233Y-105161799D01*
X180325233Y-105361799D02*
X179858566Y-105728465D01*
X179858566Y-105361799D02*
X180325233Y-105728465D01*
X180325233Y-105995132D02*
X179625233Y-105995132D01*
X179625233Y-105995132D02*
X179625233Y-106261799D01*
X179625233Y-106261799D02*
X179658566Y-106328466D01*
X179658566Y-106328466D02*
X179691900Y-106361799D01*
X179691900Y-106361799D02*
X179758566Y-106395132D01*
X179758566Y-106395132D02*
X179858566Y-106395132D01*
X179858566Y-106395132D02*
X179925233Y-106361799D01*
X179925233Y-106361799D02*
X179958566Y-106328466D01*
X179958566Y-106328466D02*
X179991900Y-106261799D01*
X179991900Y-106261799D02*
X179991900Y-105995132D01*
X180325233Y-106628466D02*
X179858566Y-106995132D01*
X179858566Y-106628466D02*
X180325233Y-106995132D01*
X176325130Y-104501400D02*
X176225130Y-104534733D01*
X176225130Y-104534733D02*
X176058464Y-104534733D01*
X176058464Y-104534733D02*
X175991797Y-104501400D01*
X175991797Y-104501400D02*
X175958464Y-104468066D01*
X175958464Y-104468066D02*
X175925130Y-104401400D01*
X175925130Y-104401400D02*
X175925130Y-104334733D01*
X175925130Y-104334733D02*
X175958464Y-104268066D01*
X175958464Y-104268066D02*
X175991797Y-104234733D01*
X175991797Y-104234733D02*
X176058464Y-104201400D01*
X176058464Y-104201400D02*
X176191797Y-104168066D01*
X176191797Y-104168066D02*
X176258464Y-104134733D01*
X176258464Y-104134733D02*
X176291797Y-104101400D01*
X176291797Y-104101400D02*
X176325130Y-104034733D01*
X176325130Y-104034733D02*
X176325130Y-103968066D01*
X176325130Y-103968066D02*
X176291797Y-103901400D01*
X176291797Y-103901400D02*
X176258464Y-103868066D01*
X176258464Y-103868066D02*
X176191797Y-103834733D01*
X176191797Y-103834733D02*
X176025130Y-103834733D01*
X176025130Y-103834733D02*
X175925130Y-103868066D01*
X175691797Y-103834733D02*
X175525130Y-104534733D01*
X175525130Y-104534733D02*
X175391797Y-104034733D01*
X175391797Y-104034733D02*
X175258463Y-104534733D01*
X175258463Y-104534733D02*
X175091797Y-103834733D01*
X174825130Y-104534733D02*
X174825130Y-103834733D01*
X174358464Y-103834733D02*
X174225130Y-103834733D01*
X174225130Y-103834733D02*
X174158464Y-103868066D01*
X174158464Y-103868066D02*
X174091797Y-103934733D01*
X174091797Y-103934733D02*
X174058464Y-104068066D01*
X174058464Y-104068066D02*
X174058464Y-104301400D01*
X174058464Y-104301400D02*
X174091797Y-104434733D01*
X174091797Y-104434733D02*
X174158464Y-104501400D01*
X174158464Y-104501400D02*
X174225130Y-104534733D01*
X174225130Y-104534733D02*
X174358464Y-104534733D01*
X174358464Y-104534733D02*
X174425130Y-104501400D01*
X174425130Y-104501400D02*
X174491797Y-104434733D01*
X174491797Y-104434733D02*
X174525130Y-104301400D01*
X174525130Y-104301400D02*
X174525130Y-104068066D01*
X174525130Y-104068066D02*
X174491797Y-103934733D01*
X174491797Y-103934733D02*
X174425130Y-103868066D01*
X174425130Y-103868066D02*
X174358464Y-103834733D01*
X171124869Y-105064733D02*
X170691535Y-105064733D01*
X170691535Y-105064733D02*
X170924869Y-105331400D01*
X170924869Y-105331400D02*
X170824869Y-105331400D01*
X170824869Y-105331400D02*
X170758202Y-105364733D01*
X170758202Y-105364733D02*
X170724869Y-105398066D01*
X170724869Y-105398066D02*
X170691535Y-105464733D01*
X170691535Y-105464733D02*
X170691535Y-105631400D01*
X170691535Y-105631400D02*
X170724869Y-105698066D01*
X170724869Y-105698066D02*
X170758202Y-105731400D01*
X170758202Y-105731400D02*
X170824869Y-105764733D01*
X170824869Y-105764733D02*
X171024869Y-105764733D01*
X171024869Y-105764733D02*
X171091535Y-105731400D01*
X171091535Y-105731400D02*
X171124869Y-105698066D01*
X170491535Y-105064733D02*
X170258202Y-105764733D01*
X170258202Y-105764733D02*
X170024868Y-105064733D01*
X169858202Y-105064733D02*
X169424868Y-105064733D01*
X169424868Y-105064733D02*
X169658202Y-105331400D01*
X169658202Y-105331400D02*
X169558202Y-105331400D01*
X169558202Y-105331400D02*
X169491535Y-105364733D01*
X169491535Y-105364733D02*
X169458202Y-105398066D01*
X169458202Y-105398066D02*
X169424868Y-105464733D01*
X169424868Y-105464733D02*
X169424868Y-105631400D01*
X169424868Y-105631400D02*
X169458202Y-105698066D01*
X169458202Y-105698066D02*
X169491535Y-105731400D01*
X169491535Y-105731400D02*
X169558202Y-105764733D01*
X169558202Y-105764733D02*
X169758202Y-105764733D01*
X169758202Y-105764733D02*
X169824868Y-105731400D01*
X169824868Y-105731400D02*
X169858202Y-105698066D01*
X165726665Y-103354586D02*
X165559998Y-103821253D01*
X165393331Y-103354586D02*
X165559998Y-103821253D01*
X165559998Y-103821253D02*
X165626665Y-103987920D01*
X165626665Y-103987920D02*
X165659998Y-104021253D01*
X165659998Y-104021253D02*
X165726665Y-104054586D01*
X165026665Y-103821253D02*
X165093332Y-103787920D01*
X165093332Y-103787920D02*
X165126665Y-103754586D01*
X165126665Y-103754586D02*
X165159998Y-103687920D01*
X165159998Y-103687920D02*
X165159998Y-103487920D01*
X165159998Y-103487920D02*
X165126665Y-103421253D01*
X165126665Y-103421253D02*
X165093332Y-103387920D01*
X165093332Y-103387920D02*
X165026665Y-103354586D01*
X165026665Y-103354586D02*
X164926665Y-103354586D01*
X164926665Y-103354586D02*
X164859998Y-103387920D01*
X164859998Y-103387920D02*
X164826665Y-103421253D01*
X164826665Y-103421253D02*
X164793332Y-103487920D01*
X164793332Y-103487920D02*
X164793332Y-103687920D01*
X164793332Y-103687920D02*
X164826665Y-103754586D01*
X164826665Y-103754586D02*
X164859998Y-103787920D01*
X164859998Y-103787920D02*
X164926665Y-103821253D01*
X164926665Y-103821253D02*
X165026665Y-103821253D01*
X164193332Y-103354586D02*
X164193332Y-103821253D01*
X164493332Y-103354586D02*
X164493332Y-103721253D01*
X164493332Y-103721253D02*
X164459999Y-103787920D01*
X164459999Y-103787920D02*
X164393332Y-103821253D01*
X164393332Y-103821253D02*
X164293332Y-103821253D01*
X164293332Y-103821253D02*
X164226665Y-103787920D01*
X164226665Y-103787920D02*
X164193332Y-103754586D01*
X163226666Y-103821253D02*
X163293333Y-103787920D01*
X163293333Y-103787920D02*
X163326666Y-103721253D01*
X163326666Y-103721253D02*
X163326666Y-103121253D01*
X162959999Y-103821253D02*
X162959999Y-103354586D01*
X162959999Y-103121253D02*
X162993332Y-103154586D01*
X162993332Y-103154586D02*
X162959999Y-103187920D01*
X162959999Y-103187920D02*
X162926666Y-103154586D01*
X162926666Y-103154586D02*
X162959999Y-103121253D01*
X162959999Y-103121253D02*
X162959999Y-103187920D01*
X162626666Y-103821253D02*
X162626666Y-103121253D01*
X162559999Y-103554586D02*
X162359999Y-103821253D01*
X162359999Y-103354586D02*
X162626666Y-103621253D01*
X161793332Y-103787920D02*
X161859999Y-103821253D01*
X161859999Y-103821253D02*
X161993332Y-103821253D01*
X161993332Y-103821253D02*
X162059999Y-103787920D01*
X162059999Y-103787920D02*
X162093332Y-103721253D01*
X162093332Y-103721253D02*
X162093332Y-103454586D01*
X162093332Y-103454586D02*
X162059999Y-103387920D01*
X162059999Y-103387920D02*
X161993332Y-103354586D01*
X161993332Y-103354586D02*
X161859999Y-103354586D01*
X161859999Y-103354586D02*
X161793332Y-103387920D01*
X161793332Y-103387920D02*
X161759999Y-103454586D01*
X161759999Y-103454586D02*
X161759999Y-103521253D01*
X161759999Y-103521253D02*
X162093332Y-103587920D01*
X160926666Y-103354586D02*
X160926666Y-104054586D01*
X160926666Y-103387920D02*
X160859999Y-103354586D01*
X160859999Y-103354586D02*
X160726666Y-103354586D01*
X160726666Y-103354586D02*
X160659999Y-103387920D01*
X160659999Y-103387920D02*
X160626666Y-103421253D01*
X160626666Y-103421253D02*
X160593333Y-103487920D01*
X160593333Y-103487920D02*
X160593333Y-103687920D01*
X160593333Y-103687920D02*
X160626666Y-103754586D01*
X160626666Y-103754586D02*
X160659999Y-103787920D01*
X160659999Y-103787920D02*
X160726666Y-103821253D01*
X160726666Y-103821253D02*
X160859999Y-103821253D01*
X160859999Y-103821253D02*
X160926666Y-103787920D01*
X159993333Y-103821253D02*
X159993333Y-103454586D01*
X159993333Y-103454586D02*
X160026666Y-103387920D01*
X160026666Y-103387920D02*
X160093333Y-103354586D01*
X160093333Y-103354586D02*
X160226666Y-103354586D01*
X160226666Y-103354586D02*
X160293333Y-103387920D01*
X159993333Y-103787920D02*
X160060000Y-103821253D01*
X160060000Y-103821253D02*
X160226666Y-103821253D01*
X160226666Y-103821253D02*
X160293333Y-103787920D01*
X160293333Y-103787920D02*
X160326666Y-103721253D01*
X160326666Y-103721253D02*
X160326666Y-103654586D01*
X160326666Y-103654586D02*
X160293333Y-103587920D01*
X160293333Y-103587920D02*
X160226666Y-103554586D01*
X160226666Y-103554586D02*
X160060000Y-103554586D01*
X160060000Y-103554586D02*
X159993333Y-103521253D01*
X159726667Y-103354586D02*
X159593333Y-103821253D01*
X159593333Y-103821253D02*
X159460000Y-103487920D01*
X159460000Y-103487920D02*
X159326667Y-103821253D01*
X159326667Y-103821253D02*
X159193333Y-103354586D01*
X158926667Y-103821253D02*
X158926667Y-103121253D01*
X158926667Y-103387920D02*
X158860000Y-103354586D01*
X158860000Y-103354586D02*
X158726667Y-103354586D01*
X158726667Y-103354586D02*
X158660000Y-103387920D01*
X158660000Y-103387920D02*
X158626667Y-103421253D01*
X158626667Y-103421253D02*
X158593334Y-103487920D01*
X158593334Y-103487920D02*
X158593334Y-103687920D01*
X158593334Y-103687920D02*
X158626667Y-103754586D01*
X158626667Y-103754586D02*
X158660000Y-103787920D01*
X158660000Y-103787920D02*
X158726667Y-103821253D01*
X158726667Y-103821253D02*
X158860000Y-103821253D01*
X158860000Y-103821253D02*
X158926667Y-103787920D01*
X158326667Y-103787920D02*
X158260001Y-103821253D01*
X158260001Y-103821253D02*
X158126667Y-103821253D01*
X158126667Y-103821253D02*
X158060001Y-103787920D01*
X158060001Y-103787920D02*
X158026667Y-103721253D01*
X158026667Y-103721253D02*
X158026667Y-103687920D01*
X158026667Y-103687920D02*
X158060001Y-103621253D01*
X158060001Y-103621253D02*
X158126667Y-103587920D01*
X158126667Y-103587920D02*
X158226667Y-103587920D01*
X158226667Y-103587920D02*
X158293334Y-103554586D01*
X158293334Y-103554586D02*
X158326667Y-103487920D01*
X158326667Y-103487920D02*
X158326667Y-103454586D01*
X158326667Y-103454586D02*
X158293334Y-103387920D01*
X158293334Y-103387920D02*
X158226667Y-103354586D01*
X158226667Y-103354586D02*
X158126667Y-103354586D01*
X158126667Y-103354586D02*
X158060001Y-103387920D01*
X164776665Y-104948214D02*
X164776665Y-104248214D01*
X164776665Y-104914881D02*
X164843332Y-104948214D01*
X164843332Y-104948214D02*
X164976665Y-104948214D01*
X164976665Y-104948214D02*
X165043332Y-104914881D01*
X165043332Y-104914881D02*
X165076665Y-104881547D01*
X165076665Y-104881547D02*
X165109998Y-104814881D01*
X165109998Y-104814881D02*
X165109998Y-104614881D01*
X165109998Y-104614881D02*
X165076665Y-104548214D01*
X165076665Y-104548214D02*
X165043332Y-104514881D01*
X165043332Y-104514881D02*
X164976665Y-104481547D01*
X164976665Y-104481547D02*
X164843332Y-104481547D01*
X164843332Y-104481547D02*
X164776665Y-104514881D01*
X164343332Y-104948214D02*
X164409999Y-104914881D01*
X164409999Y-104914881D02*
X164443332Y-104881547D01*
X164443332Y-104881547D02*
X164476665Y-104814881D01*
X164476665Y-104814881D02*
X164476665Y-104614881D01*
X164476665Y-104614881D02*
X164443332Y-104548214D01*
X164443332Y-104548214D02*
X164409999Y-104514881D01*
X164409999Y-104514881D02*
X164343332Y-104481547D01*
X164343332Y-104481547D02*
X164243332Y-104481547D01*
X164243332Y-104481547D02*
X164176665Y-104514881D01*
X164176665Y-104514881D02*
X164143332Y-104548214D01*
X164143332Y-104548214D02*
X164109999Y-104614881D01*
X164109999Y-104614881D02*
X164109999Y-104814881D01*
X164109999Y-104814881D02*
X164143332Y-104881547D01*
X164143332Y-104881547D02*
X164176665Y-104914881D01*
X164176665Y-104914881D02*
X164243332Y-104948214D01*
X164243332Y-104948214D02*
X164343332Y-104948214D01*
X163809999Y-104481547D02*
X163809999Y-104948214D01*
X163809999Y-104548214D02*
X163776666Y-104514881D01*
X163776666Y-104514881D02*
X163709999Y-104481547D01*
X163709999Y-104481547D02*
X163609999Y-104481547D01*
X163609999Y-104481547D02*
X163543332Y-104514881D01*
X163543332Y-104514881D02*
X163509999Y-104581547D01*
X163509999Y-104581547D02*
X163509999Y-104948214D01*
X163143333Y-104248214D02*
X163209999Y-104381547D01*
X162943333Y-104481547D02*
X162676666Y-104481547D01*
X162843333Y-104248214D02*
X162843333Y-104848214D01*
X162843333Y-104848214D02*
X162810000Y-104914881D01*
X162810000Y-104914881D02*
X162743333Y-104948214D01*
X162743333Y-104948214D02*
X162676666Y-104948214D01*
X161976667Y-104481547D02*
X161810000Y-104948214D01*
X161643333Y-104481547D02*
X161810000Y-104948214D01*
X161810000Y-104948214D02*
X161876667Y-105114881D01*
X161876667Y-105114881D02*
X161910000Y-105148214D01*
X161910000Y-105148214D02*
X161976667Y-105181547D01*
X161276667Y-104948214D02*
X161343334Y-104914881D01*
X161343334Y-104914881D02*
X161376667Y-104881547D01*
X161376667Y-104881547D02*
X161410000Y-104814881D01*
X161410000Y-104814881D02*
X161410000Y-104614881D01*
X161410000Y-104614881D02*
X161376667Y-104548214D01*
X161376667Y-104548214D02*
X161343334Y-104514881D01*
X161343334Y-104514881D02*
X161276667Y-104481547D01*
X161276667Y-104481547D02*
X161176667Y-104481547D01*
X161176667Y-104481547D02*
X161110000Y-104514881D01*
X161110000Y-104514881D02*
X161076667Y-104548214D01*
X161076667Y-104548214D02*
X161043334Y-104614881D01*
X161043334Y-104614881D02*
X161043334Y-104814881D01*
X161043334Y-104814881D02*
X161076667Y-104881547D01*
X161076667Y-104881547D02*
X161110000Y-104914881D01*
X161110000Y-104914881D02*
X161176667Y-104948214D01*
X161176667Y-104948214D02*
X161276667Y-104948214D01*
X160443334Y-104481547D02*
X160443334Y-104948214D01*
X160743334Y-104481547D02*
X160743334Y-104848214D01*
X160743334Y-104848214D02*
X160710001Y-104914881D01*
X160710001Y-104914881D02*
X160643334Y-104948214D01*
X160643334Y-104948214D02*
X160543334Y-104948214D01*
X160543334Y-104948214D02*
X160476667Y-104914881D01*
X160476667Y-104914881D02*
X160443334Y-104881547D01*
X160010001Y-104881547D02*
X159976668Y-104914881D01*
X159976668Y-104914881D02*
X160010001Y-104948214D01*
X160010001Y-104948214D02*
X160043334Y-104914881D01*
X160043334Y-104914881D02*
X160010001Y-104881547D01*
X160010001Y-104881547D02*
X160010001Y-104948214D01*
X160143334Y-104281547D02*
X160076668Y-104248214D01*
X160076668Y-104248214D02*
X159910001Y-104248214D01*
X159910001Y-104248214D02*
X159843334Y-104281547D01*
X159843334Y-104281547D02*
X159810001Y-104348214D01*
X159810001Y-104348214D02*
X159810001Y-104414881D01*
X159810001Y-104414881D02*
X159843334Y-104481547D01*
X159843334Y-104481547D02*
X159876668Y-104514881D01*
X159876668Y-104514881D02*
X159943334Y-104548214D01*
X159943334Y-104548214D02*
X159976668Y-104581547D01*
X159976668Y-104581547D02*
X160010001Y-104648214D01*
X160010001Y-104648214D02*
X160010001Y-104681547D01*
X159410001Y-104881547D02*
X159376668Y-104914881D01*
X159376668Y-104914881D02*
X159410001Y-104948214D01*
X159410001Y-104948214D02*
X159443334Y-104914881D01*
X159443334Y-104914881D02*
X159410001Y-104881547D01*
X159410001Y-104881547D02*
X159410001Y-104948214D01*
X159543334Y-104281547D02*
X159476668Y-104248214D01*
X159476668Y-104248214D02*
X159310001Y-104248214D01*
X159310001Y-104248214D02*
X159243334Y-104281547D01*
X159243334Y-104281547D02*
X159210001Y-104348214D01*
X159210001Y-104348214D02*
X159210001Y-104414881D01*
X159210001Y-104414881D02*
X159243334Y-104481547D01*
X159243334Y-104481547D02*
X159276668Y-104514881D01*
X159276668Y-104514881D02*
X159343334Y-104548214D01*
X159343334Y-104548214D02*
X159376668Y-104581547D01*
X159376668Y-104581547D02*
X159410001Y-104648214D01*
X159410001Y-104648214D02*
X159410001Y-104681547D01*
X158810001Y-104881547D02*
X158776668Y-104914881D01*
X158776668Y-104914881D02*
X158810001Y-104948214D01*
X158810001Y-104948214D02*
X158843334Y-104914881D01*
X158843334Y-104914881D02*
X158810001Y-104881547D01*
X158810001Y-104881547D02*
X158810001Y-104948214D01*
X158943334Y-104281547D02*
X158876668Y-104248214D01*
X158876668Y-104248214D02*
X158710001Y-104248214D01*
X158710001Y-104248214D02*
X158643334Y-104281547D01*
X158643334Y-104281547D02*
X158610001Y-104348214D01*
X158610001Y-104348214D02*
X158610001Y-104414881D01*
X158610001Y-104414881D02*
X158643334Y-104481547D01*
X158643334Y-104481547D02*
X158676668Y-104514881D01*
X158676668Y-104514881D02*
X158743334Y-104548214D01*
X158743334Y-104548214D02*
X158776668Y-104581547D01*
X158776668Y-104581547D02*
X158810001Y-104648214D01*
X158810001Y-104648214D02*
X158810001Y-104681547D01*
X176291797Y-102768066D02*
X176291797Y-103234733D01*
X176291797Y-102834733D02*
X176258464Y-102801400D01*
X176258464Y-102801400D02*
X176191797Y-102768066D01*
X176191797Y-102768066D02*
X176091797Y-102768066D01*
X176091797Y-102768066D02*
X176025130Y-102801400D01*
X176025130Y-102801400D02*
X175991797Y-102868066D01*
X175991797Y-102868066D02*
X175991797Y-103234733D01*
X175258464Y-103234733D02*
X175491797Y-102901400D01*
X175658464Y-103234733D02*
X175658464Y-102534733D01*
X175658464Y-102534733D02*
X175391797Y-102534733D01*
X175391797Y-102534733D02*
X175325131Y-102568066D01*
X175325131Y-102568066D02*
X175291797Y-102601400D01*
X175291797Y-102601400D02*
X175258464Y-102668066D01*
X175258464Y-102668066D02*
X175258464Y-102768066D01*
X175258464Y-102768066D02*
X175291797Y-102834733D01*
X175291797Y-102834733D02*
X175325131Y-102868066D01*
X175325131Y-102868066D02*
X175391797Y-102901400D01*
X175391797Y-102901400D02*
X175658464Y-102901400D01*
X174991797Y-103201400D02*
X174891797Y-103234733D01*
X174891797Y-103234733D02*
X174725131Y-103234733D01*
X174725131Y-103234733D02*
X174658464Y-103201400D01*
X174658464Y-103201400D02*
X174625131Y-103168066D01*
X174625131Y-103168066D02*
X174591797Y-103101400D01*
X174591797Y-103101400D02*
X174591797Y-103034733D01*
X174591797Y-103034733D02*
X174625131Y-102968066D01*
X174625131Y-102968066D02*
X174658464Y-102934733D01*
X174658464Y-102934733D02*
X174725131Y-102901400D01*
X174725131Y-102901400D02*
X174858464Y-102868066D01*
X174858464Y-102868066D02*
X174925131Y-102834733D01*
X174925131Y-102834733D02*
X174958464Y-102801400D01*
X174958464Y-102801400D02*
X174991797Y-102734733D01*
X174991797Y-102734733D02*
X174991797Y-102668066D01*
X174991797Y-102668066D02*
X174958464Y-102601400D01*
X174958464Y-102601400D02*
X174925131Y-102568066D01*
X174925131Y-102568066D02*
X174858464Y-102534733D01*
X174858464Y-102534733D02*
X174691797Y-102534733D01*
X174691797Y-102534733D02*
X174591797Y-102568066D01*
X174391797Y-102534733D02*
X173991797Y-102534733D01*
X174191797Y-103234733D02*
X174191797Y-102534733D01*
D12*
X184099046Y-96917200D02*
X183956189Y-96964819D01*
X183956189Y-96964819D02*
X183718094Y-96964819D01*
X183718094Y-96964819D02*
X183622856Y-96917200D01*
X183622856Y-96917200D02*
X183575237Y-96869580D01*
X183575237Y-96869580D02*
X183527618Y-96774342D01*
X183527618Y-96774342D02*
X183527618Y-96679104D01*
X183527618Y-96679104D02*
X183575237Y-96583866D01*
X183575237Y-96583866D02*
X183622856Y-96536247D01*
X183622856Y-96536247D02*
X183718094Y-96488628D01*
X183718094Y-96488628D02*
X183908570Y-96441009D01*
X183908570Y-96441009D02*
X184003808Y-96393390D01*
X184003808Y-96393390D02*
X184051427Y-96345771D01*
X184051427Y-96345771D02*
X184099046Y-96250533D01*
X184099046Y-96250533D02*
X184099046Y-96155295D01*
X184099046Y-96155295D02*
X184051427Y-96060057D01*
X184051427Y-96060057D02*
X184003808Y-96012438D01*
X184003808Y-96012438D02*
X183908570Y-95964819D01*
X183908570Y-95964819D02*
X183670475Y-95964819D01*
X183670475Y-95964819D02*
X183527618Y-96012438D01*
X183194284Y-95964819D02*
X182956189Y-96964819D01*
X182956189Y-96964819D02*
X182765713Y-96250533D01*
X182765713Y-96250533D02*
X182575237Y-96964819D01*
X182575237Y-96964819D02*
X182337142Y-95964819D01*
X181956189Y-96964819D02*
X181956189Y-95964819D01*
X181289523Y-95964819D02*
X181099047Y-95964819D01*
X181099047Y-95964819D02*
X181003809Y-96012438D01*
X181003809Y-96012438D02*
X180908571Y-96107676D01*
X180908571Y-96107676D02*
X180860952Y-96298152D01*
X180860952Y-96298152D02*
X180860952Y-96631485D01*
X180860952Y-96631485D02*
X180908571Y-96821961D01*
X180908571Y-96821961D02*
X181003809Y-96917200D01*
X181003809Y-96917200D02*
X181099047Y-96964819D01*
X181099047Y-96964819D02*
X181289523Y-96964819D01*
X181289523Y-96964819D02*
X181384761Y-96917200D01*
X181384761Y-96917200D02*
X181479999Y-96821961D01*
X181479999Y-96821961D02*
X181527618Y-96631485D01*
X181527618Y-96631485D02*
X181527618Y-96298152D01*
X181527618Y-96298152D02*
X181479999Y-96107676D01*
X181479999Y-96107676D02*
X181384761Y-96012438D01*
X181384761Y-96012438D02*
X181289523Y-95964819D01*
D13*
X166427421Y-93171667D02*
X167141706Y-93171667D01*
X167141706Y-93171667D02*
X167284563Y-93124048D01*
X167284563Y-93124048D02*
X167379802Y-93028810D01*
X167379802Y-93028810D02*
X167427421Y-92885953D01*
X167427421Y-92885953D02*
X167427421Y-92790715D01*
X166427421Y-94124048D02*
X166427421Y-93647858D01*
X166427421Y-93647858D02*
X166903611Y-93600239D01*
X166903611Y-93600239D02*
X166855992Y-93647858D01*
X166855992Y-93647858D02*
X166808373Y-93743096D01*
X166808373Y-93743096D02*
X166808373Y-93981191D01*
X166808373Y-93981191D02*
X166855992Y-94076429D01*
X166855992Y-94076429D02*
X166903611Y-94124048D01*
X166903611Y-94124048D02*
X166998849Y-94171667D01*
X166998849Y-94171667D02*
X167236944Y-94171667D01*
X167236944Y-94171667D02*
X167332182Y-94124048D01*
X167332182Y-94124048D02*
X167379802Y-94076429D01*
X167379802Y-94076429D02*
X167427421Y-93981191D01*
X167427421Y-93981191D02*
X167427421Y-93743096D01*
X167427421Y-93743096D02*
X167379802Y-93647858D01*
X167379802Y-93647858D02*
X167332182Y-93600239D01*
D12*
X183241904Y-101092438D02*
X183337142Y-101044819D01*
X183337142Y-101044819D02*
X183479999Y-101044819D01*
X183479999Y-101044819D02*
X183622856Y-101092438D01*
X183622856Y-101092438D02*
X183718094Y-101187676D01*
X183718094Y-101187676D02*
X183765713Y-101282914D01*
X183765713Y-101282914D02*
X183813332Y-101473390D01*
X183813332Y-101473390D02*
X183813332Y-101616247D01*
X183813332Y-101616247D02*
X183765713Y-101806723D01*
X183765713Y-101806723D02*
X183718094Y-101901961D01*
X183718094Y-101901961D02*
X183622856Y-101997200D01*
X183622856Y-101997200D02*
X183479999Y-102044819D01*
X183479999Y-102044819D02*
X183384761Y-102044819D01*
X183384761Y-102044819D02*
X183241904Y-101997200D01*
X183241904Y-101997200D02*
X183194285Y-101949580D01*
X183194285Y-101949580D02*
X183194285Y-101616247D01*
X183194285Y-101616247D02*
X183384761Y-101616247D01*
X182765713Y-102044819D02*
X182765713Y-101044819D01*
X182765713Y-101044819D02*
X182194285Y-102044819D01*
X182194285Y-102044819D02*
X182194285Y-101044819D01*
X181718094Y-102044819D02*
X181718094Y-101044819D01*
X181718094Y-101044819D02*
X181479999Y-101044819D01*
X181479999Y-101044819D02*
X181337142Y-101092438D01*
X181337142Y-101092438D02*
X181241904Y-101187676D01*
X181241904Y-101187676D02*
X181194285Y-101282914D01*
X181194285Y-101282914D02*
X181146666Y-101473390D01*
X181146666Y-101473390D02*
X181146666Y-101616247D01*
X181146666Y-101616247D02*
X181194285Y-101806723D01*
X181194285Y-101806723D02*
X181241904Y-101901961D01*
X181241904Y-101901961D02*
X181337142Y-101997200D01*
X181337142Y-101997200D02*
X181479999Y-102044819D01*
X181479999Y-102044819D02*
X181718094Y-102044819D01*
X183718094Y-106124819D02*
X183099047Y-106124819D01*
X183099047Y-106124819D02*
X183432380Y-106505771D01*
X183432380Y-106505771D02*
X183289523Y-106505771D01*
X183289523Y-106505771D02*
X183194285Y-106553390D01*
X183194285Y-106553390D02*
X183146666Y-106601009D01*
X183146666Y-106601009D02*
X183099047Y-106696247D01*
X183099047Y-106696247D02*
X183099047Y-106934342D01*
X183099047Y-106934342D02*
X183146666Y-107029580D01*
X183146666Y-107029580D02*
X183194285Y-107077200D01*
X183194285Y-107077200D02*
X183289523Y-107124819D01*
X183289523Y-107124819D02*
X183575237Y-107124819D01*
X183575237Y-107124819D02*
X183670475Y-107077200D01*
X183670475Y-107077200D02*
X183718094Y-107029580D01*
X182813332Y-106124819D02*
X182479999Y-107124819D01*
X182479999Y-107124819D02*
X182146666Y-106124819D01*
X181908570Y-106124819D02*
X181289523Y-106124819D01*
X181289523Y-106124819D02*
X181622856Y-106505771D01*
X181622856Y-106505771D02*
X181479999Y-106505771D01*
X181479999Y-106505771D02*
X181384761Y-106553390D01*
X181384761Y-106553390D02*
X181337142Y-106601009D01*
X181337142Y-106601009D02*
X181289523Y-106696247D01*
X181289523Y-106696247D02*
X181289523Y-106934342D01*
X181289523Y-106934342D02*
X181337142Y-107029580D01*
X181337142Y-107029580D02*
X181384761Y-107077200D01*
X181384761Y-107077200D02*
X181479999Y-107124819D01*
X181479999Y-107124819D02*
X181765713Y-107124819D01*
X181765713Y-107124819D02*
X181860951Y-107077200D01*
X181860951Y-107077200D02*
X181908570Y-107029580D01*
D14*
G36*
X162251532Y-108435387D02*
G01*
X162278282Y-108442498D01*
X162290181Y-108455732D01*
X162292587Y-108482906D01*
X162292587Y-108522723D01*
X162190591Y-108526800D01*
X162156688Y-108528176D01*
X162106070Y-108529913D01*
X162072942Y-108529546D01*
X162053460Y-108526062D01*
X162043776Y-108518451D01*
X162040042Y-108505700D01*
X162038413Y-108486800D01*
X162034858Y-108444142D01*
X162122667Y-108435914D01*
X162124139Y-108435778D01*
X162173531Y-108432792D01*
X162219236Y-108432649D01*
X162251532Y-108435387D01*
G37*
G36*
X161681632Y-108702895D02*
G01*
X161704547Y-108729131D01*
X161742498Y-108774250D01*
X161863091Y-108772743D01*
X161919708Y-108771095D01*
X161972875Y-108766155D01*
X162019509Y-108756660D01*
X162068665Y-108741222D01*
X162153646Y-108711207D01*
X162214374Y-108757450D01*
X162218149Y-108760315D01*
X162284822Y-108806545D01*
X162340887Y-108835236D01*
X162389794Y-108847262D01*
X162434997Y-108843500D01*
X162479946Y-108824826D01*
X162524770Y-108799633D01*
X162548172Y-108827740D01*
X162548473Y-108828102D01*
X162564914Y-108850244D01*
X162571961Y-108864354D01*
X162565450Y-108872043D01*
X162543424Y-108888122D01*
X162511151Y-108907957D01*
X162510810Y-108908152D01*
X162452944Y-108933572D01*
X162395896Y-108941518D01*
X162336348Y-108931430D01*
X162270985Y-108902749D01*
X162196489Y-108854916D01*
X162139230Y-108813779D01*
X162084770Y-108831065D01*
X162028248Y-108847464D01*
X161921871Y-108868621D01*
X161828629Y-108873217D01*
X161749425Y-108861336D01*
X161685162Y-108833065D01*
X161636744Y-108788490D01*
X161615551Y-108758767D01*
X161606997Y-108737208D01*
X161613745Y-108721124D01*
X161635718Y-108704244D01*
X161652741Y-108693939D01*
X161666693Y-108692006D01*
X161681632Y-108702895D01*
G37*
G36*
X162770513Y-107706991D02*
G01*
X162825382Y-107707218D01*
X162923183Y-107708057D01*
X163021127Y-107709381D01*
X163113351Y-107711089D01*
X163193991Y-107713083D01*
X163257181Y-107715262D01*
X163434946Y-107722840D01*
X163434946Y-107767705D01*
X163434946Y-107812570D01*
X163361233Y-107812570D01*
X163287519Y-107812570D01*
X163316381Y-107897081D01*
X163341871Y-107995197D01*
X163352351Y-108118351D01*
X163339887Y-108243377D01*
X163304509Y-108369179D01*
X163291704Y-108398954D01*
X163272096Y-108424939D01*
X163249616Y-108430073D01*
X163221691Y-108415805D01*
X163215424Y-108410454D01*
X163209942Y-108400024D01*
X163210554Y-108382876D01*
X163217750Y-108353899D01*
X163232019Y-108307981D01*
X163240899Y-108277630D01*
X163260115Y-108168017D01*
X163260716Y-108058196D01*
X163242984Y-107953266D01*
X163207200Y-107858327D01*
X163178106Y-107800913D01*
X163054514Y-107800913D01*
X162930922Y-107800913D01*
X162939077Y-107920549D01*
X162940525Y-107945372D01*
X162940833Y-108055474D01*
X162931157Y-108156235D01*
X162912136Y-108244465D01*
X162884412Y-108316973D01*
X162848627Y-108370571D01*
X162843159Y-108376038D01*
X162812306Y-108399857D01*
X162776341Y-108420640D01*
X162727582Y-108435252D01*
X162666371Y-108435144D01*
X162606929Y-108418159D01*
X162555497Y-108386217D01*
X162518317Y-108341240D01*
X162508534Y-108322300D01*
X162492621Y-108283373D01*
X162480655Y-108239131D01*
X162472139Y-108185983D01*
X162466575Y-108120339D01*
X162463465Y-108038608D01*
X162462311Y-107937200D01*
X162461610Y-107706299D01*
X162770513Y-107706991D01*
G37*
G36*
X160911266Y-107679434D02*
G01*
X160962380Y-107679741D01*
X161033123Y-107680161D01*
X161117585Y-107680661D01*
X161210908Y-107681212D01*
X161308233Y-107681783D01*
X161404701Y-107682348D01*
X161746600Y-107684346D01*
X161742507Y-107955365D01*
X161741279Y-108027352D01*
X161739461Y-108101392D01*
X161737135Y-108157872D01*
X161734048Y-108200026D01*
X161729948Y-108231084D01*
X161724582Y-108254282D01*
X161717698Y-108272852D01*
X161697066Y-108312090D01*
X161655223Y-108361396D01*
X161599012Y-108396688D01*
X161575632Y-108405757D01*
X161507070Y-108417956D01*
X161435744Y-108413475D01*
X161371262Y-108392492D01*
X161331934Y-108366761D01*
X161298753Y-108328877D01*
X161273844Y-108277469D01*
X161255710Y-108209377D01*
X161242854Y-108121440D01*
X161240982Y-108102573D01*
X161236093Y-108027314D01*
X161234476Y-107950910D01*
X161236459Y-107885425D01*
X161243953Y-107777600D01*
X161150464Y-107776143D01*
X161140190Y-107775976D01*
X161094608Y-107775071D01*
X161058085Y-107774094D01*
X161037748Y-107773229D01*
X161035138Y-107773261D01*
X161017232Y-107785901D01*
X161000642Y-107817691D01*
X160985818Y-107864997D01*
X160973210Y-107924183D01*
X160963269Y-107991615D01*
X160956446Y-108063658D01*
X160953191Y-108136676D01*
X160953955Y-108207034D01*
X160959187Y-108271098D01*
X160969339Y-108325231D01*
X160969896Y-108327332D01*
X160978785Y-108368672D01*
X160977102Y-108393192D01*
X160962928Y-108405559D01*
X160934348Y-108410441D01*
X160926072Y-108410852D01*
X160908325Y-108407374D01*
X160896587Y-108392454D01*
X160885313Y-108360436D01*
X160883589Y-108354553D01*
X160869258Y-108280828D01*
X160862414Y-108192609D01*
X160862802Y-108096746D01*
X160870170Y-108000091D01*
X160884266Y-107909494D01*
X160904835Y-107831806D01*
X160927495Y-107765943D01*
X160839994Y-107765943D01*
X160752493Y-107765943D01*
X160756110Y-107722230D01*
X160759728Y-107678518D01*
X160911266Y-107679434D01*
G37*
G36*
X160365345Y-105497260D02*
G01*
X160400337Y-105516981D01*
X160447183Y-105548279D01*
X160503602Y-105589369D01*
X160567310Y-105638462D01*
X160636024Y-105693774D01*
X160707463Y-105753517D01*
X160779342Y-105815906D01*
X160849380Y-105879153D01*
X160915294Y-105941474D01*
X160957498Y-105983260D01*
X161056670Y-106089885D01*
X161143591Y-106197726D01*
X161224776Y-106314635D01*
X161231960Y-106326047D01*
X161255190Y-106365818D01*
X161282362Y-106415357D01*
X161311306Y-106470352D01*
X161339854Y-106526489D01*
X161365834Y-106579456D01*
X161387078Y-106624939D01*
X161401415Y-106658627D01*
X161406676Y-106676205D01*
X161408503Y-106684537D01*
X161422052Y-106703431D01*
X161424290Y-106705025D01*
X161437966Y-106705705D01*
X161458315Y-106692393D01*
X161489078Y-106662822D01*
X161500208Y-106651538D01*
X161552994Y-106601715D01*
X161615161Y-106547382D01*
X161680302Y-106493843D01*
X161742009Y-106446408D01*
X161793874Y-106410383D01*
X161843705Y-106379630D01*
X161923345Y-106335918D01*
X162000650Y-106301902D01*
X162080731Y-106276052D01*
X162168702Y-106256834D01*
X162269672Y-106242719D01*
X162388755Y-106232175D01*
X162502408Y-106224062D01*
X162502236Y-106315998D01*
X162495189Y-106419717D01*
X162470534Y-106530226D01*
X162426553Y-106643663D01*
X162419758Y-106658398D01*
X162402437Y-106696258D01*
X162390371Y-106723084D01*
X162385841Y-106733821D01*
X162395385Y-106739409D01*
X162420566Y-106752181D01*
X162455909Y-106769354D01*
X162487400Y-106783169D01*
X162520077Y-106793287D01*
X162536564Y-106791897D01*
X162543290Y-106783497D01*
X162562380Y-106758572D01*
X162591487Y-106720126D01*
X162628494Y-106670993D01*
X162671281Y-106614005D01*
X162717728Y-106551994D01*
X162765718Y-106487794D01*
X162813130Y-106424236D01*
X162857846Y-106364153D01*
X162897746Y-106310379D01*
X162930711Y-106265745D01*
X162954622Y-106233084D01*
X162990489Y-106183901D01*
X163069908Y-106076559D01*
X163147535Y-105973680D01*
X163222059Y-105876875D01*
X163292173Y-105787752D01*
X163356568Y-105707924D01*
X163413933Y-105638999D01*
X163462961Y-105582588D01*
X163502342Y-105540301D01*
X163530767Y-105513748D01*
X163546928Y-105504539D01*
X163553831Y-105506415D01*
X163572330Y-105523149D01*
X163596534Y-105558003D01*
X163627001Y-105611927D01*
X163664288Y-105685871D01*
X163708953Y-105780787D01*
X163752553Y-105878173D01*
X163821029Y-106045332D01*
X163875951Y-106202721D01*
X163918452Y-106355392D01*
X163949663Y-106508395D01*
X163970719Y-106666783D01*
X163982753Y-106835605D01*
X163986897Y-107019913D01*
X163986917Y-107031431D01*
X163982640Y-107219039D01*
X163969241Y-107387409D01*
X163946162Y-107538863D01*
X163912843Y-107675727D01*
X163868726Y-107800322D01*
X163813252Y-107914973D01*
X163745861Y-108022002D01*
X163738801Y-108032042D01*
X163715707Y-108065774D01*
X163700127Y-108089970D01*
X163695115Y-108099937D01*
X163699947Y-108100901D01*
X163723975Y-108099843D01*
X163763580Y-108095722D01*
X163813995Y-108089238D01*
X163870452Y-108081095D01*
X163928183Y-108071995D01*
X163982421Y-108062641D01*
X164028399Y-108053735D01*
X164061348Y-108045979D01*
X164068422Y-108044006D01*
X164108600Y-108033043D01*
X164138356Y-108025315D01*
X164151687Y-108022391D01*
X164152940Y-108023408D01*
X164156311Y-108039211D01*
X164157663Y-108068072D01*
X164154105Y-108094789D01*
X164138152Y-108144155D01*
X164112012Y-108201810D01*
X164078575Y-108262191D01*
X164040730Y-108319736D01*
X164001368Y-108368884D01*
X163961042Y-108409750D01*
X163887503Y-108473882D01*
X163798198Y-108542252D01*
X163798655Y-108545821D01*
X163806427Y-108565977D01*
X163821465Y-108599684D01*
X163841701Y-108642190D01*
X163867677Y-108699999D01*
X163898542Y-108781818D01*
X163924019Y-108864389D01*
X163942011Y-108940737D01*
X163950422Y-109003883D01*
X163951679Y-109037694D01*
X163948365Y-109057387D01*
X163936655Y-109066991D01*
X163912872Y-109073302D01*
X163871979Y-109080292D01*
X163803786Y-109087067D01*
X163725759Y-109091004D01*
X163645454Y-109091908D01*
X163570426Y-109089582D01*
X163508231Y-109083830D01*
X163405804Y-109069347D01*
X163306722Y-109115650D01*
X163291918Y-109122554D01*
X163237084Y-109147930D01*
X163183921Y-109172281D01*
X163142139Y-109191151D01*
X163139010Y-109192547D01*
X163103910Y-109209397D01*
X163084299Y-109224148D01*
X163074491Y-109243121D01*
X163068797Y-109272632D01*
X163060904Y-109306956D01*
X163040289Y-109354057D01*
X163006352Y-109404029D01*
X162956899Y-109459961D01*
X162889737Y-109524945D01*
X162783375Y-109622703D01*
X162851391Y-109699715D01*
X162855720Y-109704644D01*
X162891729Y-109747460D01*
X162928055Y-109793364D01*
X162961636Y-109838166D01*
X162989411Y-109877677D01*
X163008321Y-109907708D01*
X163015304Y-109924070D01*
X163015061Y-109925285D01*
X163003180Y-109937350D01*
X162978939Y-109952300D01*
X162958494Y-109960457D01*
X162927928Y-109966112D01*
X162884886Y-109968179D01*
X162824020Y-109967171D01*
X162705467Y-109963235D01*
X162726303Y-110006323D01*
X162731226Y-110017478D01*
X162745452Y-110055572D01*
X162761737Y-110104972D01*
X162777444Y-110157860D01*
X162782465Y-110175794D01*
X162799385Y-110235878D01*
X162816020Y-110294496D01*
X162829392Y-110341148D01*
X162839611Y-110379324D01*
X162845970Y-110408942D01*
X162846856Y-110422748D01*
X162845749Y-110424092D01*
X162828183Y-110429097D01*
X162800817Y-110427632D01*
X162774192Y-110421109D01*
X162758846Y-110410943D01*
X162758636Y-110410540D01*
X162751438Y-110390682D01*
X162741275Y-110355713D01*
X162730275Y-110312937D01*
X162721576Y-110278253D01*
X162699315Y-110197980D01*
X162675523Y-110121961D01*
X162652210Y-110056402D01*
X162631385Y-110007511D01*
X162628395Y-110001341D01*
X162609786Y-109954267D01*
X162606304Y-109919775D01*
X162619430Y-109896546D01*
X162650644Y-109883263D01*
X162701428Y-109878609D01*
X162773260Y-109881266D01*
X162799426Y-109883140D01*
X162840224Y-109885352D01*
X162866013Y-109883695D01*
X162876672Y-109875947D01*
X162872080Y-109859884D01*
X162852119Y-109833283D01*
X162816667Y-109793922D01*
X162765604Y-109739577D01*
X162744510Y-109716957D01*
X162704414Y-109671708D01*
X162679486Y-109638705D01*
X162668327Y-109615418D01*
X162669542Y-109599321D01*
X162681731Y-109587885D01*
X162686019Y-109585083D01*
X162708728Y-109567418D01*
X162742772Y-109538815D01*
X162783859Y-109502999D01*
X162827692Y-109463695D01*
X162869977Y-109424627D01*
X162876494Y-109418430D01*
X162918948Y-109374344D01*
X162951323Y-109334192D01*
X162972324Y-109300468D01*
X162980653Y-109275668D01*
X162975012Y-109262285D01*
X162954106Y-109262814D01*
X162919507Y-109271676D01*
X162868968Y-109282883D01*
X162808868Y-109295055D01*
X162743256Y-109307491D01*
X162676184Y-109319490D01*
X162611702Y-109330347D01*
X162553861Y-109339363D01*
X162506713Y-109345833D01*
X162474308Y-109349057D01*
X162460696Y-109348333D01*
X162460163Y-109347375D01*
X162455810Y-109331455D01*
X162449971Y-109303187D01*
X162442082Y-109260945D01*
X162510130Y-109252931D01*
X162549770Y-109247962D01*
X162640967Y-109234559D01*
X162731852Y-109218797D01*
X162816698Y-109201789D01*
X162889777Y-109184645D01*
X162945364Y-109168477D01*
X162966641Y-109160846D01*
X163017260Y-109141268D01*
X163079740Y-109115881D01*
X163148119Y-109087127D01*
X163216435Y-109057447D01*
X163400082Y-108976208D01*
X163505146Y-108990565D01*
X163525510Y-108992936D01*
X163576571Y-108996618D01*
X163634510Y-108998580D01*
X163694301Y-108998897D01*
X163750917Y-108997646D01*
X163799332Y-108994906D01*
X163834520Y-108990752D01*
X163851454Y-108985262D01*
X163852281Y-108981252D01*
X163849831Y-108958904D01*
X163842559Y-108922139D01*
X163831463Y-108876386D01*
X163826938Y-108859902D01*
X163801805Y-108784219D01*
X163770143Y-108706903D01*
X163735541Y-108636139D01*
X163701588Y-108580114D01*
X163701355Y-108579784D01*
X163686079Y-108553320D01*
X163679737Y-108532914D01*
X163686009Y-108522613D01*
X163707739Y-108500677D01*
X163741343Y-108471553D01*
X163782986Y-108438737D01*
X163848262Y-108387204D01*
X163918439Y-108323751D01*
X163970382Y-108265020D01*
X164006111Y-108208928D01*
X164013959Y-108192972D01*
X164024749Y-108167986D01*
X164027338Y-108156658D01*
X164025814Y-108156328D01*
X164007712Y-108157490D01*
X163973995Y-108161657D01*
X163930357Y-108168154D01*
X163893911Y-108173506D01*
X163829096Y-108181334D01*
X163762336Y-108187696D01*
X163698642Y-108192257D01*
X163643022Y-108194684D01*
X163600485Y-108194643D01*
X163576040Y-108191799D01*
X163561696Y-108183205D01*
X163551513Y-108160478D01*
X163553353Y-108150873D01*
X163566542Y-108121486D01*
X163589293Y-108083414D01*
X163617864Y-108042648D01*
X163648512Y-108005181D01*
X163666211Y-107981954D01*
X163693771Y-107938209D01*
X163724406Y-107883697D01*
X163754919Y-107824421D01*
X163782112Y-107766384D01*
X163802787Y-107715586D01*
X163822328Y-107656442D01*
X163857573Y-107512470D01*
X163881945Y-107353361D01*
X163895549Y-107182833D01*
X163898494Y-107004607D01*
X163890885Y-106822401D01*
X163872831Y-106639935D01*
X163844439Y-106460929D01*
X163805815Y-106289102D01*
X163757066Y-106128174D01*
X163742866Y-106088936D01*
X163717690Y-106024165D01*
X163689401Y-105955745D01*
X163659477Y-105886835D01*
X163629399Y-105820593D01*
X163600644Y-105760178D01*
X163574693Y-105708748D01*
X163553025Y-105669464D01*
X163537119Y-105645483D01*
X163528453Y-105639965D01*
X163512290Y-105658137D01*
X163482152Y-105694113D01*
X163442567Y-105742640D01*
X163396095Y-105800478D01*
X163345297Y-105864388D01*
X163292736Y-105931130D01*
X163240972Y-105997464D01*
X163192566Y-106060150D01*
X163150079Y-106115949D01*
X163116073Y-106161620D01*
X163088087Y-106199768D01*
X163039688Y-106265435D01*
X162983371Y-106341581D01*
X162922658Y-106423454D01*
X162861070Y-106506301D01*
X162802129Y-106585366D01*
X162794871Y-106595091D01*
X162737152Y-106672938D01*
X162692398Y-106734490D01*
X162659376Y-106781631D01*
X162636853Y-106816243D01*
X162623599Y-106840209D01*
X162618379Y-106855413D01*
X162619963Y-106863737D01*
X162628744Y-106871854D01*
X162648768Y-106880032D01*
X162649155Y-106880049D01*
X162665216Y-106888363D01*
X162691711Y-106908960D01*
X162723109Y-106937559D01*
X162758113Y-106976337D01*
X162779791Y-107014657D01*
X162780401Y-107044737D01*
X162759792Y-107066039D01*
X162757532Y-107067206D01*
X162714560Y-107081044D01*
X162649308Y-107090753D01*
X162561608Y-107096345D01*
X162451291Y-107097831D01*
X162318190Y-107095222D01*
X162069859Y-107087230D01*
X162073398Y-107044829D01*
X162076938Y-107002428D01*
X162339693Y-107006900D01*
X162375449Y-107007427D01*
X162450340Y-107007982D01*
X162516917Y-107007751D01*
X162571431Y-107006784D01*
X162610134Y-107005136D01*
X162629280Y-107002857D01*
X162631332Y-107002194D01*
X162642973Y-106996586D01*
X162642209Y-106988703D01*
X162626632Y-106975112D01*
X162593830Y-106952384D01*
X162586261Y-106947418D01*
X162549927Y-106925324D01*
X162502480Y-106898184D01*
X162449131Y-106868791D01*
X162395090Y-106839941D01*
X162345569Y-106814428D01*
X162305779Y-106795045D01*
X162280931Y-106784589D01*
X162276691Y-106781608D01*
X162275435Y-106769898D01*
X162282364Y-106747087D01*
X162298535Y-106710089D01*
X162325004Y-106655817D01*
X162331520Y-106642564D01*
X162367525Y-106560028D01*
X162395566Y-106479250D01*
X162413857Y-106406020D01*
X162420609Y-106346129D01*
X162420617Y-106344941D01*
X162419624Y-106332611D01*
X162413468Y-106325494D01*
X162397627Y-106322736D01*
X162367583Y-106323482D01*
X162318815Y-106326876D01*
X162232146Y-106336250D01*
X162118824Y-106359253D01*
X162011598Y-106395275D01*
X161907276Y-106445937D01*
X161802663Y-106512859D01*
X161694569Y-106597662D01*
X161579799Y-106701967D01*
X161524525Y-106754658D01*
X161477921Y-106796329D01*
X161442445Y-106822022D01*
X161415218Y-106831909D01*
X161393361Y-106826162D01*
X161373996Y-106804953D01*
X161354244Y-106768454D01*
X161331226Y-106716838D01*
X161325094Y-106702769D01*
X161279136Y-106602126D01*
X161231868Y-106506206D01*
X161186235Y-106420790D01*
X161145182Y-106351660D01*
X161062517Y-106235254D01*
X160949666Y-106102731D01*
X160814710Y-105966634D01*
X160658066Y-105827382D01*
X160480152Y-105685392D01*
X160375428Y-105605786D01*
X160321510Y-105721271D01*
X160289217Y-105794624D01*
X160236181Y-105935330D01*
X160192098Y-106079376D01*
X160160321Y-106216457D01*
X160156341Y-106238376D01*
X160136484Y-106379656D01*
X160123233Y-106535142D01*
X160116512Y-106699589D01*
X160116247Y-106867752D01*
X160122363Y-107034388D01*
X160134785Y-107194251D01*
X160153438Y-107342096D01*
X160178247Y-107472680D01*
X160187288Y-107509405D01*
X160224523Y-107624805D01*
X160273265Y-107725688D01*
X160336417Y-107816438D01*
X160416882Y-107901437D01*
X160517561Y-107985068D01*
X160525294Y-107990990D01*
X160558289Y-108018314D01*
X160581538Y-108040935D01*
X160590415Y-108054447D01*
X160588612Y-108057739D01*
X160576067Y-108062199D01*
X160549570Y-108065407D01*
X160506784Y-108067513D01*
X160445370Y-108068667D01*
X160362990Y-108069018D01*
X160135273Y-108069018D01*
X160148439Y-108095246D01*
X160151959Y-108100510D01*
X160170661Y-108122591D01*
X160202331Y-108156920D01*
X160244374Y-108200771D01*
X160294194Y-108251417D01*
X160349196Y-108306133D01*
X160390914Y-108347451D01*
X160446137Y-108403394D01*
X160486038Y-108445862D01*
X160511823Y-108476218D01*
X160524696Y-108495826D01*
X160525862Y-108506049D01*
X160516076Y-108519251D01*
X160494855Y-108547473D01*
X160465788Y-108585930D01*
X160432141Y-108630292D01*
X160410822Y-108658703D01*
X160368614Y-108716979D01*
X160330234Y-108772511D01*
X160297728Y-108822128D01*
X160273139Y-108862656D01*
X160258512Y-108890924D01*
X160255891Y-108903761D01*
X160259705Y-108906414D01*
X160284526Y-108915682D01*
X160325868Y-108926372D01*
X160378802Y-108937420D01*
X160438397Y-108947764D01*
X160499722Y-108956341D01*
X160530323Y-108959750D01*
X160596426Y-108964045D01*
X160660750Y-108962669D01*
X160735481Y-108955583D01*
X160790891Y-108949427D01*
X160829653Y-108946652D01*
X160856409Y-108947564D01*
X160876737Y-108952360D01*
X160896210Y-108961237D01*
X160916411Y-108971788D01*
X161009617Y-109018365D01*
X161095095Y-109056706D01*
X161182470Y-109090906D01*
X161281367Y-109125058D01*
X161313011Y-109135701D01*
X161369038Y-109155828D01*
X161413474Y-109173540D01*
X161442751Y-109187367D01*
X161453303Y-109195841D01*
X161451911Y-109200353D01*
X161439191Y-109221146D01*
X161416040Y-109252448D01*
X161385959Y-109289396D01*
X161325492Y-109363028D01*
X161213904Y-109515825D01*
X161122758Y-109668016D01*
X161050577Y-109823023D01*
X160995885Y-109984268D01*
X160957205Y-110155175D01*
X160933061Y-110339165D01*
X160932529Y-110344857D01*
X160927802Y-110384932D01*
X160922733Y-110413474D01*
X160918334Y-110424623D01*
X160891684Y-110427356D01*
X160854722Y-110425664D01*
X160838419Y-110414479D01*
X160838111Y-110413501D01*
X160837274Y-110392271D01*
X160839988Y-110353303D01*
X160845602Y-110301299D01*
X160853465Y-110240964D01*
X160862926Y-110177001D01*
X160873333Y-110114114D01*
X160884034Y-110057007D01*
X160894379Y-110010383D01*
X160913375Y-109941806D01*
X160974283Y-109775297D01*
X161055374Y-109608759D01*
X161154820Y-109445690D01*
X161270794Y-109289593D01*
X161291714Y-109263022D01*
X161307574Y-109240706D01*
X161311985Y-109231149D01*
X161307597Y-109229448D01*
X161285198Y-109221825D01*
X161248522Y-109209785D01*
X161202684Y-109195018D01*
X161162171Y-109180938D01*
X161097850Y-109155914D01*
X161029278Y-109126928D01*
X160965780Y-109097806D01*
X160833787Y-109034117D01*
X160720989Y-109048476D01*
X160710231Y-109049812D01*
X160638072Y-109056229D01*
X160573452Y-109056097D01*
X160503280Y-109049477D01*
X160467722Y-109044451D01*
X160405223Y-109033784D01*
X160340320Y-109020882D01*
X160277246Y-109006768D01*
X160220230Y-108992466D01*
X160173505Y-108979000D01*
X160141301Y-108967392D01*
X160127850Y-108958667D01*
X160128285Y-108946668D01*
X160139478Y-108915973D01*
X160161302Y-108872232D01*
X160191778Y-108818732D01*
X160228925Y-108758755D01*
X160270762Y-108695586D01*
X160315307Y-108632510D01*
X160360580Y-108572810D01*
X160418438Y-108499594D01*
X160338463Y-108427101D01*
X160317457Y-108407885D01*
X160235834Y-108329474D01*
X160165887Y-108256039D01*
X160109042Y-108189340D01*
X160066722Y-108131141D01*
X160040354Y-108083204D01*
X160031362Y-108047290D01*
X160031484Y-108039313D01*
X160034019Y-108016733D01*
X160042481Y-108000936D01*
X160060348Y-107990531D01*
X160091096Y-107984127D01*
X160138202Y-107980333D01*
X160205145Y-107977757D01*
X160357201Y-107973019D01*
X160302017Y-107915474D01*
X160260841Y-107868916D01*
X160207674Y-107794521D01*
X160162303Y-107710789D01*
X160124193Y-107615774D01*
X160092808Y-107507530D01*
X160067614Y-107384112D01*
X160048076Y-107243572D01*
X160033659Y-107083965D01*
X160023828Y-106903346D01*
X160023249Y-106888084D01*
X160022338Y-106674802D01*
X160034634Y-106466846D01*
X160059673Y-106267975D01*
X160096992Y-106081947D01*
X160146125Y-105912524D01*
X160165305Y-105859767D01*
X160191377Y-105794071D01*
X160220225Y-105726085D01*
X160249989Y-105659817D01*
X160278812Y-105599274D01*
X160304835Y-105548466D01*
X160326201Y-105511398D01*
X160341051Y-105492081D01*
X160344490Y-105490903D01*
X160365345Y-105497260D01*
G37*
D15*
X183430000Y-94760000D02*
G75*
G02*
X181530000Y-94760000I-950000J0D01*
G01*
X181530000Y-94760000D02*
G75*
G02*
X183430000Y-94760000I950000J0D01*
G01*
X167970002Y-90855001D02*
X167970001Y-92235001D01*
X167970002Y-93505001D02*
X167970003Y-96155000D01*
X167970003Y-96155000D02*
X175810002Y-96155001D01*
X169350002Y-90855000D02*
X167970002Y-90855001D01*
X170620002Y-90855001D02*
X170620002Y-93505001D01*
X170620002Y-90855001D02*
X175810003Y-90854999D01*
X170620002Y-93505001D02*
X167970002Y-93505001D01*
X175810003Y-90854999D02*
X175810002Y-96155001D01*
D14*
G36*
X167327518Y-83884670D02*
G01*
X167327518Y-84664014D01*
X167166399Y-84652357D01*
X167005279Y-84640699D01*
X166995017Y-83873013D01*
X166984754Y-83105326D01*
X167156136Y-83105326D01*
X167327518Y-83105326D01*
X167327518Y-83884670D01*
G37*
G36*
X168464832Y-81626819D02*
G01*
X168464832Y-82612490D01*
X168180503Y-82612490D01*
X167896175Y-82612490D01*
X167896175Y-81626819D01*
X167896175Y-80641147D01*
X168180503Y-80641147D01*
X168464832Y-80641147D01*
X168464832Y-81626819D01*
G37*
G36*
X165394085Y-80868610D02*
G01*
X165394085Y-81096072D01*
X165147667Y-81096072D01*
X164901249Y-81096072D01*
X164901249Y-81854281D01*
X164901249Y-82612490D01*
X164616921Y-82612490D01*
X164332593Y-82612490D01*
X164332593Y-81854281D01*
X164332593Y-81096072D01*
X164105130Y-81096072D01*
X163877667Y-81096072D01*
X163877667Y-80868610D01*
X163877667Y-80641147D01*
X164635876Y-80641147D01*
X165394085Y-80641147D01*
X165394085Y-80868610D01*
G37*
G36*
X174378861Y-83218118D02*
G01*
X174379066Y-83306036D01*
X174379582Y-83361222D01*
X174357807Y-83375552D01*
X174278724Y-83393988D01*
X174161597Y-83408610D01*
X173942891Y-83427565D01*
X173932464Y-84045743D01*
X173922037Y-84663921D01*
X173761867Y-84652310D01*
X173601697Y-84640699D01*
X173591281Y-84024654D01*
X173580864Y-83408610D01*
X173352052Y-83408610D01*
X173123240Y-83408610D01*
X173135006Y-83266445D01*
X173146772Y-83124281D01*
X173762817Y-83113865D01*
X174378861Y-83103448D01*
X174378861Y-83218118D01*
G37*
G36*
X167517070Y-81625446D02*
G01*
X167517070Y-82612490D01*
X167270652Y-82612490D01*
X167024235Y-82612490D01*
X167023577Y-81958535D01*
X167022919Y-81304580D01*
X166688400Y-81949057D01*
X166353881Y-82593535D01*
X165987715Y-82604385D01*
X165621548Y-82615236D01*
X165621548Y-81628191D01*
X165621548Y-80641147D01*
X165867966Y-80641147D01*
X166114384Y-80641147D01*
X166115021Y-81295102D01*
X166115659Y-81949057D01*
X166452449Y-81304580D01*
X166789240Y-80660102D01*
X167153155Y-80649252D01*
X167517070Y-80638401D01*
X167517070Y-81625446D01*
G37*
G36*
X171535578Y-83256968D02*
G01*
X171535578Y-83408610D01*
X171308115Y-83408610D01*
X171080652Y-83408610D01*
X171080652Y-84008858D01*
X171080089Y-84135381D01*
X171076892Y-84326677D01*
X171071345Y-84482595D01*
X171063992Y-84589657D01*
X171055379Y-84634381D01*
X171049343Y-84638493D01*
X170985588Y-84653560D01*
X170885721Y-84659654D01*
X170741337Y-84659654D01*
X170730920Y-84043610D01*
X170720503Y-83427565D01*
X170502518Y-83416195D01*
X170284533Y-83404826D01*
X170284533Y-83255076D01*
X170284533Y-83105326D01*
X170910055Y-83105326D01*
X171535578Y-83105326D01*
X171535578Y-83256968D01*
G37*
G36*
X166486952Y-83112847D02*
G01*
X166664085Y-83124281D01*
X166674430Y-83843412D01*
X166674507Y-83848817D01*
X166676759Y-84076554D01*
X166676910Y-84279373D01*
X166675100Y-84444550D01*
X166671465Y-84559366D01*
X166666142Y-84611099D01*
X166661880Y-84618402D01*
X166601803Y-84648177D01*
X166495811Y-84659654D01*
X166344112Y-84659654D01*
X166333502Y-84179283D01*
X166322891Y-83698911D01*
X166038563Y-84169805D01*
X165754235Y-84640699D01*
X165574160Y-84652254D01*
X165394085Y-84663809D01*
X165394085Y-83884567D01*
X165394085Y-83105326D01*
X165563515Y-83105326D01*
X165732946Y-83105326D01*
X165743590Y-83568154D01*
X165754235Y-84030983D01*
X166032027Y-83566197D01*
X166309820Y-83101412D01*
X166486952Y-83112847D01*
G37*
G36*
X168730205Y-83857217D02*
G01*
X168730174Y-83894378D01*
X168728591Y-84122541D01*
X168724888Y-84322535D01*
X168719452Y-84482448D01*
X168712670Y-84590368D01*
X168704931Y-84634381D01*
X168698646Y-84638613D01*
X168634516Y-84653598D01*
X168534334Y-84659654D01*
X168389011Y-84659654D01*
X168389011Y-84417251D01*
X168389011Y-84174847D01*
X168086536Y-84161111D01*
X168047315Y-84159131D01*
X167862108Y-84139329D01*
X167737364Y-84096948D01*
X167660472Y-84020558D01*
X167618818Y-83898731D01*
X167599790Y-83720037D01*
X167599054Y-83560401D01*
X167620119Y-83427565D01*
X167953041Y-83427565D01*
X167953041Y-83636072D01*
X167953041Y-83844580D01*
X168171026Y-83855949D01*
X168389011Y-83867319D01*
X168389011Y-83636072D01*
X168389011Y-83404826D01*
X168171026Y-83416195D01*
X167953041Y-83427565D01*
X167620119Y-83427565D01*
X167630365Y-83362957D01*
X167698728Y-83221815D01*
X167802033Y-83142995D01*
X167853668Y-83131252D01*
X167974621Y-83117858D01*
X168135495Y-83108711D01*
X168315658Y-83105326D01*
X168730205Y-83105326D01*
X168730205Y-83636072D01*
X168730205Y-83857217D01*
G37*
G36*
X172066324Y-81626819D02*
G01*
X172066324Y-82612490D01*
X171781996Y-82612490D01*
X171497667Y-82612490D01*
X171497667Y-82295517D01*
X171497667Y-81978543D01*
X171271159Y-81958004D01*
X171090856Y-81926894D01*
X170886617Y-81839386D01*
X170738609Y-81702058D01*
X170648547Y-81516676D01*
X170618145Y-81285009D01*
X170619428Y-81259558D01*
X171161072Y-81259558D01*
X171176957Y-81333285D01*
X171249526Y-81420034D01*
X171254615Y-81425013D01*
X171341046Y-81487383D01*
X171420123Y-81513087D01*
X171448760Y-81510693D01*
X171480411Y-81487581D01*
X171494473Y-81424900D01*
X171497667Y-81304580D01*
X171497667Y-81096072D01*
X171366315Y-81096072D01*
X171262367Y-81111509D01*
X171195718Y-81169401D01*
X171195596Y-81169627D01*
X171161072Y-81259558D01*
X170619428Y-81259558D01*
X170624319Y-81162548D01*
X170671467Y-80976280D01*
X170770624Y-80834898D01*
X170928433Y-80726445D01*
X170950614Y-80715449D01*
X171029112Y-80682669D01*
X171114136Y-80661111D01*
X171223001Y-80648512D01*
X171373024Y-80642611D01*
X171581521Y-80641147D01*
X172066324Y-80641147D01*
X172066324Y-81304580D01*
X172066324Y-81626819D01*
G37*
G36*
X178624832Y-81626819D02*
G01*
X178624832Y-82612490D01*
X178340503Y-82612490D01*
X178056175Y-82612490D01*
X178056175Y-82290251D01*
X178056175Y-81968013D01*
X177910190Y-81968013D01*
X177890859Y-81967847D01*
X177647498Y-81932909D01*
X177449749Y-81840305D01*
X177302475Y-81694722D01*
X177210544Y-81500849D01*
X177178819Y-81263372D01*
X177178967Y-81259558D01*
X177719579Y-81259558D01*
X177735464Y-81333285D01*
X177808034Y-81420034D01*
X177813123Y-81425013D01*
X177899554Y-81487383D01*
X177978631Y-81513087D01*
X178007268Y-81510693D01*
X178038918Y-81487581D01*
X178052981Y-81424900D01*
X178056175Y-81304580D01*
X178056175Y-81096072D01*
X177924822Y-81096072D01*
X177820875Y-81111509D01*
X177754225Y-81169401D01*
X177754104Y-81169627D01*
X177719579Y-81259558D01*
X177178967Y-81259558D01*
X177182064Y-81179782D01*
X177225987Y-80986836D01*
X177325719Y-80839024D01*
X177486941Y-80726445D01*
X177509121Y-80715449D01*
X177587619Y-80682669D01*
X177672643Y-80661111D01*
X177781509Y-80648512D01*
X177931532Y-80642611D01*
X178140029Y-80641147D01*
X178624832Y-80641147D01*
X178624832Y-81304580D01*
X178624832Y-81626819D01*
G37*
G36*
X178624797Y-83893908D02*
G01*
X178623195Y-84122324D01*
X178619486Y-84322465D01*
X178614053Y-84482446D01*
X178607282Y-84590380D01*
X178599558Y-84634381D01*
X178593273Y-84638613D01*
X178529143Y-84653598D01*
X178428961Y-84659654D01*
X178283638Y-84659654D01*
X178283638Y-84413236D01*
X178283638Y-84166819D01*
X177996393Y-84166819D01*
X177936708Y-84166623D01*
X177807622Y-84161957D01*
X177723458Y-84146213D01*
X177661325Y-84113019D01*
X177598333Y-84056003D01*
X177565231Y-84021701D01*
X177522517Y-83964109D01*
X177499200Y-83895981D01*
X177496056Y-83863535D01*
X177824928Y-83863535D01*
X178056175Y-83863535D01*
X178287421Y-83863535D01*
X178276052Y-83645550D01*
X178264682Y-83427565D01*
X178056175Y-83427565D01*
X177847667Y-83427565D01*
X177836298Y-83645550D01*
X177824928Y-83863535D01*
X177496056Y-83863535D01*
X177489470Y-83795563D01*
X177487518Y-83641102D01*
X177487558Y-83614953D01*
X177491274Y-83464657D01*
X177504487Y-83365118D01*
X177532076Y-83294420D01*
X177578922Y-83230649D01*
X177580311Y-83229034D01*
X177620675Y-83185442D01*
X177663028Y-83155583D01*
X177722132Y-83136367D01*
X177812750Y-83124709D01*
X177949645Y-83117520D01*
X178147579Y-83111712D01*
X178624832Y-83099142D01*
X178624832Y-83854125D01*
X178624824Y-83863535D01*
X178624797Y-83893908D01*
G37*
G36*
X175819458Y-83875882D02*
G01*
X175819381Y-83981173D01*
X175818053Y-84174676D01*
X175813777Y-84310695D01*
X175804903Y-84402011D01*
X175789777Y-84461403D01*
X175766747Y-84501649D01*
X175734160Y-84535530D01*
X175656331Y-84593608D01*
X175573041Y-84632517D01*
X175567968Y-84633696D01*
X175447052Y-84648755D01*
X175282471Y-84654384D01*
X175103989Y-84651091D01*
X174941367Y-84639384D01*
X174824370Y-84619767D01*
X174784767Y-84607568D01*
X174700987Y-84566933D01*
X174641227Y-84504588D01*
X174602122Y-84409779D01*
X174587688Y-84318460D01*
X174907201Y-84318460D01*
X175192733Y-84318460D01*
X175478264Y-84318460D01*
X175478264Y-83861874D01*
X175478264Y-83405288D01*
X175203414Y-83416426D01*
X174928563Y-83427565D01*
X174917882Y-83873013D01*
X174907201Y-84318460D01*
X174587688Y-84318460D01*
X174580306Y-84271752D01*
X174572417Y-84079754D01*
X174575088Y-83823030D01*
X174576999Y-83744136D01*
X174585712Y-83519731D01*
X174603961Y-83357533D01*
X174639816Y-83247012D01*
X174701346Y-83177637D01*
X174796622Y-83138878D01*
X174933712Y-83120206D01*
X175120687Y-83111090D01*
X175296309Y-83105768D01*
X175485842Y-83108693D01*
X175623015Y-83131889D01*
X175716285Y-83184613D01*
X175774108Y-83276118D01*
X175804940Y-83415662D01*
X175817238Y-83612498D01*
X175819340Y-83861874D01*
X175819458Y-83875882D01*
G37*
G36*
X170046414Y-83105735D02*
G01*
X170139894Y-83118675D01*
X170190309Y-83144130D01*
X170191350Y-83152740D01*
X170172197Y-83217870D01*
X170124233Y-83331877D01*
X170053260Y-83481623D01*
X169965084Y-83653968D01*
X169945227Y-83691533D01*
X169851797Y-83870881D01*
X169787921Y-84003152D01*
X169747995Y-84104997D01*
X169726415Y-84193069D01*
X169717577Y-84284022D01*
X169715876Y-84394508D01*
X169715876Y-84664014D01*
X169554757Y-84652357D01*
X169393638Y-84640699D01*
X169373901Y-84337416D01*
X169369802Y-84279620D01*
X169356209Y-84156046D01*
X169332620Y-84047194D01*
X169292426Y-83932758D01*
X169229017Y-83792436D01*
X169135783Y-83605924D01*
X169125672Y-83586011D01*
X169046468Y-83423400D01*
X168985149Y-83285794D01*
X168947617Y-83187173D01*
X168939772Y-83141521D01*
X168944881Y-83135969D01*
X169005905Y-83114161D01*
X169103956Y-83105326D01*
X169110560Y-83105331D01*
X169177409Y-83108739D01*
X169226493Y-83127530D01*
X169270462Y-83174944D01*
X169321961Y-83264224D01*
X169393638Y-83408610D01*
X169425447Y-83472867D01*
X169489151Y-83595259D01*
X169537644Y-83679868D01*
X169562347Y-83711303D01*
X169570265Y-83704213D01*
X169607520Y-83646156D01*
X169665078Y-83542298D01*
X169734221Y-83408020D01*
X169739532Y-83397377D01*
X169811111Y-83257094D01*
X169862831Y-83170927D01*
X169907387Y-83125696D01*
X169957475Y-83108222D01*
X170025789Y-83105326D01*
X170046414Y-83105735D01*
G37*
G36*
X172975166Y-84009489D02*
G01*
X172964312Y-84231306D01*
X172938873Y-84392819D01*
X172895535Y-84504340D01*
X172830986Y-84576183D01*
X172741912Y-84618662D01*
X172711894Y-84625715D01*
X172594180Y-84639797D01*
X172436500Y-84647426D01*
X172264423Y-84647080D01*
X172123084Y-84642073D01*
X172001987Y-84632339D01*
X171922106Y-84614223D01*
X171864317Y-84582962D01*
X171809497Y-84533795D01*
X171779111Y-84502115D01*
X171744451Y-84454675D01*
X171721888Y-84395166D01*
X171708040Y-84307654D01*
X171699523Y-84176204D01*
X171692954Y-83984882D01*
X171689858Y-83852524D01*
X171692778Y-83601790D01*
X171714699Y-83413635D01*
X171717637Y-83405288D01*
X172066324Y-83405288D01*
X172066324Y-83861874D01*
X172066324Y-84318460D01*
X172332887Y-84318460D01*
X172469542Y-84314558D01*
X172575368Y-84298373D01*
X172618618Y-84268509D01*
X172623857Y-84235328D01*
X172628555Y-84136132D01*
X172629686Y-83992560D01*
X172626906Y-83823062D01*
X172616026Y-83427565D01*
X172341175Y-83416426D01*
X172066324Y-83405288D01*
X171717637Y-83405288D01*
X171761973Y-83279312D01*
X171840956Y-83190068D01*
X171958002Y-83137156D01*
X172119464Y-83111825D01*
X172331697Y-83105326D01*
X172351023Y-83105356D01*
X172563020Y-83112652D01*
X172721304Y-83139257D01*
X172833564Y-83194527D01*
X172907491Y-83287818D01*
X172950776Y-83428484D01*
X172971107Y-83625881D01*
X172976175Y-83889365D01*
X172975308Y-83992560D01*
X172975166Y-84009489D01*
G37*
G36*
X176903920Y-82007482D02*
G01*
X176969669Y-82213898D01*
X177020950Y-82379681D01*
X177054500Y-82494429D01*
X177067056Y-82547742D01*
X177067177Y-82558696D01*
X177055537Y-82588433D01*
X177013487Y-82604021D01*
X176925951Y-82608424D01*
X176777853Y-82604607D01*
X176485203Y-82593535D01*
X176434455Y-82413460D01*
X176383708Y-82233386D01*
X176083775Y-82233386D01*
X175783842Y-82233386D01*
X175731449Y-82413460D01*
X175679056Y-82593535D01*
X175389108Y-82604607D01*
X175312519Y-82606917D01*
X175186363Y-82605030D01*
X175119055Y-82591938D01*
X175099160Y-82566123D01*
X175109257Y-82523449D01*
X175140585Y-82417507D01*
X175190021Y-82259100D01*
X175254384Y-82058257D01*
X175330496Y-81825007D01*
X175363334Y-81725878D01*
X175907345Y-81725878D01*
X175910106Y-81755897D01*
X175961089Y-81773484D01*
X176074718Y-81778460D01*
X176262268Y-81778460D01*
X176183027Y-81437423D01*
X176163585Y-81356107D01*
X176128881Y-81222718D01*
X176101062Y-81130721D01*
X176084832Y-81096445D01*
X176081990Y-81098620D01*
X176061673Y-81148064D01*
X176031436Y-81249403D01*
X175996700Y-81384900D01*
X175990186Y-81411919D01*
X175955027Y-81553328D01*
X175925470Y-81665396D01*
X175907345Y-81725878D01*
X175363334Y-81725878D01*
X175415176Y-81569379D01*
X175731192Y-80622192D01*
X176088086Y-80622192D01*
X176444981Y-80622192D01*
X176754295Y-81550998D01*
X176826968Y-81770831D01*
X176829449Y-81778460D01*
X176903920Y-82007482D01*
G37*
G36*
X164500894Y-83111315D02*
G01*
X164566943Y-83113531D01*
X164751428Y-83123637D01*
X164884331Y-83145939D01*
X164974487Y-83191038D01*
X165030730Y-83269538D01*
X165061896Y-83392039D01*
X165076818Y-83569144D01*
X165084333Y-83811454D01*
X165084564Y-83821132D01*
X165087036Y-84074640D01*
X165078952Y-84264219D01*
X165057524Y-84401000D01*
X165019963Y-84496113D01*
X164963479Y-84560690D01*
X164885285Y-84605863D01*
X164872094Y-84611010D01*
X164752723Y-84636125D01*
X164567127Y-84652087D01*
X164323115Y-84658170D01*
X163877667Y-84659654D01*
X163877667Y-84185774D01*
X163877667Y-83711893D01*
X164180951Y-83711893D01*
X164223399Y-83712172D01*
X164356835Y-83717162D01*
X164450803Y-83727109D01*
X164487135Y-83740326D01*
X164490579Y-83765338D01*
X164503335Y-83839182D01*
X164505530Y-83931117D01*
X164456755Y-83995092D01*
X164347492Y-84015177D01*
X164311414Y-84015502D01*
X164247643Y-84026553D01*
X164222969Y-84069711D01*
X164218861Y-84166819D01*
X164218861Y-84318460D01*
X164485438Y-84318460D01*
X164752014Y-84318460D01*
X164741333Y-83873013D01*
X164730652Y-83427565D01*
X164323115Y-83416805D01*
X164202024Y-83413451D01*
X164063320Y-83407553D01*
X163978667Y-83397987D01*
X163934722Y-83381367D01*
X163918140Y-83354308D01*
X163915578Y-83313425D01*
X163915581Y-83312096D01*
X163933794Y-83225172D01*
X163993118Y-83164503D01*
X164101866Y-83127218D01*
X164268353Y-83110445D01*
X164500894Y-83111315D01*
G37*
G36*
X177222145Y-83857217D02*
G01*
X177222114Y-83894378D01*
X177220531Y-84122541D01*
X177216828Y-84322535D01*
X177211392Y-84482448D01*
X177204611Y-84590368D01*
X177196871Y-84634381D01*
X177190586Y-84638613D01*
X177126457Y-84653598D01*
X177026274Y-84659654D01*
X176880951Y-84659654D01*
X176880951Y-84394281D01*
X176880951Y-84128908D01*
X176770317Y-84128908D01*
X176761846Y-84128997D01*
X176702362Y-84139248D01*
X176650239Y-84176163D01*
X176591695Y-84253447D01*
X176512945Y-84384804D01*
X176453401Y-84484805D01*
X176384129Y-84582033D01*
X176324363Y-84633469D01*
X176261137Y-84652916D01*
X176204894Y-84657050D01*
X176119602Y-84641995D01*
X176086748Y-84587905D01*
X176104351Y-84487828D01*
X176170429Y-84334809D01*
X176186206Y-84302685D01*
X176240079Y-84186770D01*
X176262586Y-84116678D01*
X176257132Y-84074941D01*
X176227126Y-84044088D01*
X176160543Y-83967672D01*
X176106615Y-83831051D01*
X176085093Y-83667969D01*
X176094521Y-83498022D01*
X176111966Y-83427565D01*
X176444981Y-83427565D01*
X176444981Y-83617117D01*
X176444981Y-83806669D01*
X176662966Y-83818039D01*
X176880951Y-83829408D01*
X176880951Y-83617117D01*
X176880951Y-83404826D01*
X176662966Y-83416195D01*
X176444981Y-83427565D01*
X176111966Y-83427565D01*
X176133446Y-83340812D01*
X176200415Y-83215937D01*
X176293973Y-83142995D01*
X176345608Y-83131252D01*
X176466561Y-83117858D01*
X176627435Y-83108711D01*
X176807598Y-83105326D01*
X177222145Y-83105326D01*
X177222145Y-83617117D01*
X177222145Y-83857217D01*
G37*
G36*
X170322443Y-81626819D02*
G01*
X170322443Y-82612490D01*
X170038115Y-82612490D01*
X169753787Y-82612490D01*
X169753787Y-82252341D01*
X169752060Y-82105317D01*
X169744224Y-81980165D01*
X169728783Y-81912498D01*
X169704347Y-81892192D01*
X169675854Y-81913169D01*
X169615988Y-81988688D01*
X169537672Y-82106284D01*
X169450503Y-82252341D01*
X169246099Y-82612490D01*
X168929049Y-82612490D01*
X168805011Y-82611095D01*
X168695142Y-82603910D01*
X168643496Y-82589128D01*
X168640025Y-82565102D01*
X168640107Y-82564965D01*
X168671451Y-82515915D01*
X168735610Y-82418083D01*
X168823278Y-82285587D01*
X168925148Y-82132547D01*
X169182244Y-81747379D01*
X169085365Y-81683901D01*
X168999912Y-81602814D01*
X168915353Y-81457216D01*
X168867506Y-81294054D01*
X169423777Y-81294054D01*
X169488414Y-81399356D01*
X169560949Y-81448810D01*
X169659011Y-81475177D01*
X169706344Y-81471761D01*
X169738323Y-81448265D01*
X169751327Y-81386086D01*
X169753787Y-81266669D01*
X169751816Y-81147587D01*
X169739278Y-81085468D01*
X169706239Y-81061879D01*
X169642763Y-81058162D01*
X169593900Y-81061874D01*
X169484606Y-81107439D01*
X169425203Y-81190790D01*
X169423777Y-81294054D01*
X168867506Y-81294054D01*
X168866143Y-81289405D01*
X168863840Y-81128368D01*
X168874982Y-81079183D01*
X168957118Y-80909825D01*
X169089948Y-80771288D01*
X169254051Y-80685603D01*
X169338644Y-80669576D01*
X169485542Y-80654831D01*
X169667319Y-80644830D01*
X169862439Y-80641147D01*
X170322443Y-80641147D01*
X170322443Y-81266669D01*
X170322443Y-81626819D01*
G37*
G36*
X172864204Y-80859132D02*
G01*
X172886451Y-80965144D01*
X172922768Y-81135454D01*
X172965504Y-81333941D01*
X173009396Y-81536054D01*
X173109541Y-81994992D01*
X173256446Y-81318069D01*
X173403352Y-80641147D01*
X173661089Y-80641147D01*
X173753749Y-80642254D01*
X173858774Y-80650798D01*
X173915152Y-80671202D01*
X173939785Y-80707490D01*
X173946413Y-80731673D01*
X173969389Y-80825005D01*
X174003628Y-80969904D01*
X174045734Y-81151924D01*
X174092313Y-81356617D01*
X174138170Y-81556641D01*
X174186672Y-81757257D01*
X174222570Y-81889321D01*
X174246913Y-81956177D01*
X174260751Y-81961168D01*
X174265130Y-81907636D01*
X174267994Y-81880897D01*
X174284027Y-81786766D01*
X174311169Y-81644862D01*
X174345999Y-81471565D01*
X174385097Y-81283256D01*
X174425043Y-81096313D01*
X174462415Y-80927118D01*
X174493793Y-80792050D01*
X174515757Y-80707490D01*
X174528552Y-80681903D01*
X174570723Y-80656646D01*
X174655111Y-80644368D01*
X174798431Y-80641147D01*
X174806830Y-80641157D01*
X174935326Y-80644112D01*
X175026557Y-80651308D01*
X175061249Y-80661269D01*
X175061184Y-80662062D01*
X175050981Y-80708819D01*
X175025465Y-80816038D01*
X174987633Y-80971683D01*
X174940482Y-81163712D01*
X174887008Y-81380087D01*
X174830209Y-81608769D01*
X174773080Y-81837718D01*
X174718618Y-82054896D01*
X174669820Y-82248262D01*
X174629682Y-82405778D01*
X174601202Y-82515405D01*
X174587375Y-82565102D01*
X174586399Y-82567415D01*
X174540671Y-82592978D01*
X174430777Y-82607742D01*
X174251170Y-82612490D01*
X173931547Y-82612490D01*
X173870658Y-82337639D01*
X173867871Y-82325050D01*
X173828014Y-82143771D01*
X173782413Y-81934686D01*
X173740393Y-81740550D01*
X173671018Y-81418311D01*
X173604074Y-81721595D01*
X173562895Y-81907495D01*
X173515240Y-82121556D01*
X173473248Y-82309207D01*
X173409366Y-82593535D01*
X173083417Y-82604425D01*
X172757468Y-82615314D01*
X172525143Y-81656663D01*
X172468168Y-81420634D01*
X172411403Y-81183408D01*
X172363174Y-80979639D01*
X172325840Y-80819378D01*
X172301763Y-80712674D01*
X172293303Y-80669580D01*
X172293446Y-80668689D01*
X172332209Y-80654779D01*
X172426325Y-80644903D01*
X172556472Y-80641147D01*
X172819158Y-80641147D01*
X172864204Y-80859132D01*
G37*
G36*
X162516193Y-80603725D02*
G01*
X162650080Y-80609731D01*
X162743291Y-80621142D01*
X162778264Y-80636129D01*
X162777199Y-80641914D01*
X162751712Y-80701156D01*
X162699180Y-80803224D01*
X162628849Y-80929935D01*
X162589558Y-81000826D01*
X162416185Y-81390044D01*
X162304234Y-81790996D01*
X162256606Y-82190159D01*
X162276201Y-82574011D01*
X162333604Y-82877615D01*
X162436606Y-83216677D01*
X162582797Y-83537412D01*
X162778818Y-83851831D01*
X163031312Y-84171942D01*
X163346921Y-84509753D01*
X163677076Y-84819252D01*
X164130627Y-85183211D01*
X164631006Y-85520794D01*
X165183860Y-85835157D01*
X165794842Y-86129459D01*
X166469601Y-86406856D01*
X167213787Y-86670506D01*
X167566619Y-86783514D01*
X168282198Y-86990559D01*
X169008460Y-87170047D01*
X169758131Y-87324471D01*
X170543934Y-87456326D01*
X171378592Y-87568104D01*
X172274832Y-87662299D01*
X172277026Y-87662501D01*
X172478836Y-87676569D01*
X172744604Y-87688289D01*
X173062684Y-87697659D01*
X173421430Y-87704681D01*
X173809199Y-87709355D01*
X174214344Y-87711680D01*
X174625220Y-87711658D01*
X175030183Y-87709288D01*
X175417587Y-87704570D01*
X175775787Y-87697505D01*
X176093138Y-87688093D01*
X176357995Y-87676333D01*
X176558712Y-87662227D01*
X177217452Y-87594935D01*
X178251068Y-87461363D01*
X179224811Y-87298367D01*
X180145513Y-87104446D01*
X181020003Y-86878099D01*
X181855115Y-86617824D01*
X182657677Y-86322122D01*
X182665474Y-86319014D01*
X183088078Y-86139420D01*
X183517672Y-85936681D01*
X183938232Y-85719437D01*
X184333737Y-85496326D01*
X184688164Y-85275986D01*
X184985491Y-85067057D01*
X185012811Y-85046414D01*
X185123872Y-84965408D01*
X185208059Y-84908563D01*
X185248919Y-84887117D01*
X185252515Y-84893769D01*
X185220941Y-84939070D01*
X185147792Y-85018818D01*
X185043395Y-85123096D01*
X184918079Y-85241986D01*
X184782173Y-85365569D01*
X184646006Y-85483927D01*
X184519906Y-85587143D01*
X184505765Y-85598216D01*
X183936104Y-86002765D01*
X183299171Y-86380429D01*
X182598932Y-86730020D01*
X181839353Y-87050355D01*
X181024400Y-87340248D01*
X180158040Y-87598513D01*
X179244238Y-87823967D01*
X178286960Y-88015422D01*
X177290173Y-88171696D01*
X176257843Y-88291601D01*
X175193936Y-88373954D01*
X175072856Y-88380420D01*
X174595097Y-88396181D01*
X174066310Y-88400603D01*
X173504572Y-88394310D01*
X172927958Y-88377923D01*
X172354542Y-88352065D01*
X171802399Y-88317357D01*
X171289605Y-88274422D01*
X170834235Y-88223882D01*
X169989957Y-88098481D01*
X169026325Y-87913006D01*
X168095078Y-87687752D01*
X167201768Y-87424698D01*
X166351945Y-87125819D01*
X165551161Y-86793093D01*
X164804969Y-86428497D01*
X164118919Y-86034007D01*
X163498563Y-85611601D01*
X163417328Y-85549120D01*
X163212953Y-85378651D01*
X162991890Y-85179499D01*
X162769516Y-84966622D01*
X162561205Y-84754978D01*
X162382333Y-84559527D01*
X162248276Y-84395226D01*
X162218551Y-84354664D01*
X161939626Y-83916581D01*
X161734474Y-83474704D01*
X161603594Y-83030683D01*
X161547485Y-82586167D01*
X161566646Y-82142805D01*
X161578781Y-82057347D01*
X161658304Y-81673486D01*
X161773627Y-81297867D01*
X161915035Y-80963386D01*
X161964971Y-80864356D01*
X162036391Y-80738096D01*
X162103427Y-80660950D01*
X162184445Y-80620823D01*
X162297814Y-80605617D01*
X162461901Y-80603236D01*
X162516193Y-80603725D01*
G37*
D15*
X171404000Y-105450000D02*
X171404000Y-106085000D01*
X171404000Y-106085000D02*
X172039000Y-106085000D01*
X183430000Y-99840000D02*
G75*
G02*
X181530000Y-99840000I-950000J0D01*
G01*
X181530000Y-99840000D02*
G75*
G02*
X183430000Y-99840000I950000J0D01*
G01*
X183430000Y-104920000D02*
G75*
G02*
X181530000Y-104920000I-950000J0D01*
G01*
X181530000Y-104920000D02*
G75*
G02*
X183430000Y-104920000I950000J0D01*
G01*
%LPC*%
D14*
G36*
X160821747Y-108489350D02*
G01*
X160840934Y-108500900D01*
X160870293Y-108523738D01*
X160904773Y-108554028D01*
X160975378Y-108619395D01*
X160975378Y-108578294D01*
X160976810Y-108548785D01*
X160985639Y-108516647D01*
X161003984Y-108501983D01*
X161033523Y-108504608D01*
X161075934Y-108524338D01*
X161132898Y-108560988D01*
X161173951Y-108590509D01*
X161202634Y-108615094D01*
X161216200Y-108634949D01*
X161217180Y-108653941D01*
X161208102Y-108675934D01*
X161207960Y-108676199D01*
X161196140Y-108692617D01*
X161181525Y-108696352D01*
X161159111Y-108686613D01*
X161123900Y-108662608D01*
X161074460Y-108626734D01*
X161067625Y-108675940D01*
X161066410Y-108683338D01*
X161055218Y-108718621D01*
X161039170Y-108740955D01*
X161023085Y-108750183D01*
X160999377Y-108756705D01*
X160998130Y-108756517D01*
X160981423Y-108746324D01*
X160952879Y-108722859D01*
X160916158Y-108689296D01*
X160874922Y-108648808D01*
X160832045Y-108604991D01*
X160802933Y-108573787D01*
X160785967Y-108552473D01*
X160778952Y-108537743D01*
X160779695Y-108526292D01*
X160786004Y-108514815D01*
X160801375Y-108497507D01*
X160818769Y-108488660D01*
X160821747Y-108489350D01*
G37*
G36*
X163380367Y-108518312D02*
G01*
X163425563Y-108534259D01*
X163476272Y-108558741D01*
X163526278Y-108588768D01*
X163569364Y-108621353D01*
X163615625Y-108661841D01*
X163586198Y-108691839D01*
X163556770Y-108721836D01*
X163494688Y-108675188D01*
X163492010Y-108673179D01*
X163450904Y-108643839D01*
X163425424Y-108630172D01*
X163413770Y-108632457D01*
X163414143Y-108650971D01*
X163424747Y-108685993D01*
X163431965Y-108719482D01*
X163424996Y-108751845D01*
X163411633Y-108769969D01*
X163388698Y-108780078D01*
X163387637Y-108780023D01*
X163366828Y-108774029D01*
X163330600Y-108759552D01*
X163283752Y-108738627D01*
X163231082Y-108713286D01*
X163174580Y-108684440D01*
X163133288Y-108660712D01*
X163108839Y-108641585D01*
X163098929Y-108624584D01*
X163101250Y-108607233D01*
X163113497Y-108587056D01*
X163121671Y-108577296D01*
X163131921Y-108572741D01*
X163148207Y-108575704D01*
X163175457Y-108587175D01*
X163218600Y-108608141D01*
X163233986Y-108615694D01*
X163272546Y-108634169D01*
X163300767Y-108647029D01*
X163313402Y-108651854D01*
X163315783Y-108645133D01*
X163317051Y-108620804D01*
X163316123Y-108584828D01*
X163315877Y-108580177D01*
X163314689Y-108544402D01*
X163317650Y-108525392D01*
X163327257Y-108517225D01*
X163346009Y-108513978D01*
X163346898Y-108513887D01*
X163380367Y-108518312D01*
G37*
G36*
X183808022Y-81712851D02*
G01*
X183850187Y-81797885D01*
X183876159Y-81924960D01*
X183885120Y-82075483D01*
X183876257Y-82230858D01*
X183848752Y-82372493D01*
X183801791Y-82481792D01*
X183766344Y-82531515D01*
X183729043Y-82554713D01*
X183692389Y-82523531D01*
X183689013Y-82519437D01*
X183619910Y-82465737D01*
X183521509Y-82415851D01*
X183395052Y-82365601D01*
X183480617Y-82256822D01*
X183526099Y-82186525D01*
X183591572Y-82057806D01*
X183650253Y-81915864D01*
X183695719Y-81802518D01*
X183738464Y-81718483D01*
X183766965Y-81687938D01*
X183808022Y-81712851D01*
G37*
G36*
X180846840Y-80462161D02*
G01*
X180842064Y-80500716D01*
X180809306Y-80587853D01*
X180755501Y-80703654D01*
X180704737Y-80813857D01*
X180650382Y-80954278D01*
X180619464Y-81063110D01*
X180594439Y-81200745D01*
X180454604Y-81129453D01*
X180425061Y-81114916D01*
X180328791Y-81074426D01*
X180265920Y-81058162D01*
X180245745Y-81053566D01*
X180217070Y-81006984D01*
X180228913Y-80964460D01*
X180281256Y-80871570D01*
X180361209Y-80760908D01*
X180453133Y-80653522D01*
X180541388Y-80570464D01*
X180593431Y-80534035D01*
X180698118Y-80480381D01*
X180790846Y-80453495D01*
X180846840Y-80462161D01*
G37*
G36*
X183428198Y-79831400D02*
G01*
X183468022Y-79914631D01*
X183494392Y-80039881D01*
X183506067Y-80189162D01*
X183501804Y-80344484D01*
X183480362Y-80487858D01*
X183440498Y-80601295D01*
X183417442Y-80640931D01*
X183382056Y-80662828D01*
X183329203Y-80625337D01*
X183280585Y-80588477D01*
X183225734Y-80565326D01*
X183192072Y-80556393D01*
X183122398Y-80516935D01*
X183094988Y-80494310D01*
X183079271Y-80458234D01*
X183096614Y-80400366D01*
X183149747Y-80298950D01*
X183174404Y-80251877D01*
X183241313Y-80103998D01*
X183290502Y-79968236D01*
X183305550Y-79923384D01*
X183346994Y-79840135D01*
X183385653Y-79807117D01*
X183428198Y-79831400D01*
G37*
G36*
X182443363Y-79421341D02*
G01*
X182450486Y-79466050D01*
X182415806Y-79560669D01*
X182340055Y-79712341D01*
X182288244Y-79820185D01*
X182243527Y-79935851D01*
X182226324Y-80013156D01*
X182221327Y-80068511D01*
X182201050Y-80123037D01*
X182190087Y-80134033D01*
X182168593Y-80145066D01*
X182130639Y-80132729D01*
X182050583Y-80091679D01*
X181955591Y-80052001D01*
X181875652Y-80034813D01*
X181875483Y-80034813D01*
X181826384Y-80026353D01*
X181815513Y-79993375D01*
X181845083Y-79923679D01*
X181917304Y-79805062D01*
X181959665Y-79741043D01*
X182064429Y-79608818D01*
X182174353Y-79518197D01*
X182313010Y-79447905D01*
X182393707Y-79419398D01*
X182443363Y-79421341D01*
G37*
G36*
X180331100Y-81255220D02*
G01*
X180421926Y-81331257D01*
X180445190Y-81355916D01*
X180556883Y-81529394D01*
X180616405Y-81728818D01*
X180614834Y-81926661D01*
X180597919Y-81999673D01*
X180553977Y-82151675D01*
X180495569Y-82331555D01*
X180431353Y-82514070D01*
X180369985Y-82673979D01*
X180320122Y-82786039D01*
X180298955Y-82824187D01*
X180169324Y-82977820D01*
X180003159Y-83066346D01*
X179976661Y-83074055D01*
X179848300Y-83098297D01*
X179737786Y-83083984D01*
X179606144Y-83027281D01*
X179486971Y-82941387D01*
X179382559Y-82792515D01*
X179326156Y-82608155D01*
X179315838Y-82399525D01*
X179349677Y-82177846D01*
X179425748Y-81954337D01*
X179542124Y-81740218D01*
X179696880Y-81546710D01*
X179888088Y-81385031D01*
X180016559Y-81302116D01*
X180144268Y-81239053D01*
X180243831Y-81223953D01*
X180331100Y-81255220D01*
G37*
G36*
X181912264Y-80257221D02*
G01*
X182046249Y-80329268D01*
X182059543Y-80343626D01*
X182099149Y-80443368D01*
X182114869Y-80597564D01*
X182108650Y-80792782D01*
X182082436Y-81015590D01*
X182038176Y-81252559D01*
X181977816Y-81490254D01*
X181903301Y-81715246D01*
X181816580Y-81914102D01*
X181816216Y-81914817D01*
X181687318Y-82121985D01*
X181533520Y-82296311D01*
X181373339Y-82416793D01*
X181373290Y-82416820D01*
X181284410Y-82453118D01*
X181197012Y-82450697D01*
X181078315Y-82408652D01*
X181064981Y-82402784D01*
X180886448Y-82283604D01*
X180761402Y-82116012D01*
X180692372Y-81907406D01*
X180681887Y-81665189D01*
X180732477Y-81396759D01*
X180806790Y-81188536D01*
X180928812Y-80945434D01*
X181075624Y-80728598D01*
X181239534Y-80544280D01*
X181412847Y-80398732D01*
X181587869Y-80298205D01*
X181756906Y-80248951D01*
X181912264Y-80257221D01*
G37*
G36*
X183108002Y-80735577D02*
G01*
X183213576Y-80813258D01*
X183272863Y-80877421D01*
X183341200Y-80990000D01*
X183381528Y-81129708D01*
X183397641Y-81312160D01*
X183393335Y-81552971D01*
X183389073Y-81633216D01*
X183374606Y-81800122D01*
X183349817Y-81931430D01*
X183307970Y-82056143D01*
X183242330Y-82203267D01*
X183178641Y-82329660D01*
X183035850Y-82556531D01*
X182882067Y-82722106D01*
X182708889Y-82836354D01*
X182560965Y-82894407D01*
X182389807Y-82910746D01*
X182215629Y-82864140D01*
X182064677Y-82771026D01*
X181967374Y-82638033D01*
X181927617Y-82464499D01*
X181945280Y-82248071D01*
X182020238Y-81986399D01*
X182152366Y-81677132D01*
X182164147Y-81653102D01*
X182264596Y-81469702D01*
X182382040Y-81282107D01*
X182493450Y-81127430D01*
X182609721Y-80988121D01*
X182760039Y-80834235D01*
X182888409Y-80742935D01*
X183002004Y-80711093D01*
X183108002Y-80735577D01*
G37*
G36*
X183469605Y-82588257D02*
G01*
X183547691Y-82609620D01*
X183602062Y-82661852D01*
X183660035Y-82764132D01*
X183676997Y-82798005D01*
X183713397Y-82887527D01*
X183732646Y-82981154D01*
X183738151Y-83102686D01*
X183733322Y-83275923D01*
X183725282Y-83414261D01*
X183706006Y-83567788D01*
X183672519Y-83691014D01*
X183619098Y-83810743D01*
X183508657Y-84000325D01*
X183351809Y-84191548D01*
X183178974Y-84318233D01*
X183096472Y-84354563D01*
X182904259Y-84387240D01*
X182722042Y-84351243D01*
X182563558Y-84250826D01*
X182442545Y-84090242D01*
X182417455Y-84033196D01*
X182393011Y-83906526D01*
X182408906Y-83760020D01*
X182467435Y-83580518D01*
X182570895Y-83354860D01*
X182647818Y-83203156D01*
X182737861Y-83035884D01*
X182813435Y-82914499D01*
X182884403Y-82825353D01*
X182960627Y-82754797D01*
X183051971Y-82689186D01*
X183172657Y-82618362D01*
X183279362Y-82584909D01*
X183401146Y-82582351D01*
X183469605Y-82588257D01*
G37*
G36*
X181517653Y-82867240D02*
G01*
X181638658Y-82965194D01*
X181744444Y-83131823D01*
X181842979Y-83370699D01*
X181893858Y-83500070D01*
X181983302Y-83698604D01*
X182088475Y-83910666D01*
X182195821Y-84107933D01*
X182434832Y-84522927D01*
X182434832Y-84834795D01*
X182431810Y-84961459D01*
X182408254Y-85133635D01*
X182353359Y-85259928D01*
X182257691Y-85358195D01*
X182111818Y-85446296D01*
X182057278Y-85472241D01*
X181946375Y-85514466D01*
X181867620Y-85530762D01*
X181765847Y-85511851D01*
X181612307Y-85445962D01*
X181446358Y-85343606D01*
X181288726Y-85216051D01*
X181086590Y-85043142D01*
X180855301Y-84889992D01*
X180610459Y-84781540D01*
X180332122Y-84709251D01*
X180000349Y-84664589D01*
X179836808Y-84644760D01*
X179644682Y-84605916D01*
X179509692Y-84557552D01*
X179464999Y-84531930D01*
X179320272Y-84400249D01*
X179231591Y-84233418D01*
X179202165Y-84047432D01*
X179235205Y-83858284D01*
X179333922Y-83681968D01*
X179402265Y-83605219D01*
X179542607Y-83488304D01*
X179719594Y-83388907D01*
X179946268Y-83300285D01*
X180235671Y-83215692D01*
X180402355Y-83168623D01*
X180612488Y-83100814D01*
X180802528Y-83030989D01*
X180945545Y-82968522D01*
X180983630Y-82949717D01*
X181198107Y-82863073D01*
X181373459Y-82834390D01*
X181517653Y-82867240D01*
G37*
D16*
X182480000Y-94760000D03*
D17*
X169350002Y-92235001D03*
D18*
X169350002Y-94775001D03*
X171890002Y-92235001D03*
X171890002Y-94775001D03*
X174430003Y-92235000D03*
X174430002Y-94775001D03*
D19*
X172674000Y-106720000D03*
X171658000Y-101640000D03*
X173690000Y-101640000D03*
D20*
X172039000Y-105450000D03*
X173309000Y-105450000D03*
X172039000Y-104180000D03*
X173309000Y-104180000D03*
X172039000Y-102910000D03*
X173309000Y-102910000D03*
D16*
X182480000Y-99840000D03*
X182480000Y-104920000D03*
%LPD*%
M02*
