M48
; DRILL file {KiCad 9.0.2} date 2025-06-26T14:39:58-0700
; FORMAT={-:-/ absolute / inch / decimal}
; #@! TF.CreationDate,2025-06-26T14:39:58-07:00
; #@! TF.GenerationSoftware,Kicad,Pcbnew,9.0.2
; #@! TF.FileFunction,MixedPlating,1,2
FMAT,2
INCH
; #@! TA.AperFunction,Plated,PTH,ViaDrill
T1C0.0118
; #@! TA.AperFunction,Plated,PTH,ComponentDrill
T2C0.0394
; #@! TA.AperFunction,NonPlated,NPTH,ComponentDrill
T3C0.0390
%
G90
G05
T1
X6.224Y-3.6787
X6.3354Y-3.911
X6.5866Y-3.6291
X6.5913Y-4.074
X6.5957Y-3.3299
X6.6091Y-3.8776
X6.7283Y-3.5283
X6.7315Y-4.189
X6.7331Y-4.0626
X6.7358Y-4.2154
X6.8539Y-4.0732
X6.8563Y-4.1858
X6.9012Y-3.4795
X6.9024Y-3.9327
X6.9201Y-3.322
X6.939Y-3.8173
X6.963Y-4.0401
X6.9669Y-3.987
X6.9677Y-4.0146
X6.9696Y-4.1383
X6.9705Y-4.1123
X6.9714Y-4.0864
X6.9744Y-4.2346
X7.0028Y-3.1717
X7.0316Y-3.9843
X7.1075Y-3.8157
X7.2252Y-3.3831
X7.2709Y-3.5094
X7.3563Y-3.8646
X7.3575Y-3.6764
T2
X6.6673Y-3.6313
X6.6673Y-3.7313
X6.7673Y-3.6313
X6.7673Y-3.7313
X6.8673Y-3.7313
X6.8673Y-3.6313
T3
X6.7582Y-4.0016
X6.7982Y-4.2016
X6.8382Y-4.0016
M30
