G04 #@! TF.GenerationSoftware,KiCad,Pcbnew,9.0.2*
G04 #@! TF.CreationDate,2025-06-26T14:40:00-07:00*
G04 #@! TF.ProjectId,pawb_sao,70617762-5f73-4616-9f2e-6b696361645f,rev?*
G04 #@! TF.SameCoordinates,Original*
G04 #@! TF.FileFunction,Soldermask,Top*
G04 #@! TF.FilePolarity,Negative*
%FSLAX46Y46*%
G04 Gerber Fmt 4.6, Leading zero omitted, Abs format (unit mm)*
G04 Created by KiCad (PCBNEW 9.0.2) date 2025-06-26 14:40:00*
%MOMM*%
%LPD*%
G01*
G04 APERTURE LIST*
G04 Aperture macros list*
%AMRoundRect*
0 Rectangle with rounded corners*
0 $1 Rounding radius*
0 $2 $3 $4 $5 $6 $7 $8 $9 X,Y pos of 4 corners*
0 Add a 4 corners polygon primitive as box body*
4,1,4,$2,$3,$4,$5,$6,$7,$8,$9,$2,$3,0*
0 Add four circle primitives for the rounded corners*
1,1,$1+$1,$2,$3*
1,1,$1+$1,$4,$5*
1,1,$1+$1,$6,$7*
1,1,$1+$1,$8,$9*
0 Add four rect primitives between the rounded corners*
20,1,$1+$1,$2,$3,$4,$5,0*
20,1,$1+$1,$4,$5,$6,$7,0*
20,1,$1+$1,$6,$7,$8,$9,0*
20,1,$1+$1,$8,$9,$2,$3,0*%
G04 Aperture macros list end*
%ADD10C,0.010000*%
%ADD11R,2.750000X1.000000*%
%ADD12RoundRect,0.135000X0.185000X-0.135000X0.185000X0.135000X-0.185000X0.135000X-0.185000X-0.135000X0*%
%ADD13RoundRect,0.135000X-0.195520X-0.119255X0.053927X-0.222580X0.195520X0.119255X-0.053927X0.222580X0*%
%ADD14C,2.250000*%
%ADD15RoundRect,0.218750X-0.218750X-0.256250X0.218750X-0.256250X0.218750X0.256250X-0.218750X0.256250X0*%
%ADD16RoundRect,0.135000X-0.185000X0.135000X-0.185000X-0.135000X0.185000X-0.135000X0.185000X0.135000X0*%
%ADD17RoundRect,0.150000X-0.086245X-0.600182X0.363408X0.485377X0.086245X0.600182X-0.363408X-0.485377X0*%
%ADD18RoundRect,0.225000X0.250000X-0.225000X0.250000X0.225000X-0.250000X0.225000X-0.250000X-0.225000X0*%
%ADD19RoundRect,0.100000X-0.637500X-0.100000X0.637500X-0.100000X0.637500X0.100000X-0.637500X0.100000X0*%
%ADD20RoundRect,0.135000X0.195520X0.119255X-0.053927X0.222580X-0.195520X-0.119255X0.053927X-0.222580X0*%
%ADD21RoundRect,0.135000X0.135000X0.185000X-0.135000X0.185000X-0.135000X-0.185000X0.135000X-0.185000X0*%
%ADD22RoundRect,0.218750X0.218750X0.256250X-0.218750X0.256250X-0.218750X-0.256250X0.218750X-0.256250X0*%
%ADD23RoundRect,0.135000X0.119255X-0.195520X0.222580X0.053927X-0.119255X0.195520X-0.222580X-0.053927X0*%
%ADD24RoundRect,0.135000X-0.053927X-0.222580X0.195520X-0.119255X0.053927X0.222580X-0.195520X0.119255X0*%
%ADD25R,1.700000X1.700000*%
%ADD26C,1.700000*%
%ADD27C,0.990600*%
G04 APERTURE END LIST*
D10*
X168270353Y-79081423D02*
X166252157Y-79116778D01*
X166252159Y-76233932D01*
X168270353Y-76198577D01*
X168270353Y-79081423D01*
G36*
X168270353Y-79081423D02*
G01*
X166252157Y-79116778D01*
X166252159Y-76233932D01*
X168270353Y-76198577D01*
X168270353Y-79081423D01*
G37*
X173641424Y-72222487D02*
X173535357Y-73674998D01*
X170793934Y-73674997D01*
X170758576Y-72222486D01*
X172200000Y-70781066D01*
X173641424Y-72222487D01*
G36*
X173641424Y-72222487D02*
G01*
X173535357Y-73674998D01*
X170793934Y-73674997D01*
X170758576Y-72222486D01*
X172200000Y-70781066D01*
X173641424Y-72222487D01*
G37*
X173641424Y-83057514D02*
X172200000Y-84498934D01*
X170758576Y-83057513D01*
X170864643Y-81675714D01*
X173606069Y-81675712D01*
X173641424Y-83057514D01*
G36*
X173641424Y-83057514D02*
G01*
X172200000Y-84498934D01*
X170758576Y-83057513D01*
X170864643Y-81675714D01*
X173606069Y-81675712D01*
X173641424Y-83057514D01*
G37*
X177688223Y-76269288D02*
X179058934Y-77640000D01*
X177688223Y-79010712D01*
X176200358Y-79081422D01*
X176200357Y-76198576D01*
X177688223Y-76269288D01*
G36*
X177688223Y-76269288D02*
G01*
X179058934Y-77640000D01*
X177688223Y-79010712D01*
X176200358Y-79081422D01*
X176200357Y-76198576D01*
X177688223Y-76269288D01*
G37*
D11*
X160950000Y-97930000D03*
X155190000Y-97930000D03*
X160950000Y-93930000D03*
X155190000Y-93930000D03*
D12*
X160100000Y-83827500D03*
X160100000Y-82807500D03*
D11*
X180240000Y-89580000D03*
X174480000Y-89580000D03*
X180240000Y-85580000D03*
X174480000Y-85580000D03*
D13*
X178098821Y-96284831D03*
X179041179Y-96675169D03*
D14*
X160060000Y-101250000D03*
D11*
X168780000Y-89730000D03*
X163020000Y-89730000D03*
X168780000Y-85730000D03*
X163020000Y-85730000D03*
D15*
X185355000Y-90880000D03*
X186930000Y-90880000D03*
D14*
X175810000Y-72220000D03*
D16*
X183450000Y-82340000D03*
X183450000Y-83360000D03*
D17*
X178404783Y-94168726D03*
X180160154Y-94895824D03*
X180000000Y-92800000D03*
D18*
X168090000Y-106795000D03*
X168090000Y-105245000D03*
D12*
X163900000Y-96910000D03*
X163900000Y-95890000D03*
D19*
X169827500Y-101235000D03*
X169827500Y-101885000D03*
X169827500Y-102535000D03*
X169827500Y-103185000D03*
X169827500Y-103835000D03*
X169827500Y-104485000D03*
X169827500Y-105135000D03*
X169827500Y-105785000D03*
X169827500Y-106435000D03*
X169827500Y-107085000D03*
X175552500Y-107085000D03*
X175552500Y-106435000D03*
X175552500Y-105785000D03*
X175552500Y-105135000D03*
X175552500Y-104485000D03*
X175552500Y-103835000D03*
X175552500Y-103185000D03*
X175552500Y-102535000D03*
X175552500Y-101885000D03*
X175552500Y-101235000D03*
D20*
X184351179Y-100455169D03*
X183408821Y-100064831D03*
D15*
X157145000Y-91440000D03*
X158720000Y-91440000D03*
D21*
X165080000Y-93510000D03*
X164060000Y-93510000D03*
D12*
X158050000Y-102667500D03*
X158050000Y-101647500D03*
D14*
X159950000Y-87140000D03*
D22*
X166947500Y-83020000D03*
X165372500Y-83020000D03*
D12*
X171820000Y-87517500D03*
X171820000Y-86497500D03*
D23*
X183284831Y-87641179D03*
X183675169Y-86698821D03*
D15*
X176755000Y-83030000D03*
X178330000Y-83030000D03*
D14*
X186640000Y-103110000D03*
D24*
X187408821Y-100525169D03*
X188351179Y-100134831D03*
D11*
X189050000Y-97380000D03*
X183290000Y-97380000D03*
X189050000Y-93380000D03*
X183290000Y-93380000D03*
D16*
X181070000Y-81532500D03*
X181070000Y-82552500D03*
D25*
X169350002Y-92235001D03*
D26*
X169350002Y-94775001D03*
X171890002Y-92235001D03*
X171890002Y-94775001D03*
X174430003Y-92235000D03*
X174430002Y-94775001D03*
D27*
X172674000Y-106720000D03*
X171658000Y-101640000D03*
X173690000Y-101640000D03*
M02*
