G04 #@! TF.GenerationSoftware,KiCad,Pcbnew,9.0.2*
G04 #@! TF.CreationDate,2025-06-26T14:39:59-07:00*
G04 #@! TF.ProjectId,pawb_sao,70617762-5f73-4616-9f2e-6b696361645f,rev?*
G04 #@! TF.SameCoordinates,Original*
G04 #@! TF.FileFunction,Paste,Top*
G04 #@! TF.FilePolarity,Positive*
%FSLAX46Y46*%
G04 Gerber Fmt 4.6, Leading zero omitted, Abs format (unit mm)*
G04 Created by KiCad (PCBNEW 9.0.2) date 2025-06-26 14:39:59*
%MOMM*%
%LPD*%
G01*
G04 APERTURE LIST*
G04 Aperture macros list*
%AMRoundRect*
0 Rectangle with rounded corners*
0 $1 Rounding radius*
0 $2 $3 $4 $5 $6 $7 $8 $9 X,Y pos of 4 corners*
0 Add a 4 corners polygon primitive as box body*
4,1,4,$2,$3,$4,$5,$6,$7,$8,$9,$2,$3,0*
0 Add four circle primitives for the rounded corners*
1,1,$1+$1,$2,$3*
1,1,$1+$1,$4,$5*
1,1,$1+$1,$6,$7*
1,1,$1+$1,$8,$9*
0 Add four rect primitives between the rounded corners*
20,1,$1+$1,$2,$3,$4,$5,0*
20,1,$1+$1,$4,$5,$6,$7,0*
20,1,$1+$1,$6,$7,$8,$9,0*
20,1,$1+$1,$8,$9,$2,$3,0*%
G04 Aperture macros list end*
%ADD10C,0.010000*%
%ADD11R,2.750000X1.000000*%
%ADD12RoundRect,0.135000X0.185000X-0.135000X0.185000X0.135000X-0.185000X0.135000X-0.185000X-0.135000X0*%
%ADD13RoundRect,0.135000X-0.195520X-0.119255X0.053927X-0.222580X0.195520X0.119255X-0.053927X0.222580X0*%
%ADD14RoundRect,0.218750X-0.218750X-0.256250X0.218750X-0.256250X0.218750X0.256250X-0.218750X0.256250X0*%
%ADD15RoundRect,0.135000X-0.185000X0.135000X-0.185000X-0.135000X0.185000X-0.135000X0.185000X0.135000X0*%
%ADD16RoundRect,0.150000X-0.086245X-0.600182X0.363408X0.485377X0.086245X0.600182X-0.363408X-0.485377X0*%
%ADD17RoundRect,0.225000X0.250000X-0.225000X0.250000X0.225000X-0.250000X0.225000X-0.250000X-0.225000X0*%
%ADD18RoundRect,0.100000X-0.637500X-0.100000X0.637500X-0.100000X0.637500X0.100000X-0.637500X0.100000X0*%
%ADD19RoundRect,0.135000X0.195520X0.119255X-0.053927X0.222580X-0.195520X-0.119255X0.053927X-0.222580X0*%
%ADD20RoundRect,0.135000X0.135000X0.185000X-0.135000X0.185000X-0.135000X-0.185000X0.135000X-0.185000X0*%
%ADD21RoundRect,0.218750X0.218750X0.256250X-0.218750X0.256250X-0.218750X-0.256250X0.218750X-0.256250X0*%
%ADD22RoundRect,0.135000X0.119255X-0.195520X0.222580X0.053927X-0.119255X0.195520X-0.222580X-0.053927X0*%
%ADD23RoundRect,0.135000X-0.053927X-0.222580X0.195520X-0.119255X0.053927X0.222580X-0.195520X0.119255X0*%
G04 APERTURE END LIST*
D10*
X168093576Y-78904647D02*
X166393579Y-78975357D01*
X166393576Y-76375353D01*
X168093576Y-76304643D01*
X168093576Y-78904647D01*
G36*
X168093576Y-78904647D02*
G01*
X166393579Y-78975357D01*
X166393576Y-76375353D01*
X168093576Y-76304643D01*
X168093576Y-78904647D01*
G37*
X173500001Y-72222487D02*
X173464646Y-73533576D01*
X170864643Y-73533576D01*
X170899998Y-72222489D01*
X172200000Y-70922486D01*
X173500001Y-72222487D01*
G36*
X173500001Y-72222487D02*
G01*
X173464646Y-73533576D01*
X170864643Y-73533576D01*
X170899998Y-72222489D01*
X172200000Y-70922486D01*
X173500001Y-72222487D01*
G37*
X173500002Y-83057511D02*
X172200000Y-84357514D01*
X170899999Y-83057513D01*
X170935354Y-81746424D01*
X173535357Y-81746424D01*
X173500002Y-83057511D01*
G36*
X173500002Y-83057511D02*
G01*
X172200000Y-84357514D01*
X170899999Y-83057513D01*
X170935354Y-81746424D01*
X173535357Y-81746424D01*
X173500002Y-83057511D01*
G37*
X178917514Y-77640000D02*
X177617513Y-78940001D01*
X176306424Y-78975357D01*
X176306424Y-76375353D01*
X177617511Y-76339998D01*
X178917514Y-77640000D01*
G36*
X178917514Y-77640000D02*
G01*
X177617513Y-78940001D01*
X176306424Y-78975357D01*
X176306424Y-76375353D01*
X177617511Y-76339998D01*
X178917514Y-77640000D01*
G37*
D11*
X160950000Y-97930000D03*
X155190000Y-97930000D03*
X160950000Y-93930000D03*
X155190000Y-93930000D03*
D12*
X160100000Y-83827500D03*
X160100000Y-82807500D03*
D11*
X180240000Y-89580000D03*
X174480000Y-89580000D03*
X180240000Y-85580000D03*
X174480000Y-85580000D03*
D13*
X178098821Y-96284831D03*
X179041179Y-96675169D03*
D11*
X168780000Y-89730000D03*
X163020000Y-89730000D03*
X168780000Y-85730000D03*
X163020000Y-85730000D03*
D14*
X185355000Y-90880000D03*
X186930000Y-90880000D03*
D15*
X183450000Y-82340000D03*
X183450000Y-83360000D03*
D16*
X178404783Y-94168726D03*
X180160154Y-94895824D03*
X180000000Y-92800000D03*
D17*
X168090000Y-106795000D03*
X168090000Y-105245000D03*
D12*
X163900000Y-96910000D03*
X163900000Y-95890000D03*
D18*
X169827500Y-101235000D03*
X169827500Y-101885000D03*
X169827500Y-102535000D03*
X169827500Y-103185000D03*
X169827500Y-103835000D03*
X169827500Y-104485000D03*
X169827500Y-105135000D03*
X169827500Y-105785000D03*
X169827500Y-106435000D03*
X169827500Y-107085000D03*
X175552500Y-107085000D03*
X175552500Y-106435000D03*
X175552500Y-105785000D03*
X175552500Y-105135000D03*
X175552500Y-104485000D03*
X175552500Y-103835000D03*
X175552500Y-103185000D03*
X175552500Y-102535000D03*
X175552500Y-101885000D03*
X175552500Y-101235000D03*
D19*
X184351179Y-100455169D03*
X183408821Y-100064831D03*
D14*
X157145000Y-91440000D03*
X158720000Y-91440000D03*
D20*
X165080000Y-93510000D03*
X164060000Y-93510000D03*
D12*
X158050000Y-102667500D03*
X158050000Y-101647500D03*
D21*
X166947500Y-83020000D03*
X165372500Y-83020000D03*
D12*
X171820000Y-87517500D03*
X171820000Y-86497500D03*
D22*
X183284831Y-87641179D03*
X183675169Y-86698821D03*
D14*
X176755000Y-83030000D03*
X178330000Y-83030000D03*
D23*
X187408821Y-100525169D03*
X188351179Y-100134831D03*
D11*
X189050000Y-97380000D03*
X183290000Y-97380000D03*
X189050000Y-93380000D03*
X183290000Y-93380000D03*
D15*
X181070000Y-81532500D03*
X181070000Y-82552500D03*
M02*
