G04 #@! TF.GenerationSoftware,KiCad,Pcbnew,9.0.2*
G04 #@! TF.CreationDate,2025-06-26T14:39:59-07:00*
G04 #@! TF.ProjectId,pawb_sao,70617762-5f73-4616-9f2e-6b696361645f,rev?*
G04 #@! TF.SameCoordinates,Original*
G04 #@! TF.FileFunction,Copper,L1,Top*
G04 #@! TF.FilePolarity,Positive*
%FSLAX46Y46*%
G04 Gerber Fmt 4.6, Leading zero omitted, Abs format (unit mm)*
G04 Created by KiCad (PCBNEW 9.0.2) date 2025-06-26 14:39:59*
%MOMM*%
%LPD*%
G01*
G04 APERTURE LIST*
G04 Aperture macros list*
%AMRoundRect*
0 Rectangle with rounded corners*
0 $1 Rounding radius*
0 $2 $3 $4 $5 $6 $7 $8 $9 X,Y pos of 4 corners*
0 Add a 4 corners polygon primitive as box body*
4,1,4,$2,$3,$4,$5,$6,$7,$8,$9,$2,$3,0*
0 Add four circle primitives for the rounded corners*
1,1,$1+$1,$2,$3*
1,1,$1+$1,$4,$5*
1,1,$1+$1,$6,$7*
1,1,$1+$1,$8,$9*
0 Add four rect primitives between the rounded corners*
20,1,$1+$1,$2,$3,$4,$5,0*
20,1,$1+$1,$4,$5,$6,$7,0*
20,1,$1+$1,$6,$7,$8,$9,0*
20,1,$1+$1,$8,$9,$2,$3,0*%
%AMFreePoly0*
4,1,15,-0.285094,1.603679,-0.284944,1.603536,1.553536,-0.234944,1.555000,-0.238480,1.553679,-0.241866,0.401599,-1.493946,0.398128,-1.495556,0.394534,-1.494239,0.394384,-1.494096,-1.444096,0.344384,-1.445560,0.347920,-1.444239,0.351306,-0.292159,1.603387,-0.288688,1.604996,-0.285094,1.603679,-0.285094,1.603679,$1*%
%AMFreePoly1*
4,1,16,0.251456,1.644096,0.251550,1.643999,1.153630,0.691919,1.155000,0.688480,1.155000,-1.150000,1.153536,-1.153536,1.150000,-1.155000,-0.688480,-1.155000,-0.692016,-1.153536,-0.692110,-1.153439,-1.594190,-0.201359,-1.595558,-0.197785,-1.594096,-0.194384,0.244384,1.644096,0.247920,1.645561,0.251456,1.644096,0.251456,1.644096,$1*%
%AMFreePoly2*
4,1,16,0.692016,1.153536,0.692110,1.153439,1.594190,0.201359,1.595558,0.197785,1.594096,0.194384,-0.244384,-1.644096,-0.247920,-1.645561,-0.251456,-1.644096,-0.251550,-1.643999,-1.153630,-0.691919,-1.155000,-0.688480,-1.155000,1.150000,-1.153536,1.153536,-1.150000,1.155000,0.688480,1.155000,0.692016,1.153536,0.692016,1.153536,$1*%
%AMFreePoly3*
4,1,16,-0.244481,1.644190,-0.244384,1.644096,1.594096,-0.194384,1.595560,-0.197920,1.594190,-0.201359,0.692110,-1.153439,0.688615,-1.154998,0.688480,-1.155000,-1.150000,-1.155000,-1.153536,-1.153536,-1.155000,-1.150000,-1.155000,0.688480,-1.153630,0.691919,-0.251550,1.643999,-0.248055,1.645558,-0.244481,1.644190,-0.244481,1.644190,$1*%
G04 Aperture macros list end*
G04 #@! TA.AperFunction,SMDPad,CuDef*
%ADD10R,2.750000X1.000000*%
G04 #@! TD*
G04 #@! TA.AperFunction,SMDPad,CuDef*
%ADD11RoundRect,0.135000X0.185000X-0.135000X0.185000X0.135000X-0.185000X0.135000X-0.185000X-0.135000X0*%
G04 #@! TD*
G04 #@! TA.AperFunction,SMDPad,CuDef*
%ADD12FreePoly0,135.000000*%
G04 #@! TD*
G04 #@! TA.AperFunction,SMDPad,CuDef*
%ADD13FreePoly1,135.000000*%
G04 #@! TD*
G04 #@! TA.AperFunction,SMDPad,CuDef*
%ADD14FreePoly2,135.000000*%
G04 #@! TD*
G04 #@! TA.AperFunction,SMDPad,CuDef*
%ADD15FreePoly3,135.000000*%
G04 #@! TD*
G04 #@! TA.AperFunction,SMDPad,CuDef*
%ADD16RoundRect,0.135000X-0.195520X-0.119255X0.053927X-0.222580X0.195520X0.119255X-0.053927X0.222580X0*%
G04 #@! TD*
G04 #@! TA.AperFunction,SMDPad,CuDef*
%ADD17C,0.750000*%
G04 #@! TD*
G04 #@! TA.AperFunction,SMDPad,CuDef*
%ADD18RoundRect,0.218750X-0.218750X-0.256250X0.218750X-0.256250X0.218750X0.256250X-0.218750X0.256250X0*%
G04 #@! TD*
G04 #@! TA.AperFunction,SMDPad,CuDef*
%ADD19RoundRect,0.135000X-0.185000X0.135000X-0.185000X-0.135000X0.185000X-0.135000X0.185000X0.135000X0*%
G04 #@! TD*
G04 #@! TA.AperFunction,SMDPad,CuDef*
%ADD20RoundRect,0.150000X-0.086245X-0.600182X0.363408X0.485377X0.086245X0.600182X-0.363408X-0.485377X0*%
G04 #@! TD*
G04 #@! TA.AperFunction,SMDPad,CuDef*
%ADD21RoundRect,0.225000X0.250000X-0.225000X0.250000X0.225000X-0.250000X0.225000X-0.250000X-0.225000X0*%
G04 #@! TD*
G04 #@! TA.AperFunction,SMDPad,CuDef*
%ADD22RoundRect,0.100000X-0.637500X-0.100000X0.637500X-0.100000X0.637500X0.100000X-0.637500X0.100000X0*%
G04 #@! TD*
G04 #@! TA.AperFunction,SMDPad,CuDef*
%ADD23RoundRect,0.135000X0.195520X0.119255X-0.053927X0.222580X-0.195520X-0.119255X0.053927X-0.222580X0*%
G04 #@! TD*
G04 #@! TA.AperFunction,SMDPad,CuDef*
%ADD24RoundRect,0.135000X0.135000X0.185000X-0.135000X0.185000X-0.135000X-0.185000X0.135000X-0.185000X0*%
G04 #@! TD*
G04 #@! TA.AperFunction,SMDPad,CuDef*
%ADD25RoundRect,0.218750X0.218750X0.256250X-0.218750X0.256250X-0.218750X-0.256250X0.218750X-0.256250X0*%
G04 #@! TD*
G04 #@! TA.AperFunction,SMDPad,CuDef*
%ADD26RoundRect,0.135000X0.119255X-0.195520X0.222580X0.053927X-0.119255X0.195520X-0.222580X-0.053927X0*%
G04 #@! TD*
G04 #@! TA.AperFunction,SMDPad,CuDef*
%ADD27RoundRect,0.135000X-0.053927X-0.222580X0.195520X-0.119255X0.053927X0.222580X-0.195520X0.119255X0*%
G04 #@! TD*
G04 #@! TA.AperFunction,ComponentPad*
%ADD28R,1.700000X1.700000*%
G04 #@! TD*
G04 #@! TA.AperFunction,ComponentPad*
%ADD29C,1.700000*%
G04 #@! TD*
G04 #@! TA.AperFunction,ViaPad*
%ADD30C,0.500000*%
G04 #@! TD*
G04 #@! TA.AperFunction,Conductor*
%ADD31C,0.160000*%
G04 #@! TD*
G04 APERTURE END LIST*
D10*
X160950000Y-97930000D03*
X155190000Y-97930000D03*
X160950000Y-93930000D03*
X155190000Y-93930000D03*
D11*
X160100000Y-83827500D03*
X160100000Y-82807500D03*
D10*
X180240000Y-89580000D03*
X174480000Y-89580000D03*
X180240000Y-85580000D03*
X174480000Y-85580000D03*
D12*
X167320962Y-77640000D03*
D13*
X172200000Y-72548831D03*
D14*
X172200000Y-82731169D03*
D15*
X177291169Y-77640000D03*
D16*
X178098821Y-96284831D03*
X179041179Y-96675169D03*
D17*
X160060000Y-101250000D03*
D10*
X168780000Y-89730000D03*
X163020000Y-89730000D03*
X168780000Y-85730000D03*
X163020000Y-85730000D03*
D18*
X185355000Y-90880000D03*
X186930000Y-90880000D03*
D17*
X175810000Y-72220000D03*
D19*
X183450000Y-82340000D03*
X183450000Y-83360000D03*
D20*
X178404783Y-94168726D03*
X180160154Y-94895824D03*
X180000000Y-92800000D03*
D21*
X168090000Y-106795000D03*
X168090000Y-105245000D03*
D11*
X163900000Y-96910000D03*
X163900000Y-95890000D03*
D22*
X169827500Y-101235000D03*
X169827500Y-101885000D03*
X169827500Y-102535000D03*
X169827500Y-103185000D03*
X169827500Y-103835000D03*
X169827500Y-104485000D03*
X169827500Y-105135000D03*
X169827500Y-105785000D03*
X169827500Y-106435000D03*
X169827500Y-107085000D03*
X175552500Y-107085000D03*
X175552500Y-106435000D03*
X175552500Y-105785000D03*
X175552500Y-105135000D03*
X175552500Y-104485000D03*
X175552500Y-103835000D03*
X175552500Y-103185000D03*
X175552500Y-102535000D03*
X175552500Y-101885000D03*
X175552500Y-101235000D03*
D23*
X184351179Y-100455169D03*
X183408821Y-100064831D03*
D18*
X157145000Y-91440000D03*
X158720000Y-91440000D03*
D24*
X165080000Y-93510000D03*
X164060000Y-93510000D03*
D11*
X158050000Y-102667500D03*
X158050000Y-101647500D03*
D17*
X159950000Y-87140000D03*
D25*
X166947500Y-83020000D03*
X165372500Y-83020000D03*
D11*
X171820000Y-87517500D03*
X171820000Y-86497500D03*
D26*
X183284831Y-87641179D03*
X183675169Y-86698821D03*
D18*
X176755000Y-83030000D03*
X178330000Y-83030000D03*
D17*
X186640000Y-103110000D03*
D27*
X187408821Y-100525169D03*
X188351179Y-100134831D03*
D10*
X189050000Y-97380000D03*
X183290000Y-97380000D03*
X189050000Y-93380000D03*
X183290000Y-93380000D03*
D19*
X181070000Y-81532500D03*
X181070000Y-82552500D03*
D28*
X169350002Y-92235001D03*
D29*
X169350002Y-94775001D03*
X171890002Y-92235001D03*
X171890002Y-94775001D03*
X174430003Y-92235000D03*
X174430002Y-94775001D03*
D30*
X186850000Y-98160000D03*
X186880000Y-93380000D03*
X170980000Y-106400000D03*
X174090000Y-103460000D03*
X175320000Y-99890000D03*
X167300000Y-92180000D03*
X176250000Y-96960000D03*
X167420000Y-103480000D03*
X175290000Y-88380000D03*
X167870000Y-98490000D03*
X174150000Y-106320000D03*
X158090000Y-93439998D03*
X177150000Y-107560000D03*
X177027426Y-105112970D03*
X167530000Y-84580000D03*
X177051716Y-104453415D03*
X175770000Y-84380000D03*
X177073123Y-103793760D03*
X184680000Y-89140000D03*
X183521000Y-85930000D03*
X177870000Y-80560000D03*
X176980000Y-101970000D03*
X160920000Y-99340000D03*
X170900000Y-89620000D03*
X176960000Y-101270000D03*
X171090000Y-107070000D03*
X180530000Y-96920000D03*
X178603000Y-101200000D03*
X176860454Y-102619085D03*
X171020000Y-103190000D03*
D31*
X176760000Y-97470000D02*
X181150000Y-97470000D01*
X176250000Y-96960000D02*
X176760000Y-97470000D01*
X178098821Y-96284831D02*
X177880990Y-96284831D01*
X177880990Y-96284831D02*
X177726960Y-96130801D01*
X179041179Y-96675169D02*
X180285169Y-96675169D01*
X180285169Y-96675169D02*
X180530000Y-96920000D01*
X164675003Y-96910000D02*
X169350002Y-92235001D01*
X168450000Y-106435000D02*
X169827500Y-106435000D01*
X180240000Y-85580000D02*
X181631000Y-84189000D01*
X183886055Y-86909707D02*
X183886055Y-87890214D01*
X189070000Y-93380000D02*
X186880000Y-93380000D01*
X160969998Y-93929998D02*
X160970000Y-93930000D01*
X161117500Y-83827500D02*
X163020000Y-85730000D01*
X170567500Y-87517500D02*
X171820000Y-87517500D01*
X163900000Y-96910000D02*
X163900000Y-102605000D01*
X155169999Y-93929998D02*
X160969998Y-93929998D01*
X184011000Y-82045514D02*
X184011000Y-86362990D01*
X181631000Y-82093500D02*
X181070000Y-81532500D01*
X183269999Y-93379998D02*
X183270001Y-93380000D01*
X187408821Y-100525169D02*
X186850000Y-99966348D01*
X168780000Y-85730000D02*
X170567500Y-87517500D01*
X170980000Y-106400000D02*
X169862500Y-106400000D01*
X171820000Y-87517500D02*
X172542500Y-87517500D01*
X169350002Y-92235001D02*
X168977499Y-92235001D01*
X183451801Y-88324467D02*
X183451801Y-93198196D01*
X162959000Y-96371500D02*
X163497500Y-96910000D01*
X180240000Y-85580000D02*
X174480000Y-85580000D01*
X183497986Y-81532500D02*
X184011000Y-82045514D01*
X186850000Y-99680000D02*
X186850000Y-98160000D01*
X183675169Y-86698821D02*
X183886055Y-86909707D01*
X169476999Y-92235001D02*
X169350002Y-92235001D01*
X163900000Y-102605000D02*
X168090000Y-106795000D01*
X160100000Y-83827500D02*
X161117500Y-83827500D01*
X163900000Y-96910000D02*
X164675003Y-96910000D01*
X183451801Y-93198196D02*
X183269999Y-93379998D01*
X161870000Y-93930000D02*
X162959000Y-95019000D01*
X168090000Y-106795000D02*
X168450000Y-106435000D01*
X171820000Y-87517500D02*
X171820000Y-89892000D01*
X186850000Y-99966348D02*
X186850000Y-99680000D01*
X184011000Y-86362990D02*
X183675169Y-86698821D01*
X160970000Y-93930000D02*
X161870000Y-93930000D01*
X181070000Y-81532500D02*
X183497986Y-81532500D01*
X163020000Y-85730000D02*
X168780000Y-85730000D01*
X163497500Y-96910000D02*
X163900000Y-96910000D01*
X183886055Y-87890214D02*
X183451801Y-88324467D01*
X181631000Y-84189000D02*
X181631000Y-82093500D01*
X171820000Y-89892000D02*
X169476999Y-92235001D01*
X169862500Y-106400000D02*
X169827500Y-106435000D01*
X162959000Y-95019000D02*
X162959000Y-96371500D01*
X172542500Y-87517500D02*
X174480000Y-85580000D01*
X183270001Y-93380000D02*
X186880000Y-93380000D01*
X163900000Y-95487500D02*
X163900000Y-95890000D01*
X162566000Y-94172037D02*
X163097712Y-94703750D01*
X158720000Y-91440000D02*
X160862000Y-91440000D01*
X162566000Y-93144000D02*
X162566000Y-94172037D01*
X160862000Y-91440000D02*
X162566000Y-93144000D01*
X163116250Y-94703750D02*
X163900000Y-95487500D01*
X163097712Y-94703750D02*
X163116250Y-94703750D01*
X177150000Y-107560000D02*
X177150000Y-106809982D01*
X177150000Y-106809982D02*
X176125018Y-105785000D01*
X157145000Y-91440000D02*
X158090000Y-92385000D01*
X158090000Y-92385000D02*
X158090000Y-93439998D01*
X176125018Y-105785000D02*
X175552500Y-105785000D01*
X166947500Y-83020000D02*
X166947500Y-83997500D01*
X177005396Y-105135000D02*
X177027426Y-105112970D01*
X166947500Y-83997500D02*
X167530000Y-84580000D01*
X167530000Y-84580000D02*
X167647500Y-84462500D01*
X175552500Y-105135000D02*
X177005396Y-105135000D01*
X165160000Y-82807500D02*
X165372500Y-83020000D01*
X160100000Y-82807500D02*
X165160000Y-82807500D01*
X177020131Y-104485000D02*
X177051716Y-104453415D01*
X175770000Y-83315000D02*
X176055000Y-83030000D01*
X176755000Y-83030000D02*
X176055000Y-83030000D01*
X175770000Y-84380000D02*
X175770000Y-83315000D01*
X175552500Y-104485000D02*
X177020131Y-104485000D01*
X181070000Y-82552500D02*
X178807500Y-82552500D01*
X178807500Y-82552500D02*
X178330000Y-83030000D01*
X175552500Y-103835000D02*
X177031883Y-103835000D01*
X177031883Y-103835000D02*
X177073123Y-103793760D01*
X184680000Y-89140000D02*
X184655000Y-89165000D01*
X185355000Y-89815000D02*
X184680000Y-89140000D01*
X185355000Y-90880000D02*
X185355000Y-89815000D01*
X186930000Y-90880000D02*
X188952000Y-90880000D01*
X188785970Y-100134831D02*
X188351179Y-100134831D01*
X190711000Y-92639000D02*
X190711000Y-98696500D01*
X188940000Y-99980801D02*
X188785970Y-100134831D01*
X190711000Y-98696500D02*
X189426699Y-99980801D01*
X188952000Y-90880000D02*
X190711000Y-92639000D01*
X189426699Y-99980801D02*
X188940000Y-99980801D01*
X182040000Y-92350000D02*
X180160154Y-94229846D01*
X183073945Y-87430293D02*
X183284831Y-87641179D01*
X183284831Y-87641179D02*
X183284831Y-87859010D01*
X180160154Y-94229846D02*
X180160154Y-94895824D01*
X182310000Y-92350000D02*
X182040000Y-92350000D01*
X183130801Y-88013040D02*
X183130801Y-91529199D01*
X177291169Y-77640000D02*
X177291169Y-79981169D01*
X183073945Y-86377055D02*
X183073945Y-87430293D01*
X177291169Y-79981169D02*
X177870000Y-80560000D01*
X183284831Y-87859010D02*
X183130801Y-88013040D01*
X183130801Y-91529199D02*
X182310000Y-92350000D01*
X183521000Y-85930000D02*
X183073945Y-86377055D01*
X171820000Y-83111169D02*
X172200000Y-82731169D01*
X171820000Y-86497500D02*
X171820000Y-83111169D01*
X177726960Y-96130801D02*
X177726960Y-94846549D01*
X177726960Y-94846549D02*
X178404783Y-94168726D01*
X158050000Y-100850003D02*
X158050000Y-101647500D01*
X160920000Y-97980003D02*
X160970001Y-97930002D01*
X160970001Y-97930002D02*
X158050000Y-100850003D01*
X155170000Y-97930000D02*
X160969999Y-97930000D01*
X176895000Y-101885000D02*
X176980000Y-101970000D01*
X160920000Y-99340000D02*
X160920000Y-97980003D01*
X175552500Y-101885000D02*
X176895000Y-101885000D01*
X160969999Y-97930000D02*
X160970001Y-97930002D01*
X175552500Y-101235000D02*
X176925000Y-101235000D01*
X169760000Y-89350000D02*
X169760000Y-89460003D01*
X168780000Y-89730000D02*
X163020000Y-89730000D01*
X163020000Y-92470000D02*
X164060000Y-93510000D01*
X168780000Y-89730000D02*
X170790000Y-89730000D01*
X170790000Y-89730000D02*
X170900000Y-89620000D01*
X163020000Y-89730000D02*
X163020000Y-92470000D01*
X176925000Y-101235000D02*
X176960000Y-101270000D01*
X180930000Y-89580000D02*
X182240000Y-88270000D01*
X174480000Y-90170000D02*
X175521000Y-91211000D01*
X174480000Y-89580000D02*
X174480000Y-90170000D01*
X175521000Y-91211000D02*
X175521000Y-96769000D01*
X180240000Y-89580000D02*
X174480000Y-89580000D01*
X183450000Y-85280000D02*
X183450000Y-83360000D01*
X174769703Y-97520297D02*
X173542203Y-97520297D01*
X182240000Y-88270000D02*
X182240000Y-87485890D01*
X182240000Y-87485890D02*
X182752945Y-86972945D01*
X173542203Y-97520297D02*
X169827500Y-101235000D01*
X182752945Y-85977055D02*
X183450000Y-85280000D01*
X175521000Y-96769000D02*
X174769703Y-97520297D01*
X182752945Y-86972945D02*
X182752945Y-85977055D01*
X180240000Y-89580000D02*
X180930000Y-89580000D01*
X170565000Y-101885000D02*
X170831700Y-101618300D01*
X183036960Y-97613040D02*
X183270000Y-97380000D01*
X183254791Y-99910801D02*
X183408821Y-100064831D01*
X173675165Y-97841297D02*
X182828703Y-97841297D01*
X183270002Y-97380002D02*
X183270000Y-97380000D01*
X182828703Y-97841297D02*
X183290000Y-97380000D01*
X183290000Y-99882358D02*
X183290000Y-97380000D01*
X189070001Y-97380002D02*
X183270002Y-97380002D01*
X183408821Y-100064831D02*
X183408821Y-100001179D01*
X183408821Y-100001179D02*
X183290000Y-99882358D01*
X182808703Y-97841297D02*
X183270000Y-97380000D01*
X169827500Y-101885000D02*
X170565000Y-101885000D01*
X170831700Y-101618300D02*
X170831700Y-100684762D01*
X170831700Y-100684762D02*
X173675165Y-97841297D01*
X169827500Y-107085000D02*
X171075000Y-107085000D01*
X171075000Y-107085000D02*
X171090000Y-107070000D01*
X177183915Y-102619085D02*
X178603000Y-101200000D01*
X176860454Y-102619085D02*
X177183915Y-102619085D01*
X176860454Y-102619085D02*
X175636585Y-102619085D01*
X175636585Y-102619085D02*
X175552500Y-102535000D01*
X169832500Y-103190000D02*
X169827500Y-103185000D01*
X171020000Y-103190000D02*
X169832500Y-103190000D01*
G04 #@! TA.AperFunction,Conductor*
G36*
X174017047Y-70550574D02*
G01*
X175197642Y-70579137D01*
X175214086Y-70580917D01*
X176052204Y-70743410D01*
X176081119Y-70753881D01*
X176590718Y-71034529D01*
X176618743Y-71057546D01*
X176894557Y-71385670D01*
X177113322Y-71645924D01*
X177117598Y-71651390D01*
X177484842Y-72156349D01*
X177723740Y-72484833D01*
X177730217Y-72494983D01*
X178053064Y-73076108D01*
X178055992Y-73081806D01*
X178372067Y-73749076D01*
X178487523Y-73992815D01*
X178490592Y-74000016D01*
X178916548Y-75120470D01*
X178919856Y-75129170D01*
X178920210Y-75132263D01*
X178943263Y-75190739D01*
X178943482Y-75191314D01*
X178965579Y-75249443D01*
X178965866Y-75249974D01*
X178970816Y-75260630D01*
X179336262Y-76187617D01*
X179339511Y-76195857D01*
X179344893Y-76220631D01*
X179363569Y-76256886D01*
X179365390Y-76261504D01*
X179365393Y-76261510D01*
X179378543Y-76294864D01*
X179382913Y-76300767D01*
X179388864Y-76308804D01*
X179397306Y-76322375D01*
X179612343Y-76739800D01*
X179706729Y-76923018D01*
X179725431Y-76966889D01*
X179736803Y-76981399D01*
X179741096Y-76989732D01*
X179741097Y-76989734D01*
X179745243Y-76997781D01*
X179745248Y-76997788D01*
X179774891Y-77030417D01*
X179779521Y-77035900D01*
X180319303Y-77724587D01*
X180329921Y-77744410D01*
X180359793Y-77776247D01*
X180386726Y-77810610D01*
X180397846Y-77818962D01*
X180410578Y-77830373D01*
X181123283Y-78589967D01*
X181154144Y-78627730D01*
X181168223Y-78637863D01*
X181174791Y-78644863D01*
X181180094Y-78650515D01*
X181198418Y-78661887D01*
X181218644Y-78674439D01*
X181224264Y-78678198D01*
X182774228Y-79793777D01*
X182774228Y-79793778D01*
X182774790Y-79794182D01*
X182824859Y-79831302D01*
X182828189Y-79832617D01*
X182831099Y-79834711D01*
X182831110Y-79834717D01*
X182888828Y-79856577D01*
X182890128Y-79857080D01*
X184073830Y-80324594D01*
X184132537Y-80348462D01*
X184135058Y-80348776D01*
X184137426Y-80349712D01*
X184137429Y-80349713D01*
X184200127Y-80356913D01*
X184200758Y-80356989D01*
X185031036Y-80460773D01*
X185070049Y-80474334D01*
X185932048Y-80996507D01*
X185952511Y-81012977D01*
X186811489Y-81916693D01*
X186824673Y-81934045D01*
X187664029Y-83336046D01*
X187673572Y-83357340D01*
X188208874Y-85068396D01*
X188209943Y-85072057D01*
X188487070Y-86094557D01*
X188487069Y-86094557D01*
X188488698Y-86100568D01*
X188493474Y-86134666D01*
X188505858Y-86163883D01*
X188507625Y-86170400D01*
X188507628Y-86170408D01*
X188514164Y-86194523D01*
X188528343Y-86218921D01*
X188531469Y-86224300D01*
X188544907Y-86255999D01*
X188564428Y-86281010D01*
X188567824Y-86286853D01*
X188580381Y-86308459D01*
X188580382Y-86308461D01*
X188580383Y-86308462D01*
X188580384Y-86308463D01*
X188600401Y-86328366D01*
X188608631Y-86337646D01*
X189195986Y-87090196D01*
X189199485Y-87094679D01*
X189207246Y-87106210D01*
X189461416Y-87547881D01*
X190379053Y-89142463D01*
X190386543Y-89158724D01*
X191169382Y-91364037D01*
X191173935Y-91382101D01*
X191559695Y-93889548D01*
X191560803Y-93901692D01*
X191637637Y-96514087D01*
X191635602Y-96537174D01*
X191187422Y-98690045D01*
X191157052Y-98743161D01*
X191101261Y-98768281D01*
X191041360Y-98755811D01*
X191000229Y-98710514D01*
X190991500Y-98669868D01*
X190991500Y-92602074D01*
X190991500Y-92602072D01*
X190972384Y-92530731D01*
X190935456Y-92466769D01*
X190935453Y-92466766D01*
X190883231Y-92414543D01*
X190883231Y-92414544D01*
X190883230Y-92414543D01*
X189176457Y-90707771D01*
X189176456Y-90707769D01*
X189124231Y-90655544D01*
X189060269Y-90618616D01*
X189060268Y-90618615D01*
X189060267Y-90618615D01*
X189054667Y-90617115D01*
X189054667Y-90617114D01*
X188988931Y-90599500D01*
X188988929Y-90599500D01*
X188988928Y-90599500D01*
X187653939Y-90599500D01*
X187595748Y-90580593D01*
X187559784Y-90531093D01*
X187556158Y-90515987D01*
X187552451Y-90492580D01*
X187492158Y-90374249D01*
X187398251Y-90280342D01*
X187338227Y-90249758D01*
X187279923Y-90220050D01*
X187279920Y-90220049D01*
X187252512Y-90215708D01*
X187181749Y-90204500D01*
X187181746Y-90204500D01*
X186678254Y-90204500D01*
X186678251Y-90204500D01*
X186580080Y-90220049D01*
X186580076Y-90220050D01*
X186461750Y-90280341D01*
X186367841Y-90374250D01*
X186307550Y-90492576D01*
X186307549Y-90492580D01*
X186292000Y-90590751D01*
X186292000Y-91169248D01*
X186307549Y-91267419D01*
X186307550Y-91267423D01*
X186361272Y-91372857D01*
X186367842Y-91385751D01*
X186461749Y-91479658D01*
X186580080Y-91539951D01*
X186646630Y-91550491D01*
X186678251Y-91555500D01*
X186678254Y-91555500D01*
X187181749Y-91555500D01*
X187210303Y-91550976D01*
X187279920Y-91539951D01*
X187398251Y-91479658D01*
X187492158Y-91385751D01*
X187552451Y-91267420D01*
X187556158Y-91244012D01*
X187583935Y-91189497D01*
X187638452Y-91161719D01*
X187653939Y-91160500D01*
X188794806Y-91160500D01*
X188852997Y-91179407D01*
X188864810Y-91189496D01*
X190185809Y-92510496D01*
X190213586Y-92565013D01*
X190204015Y-92625445D01*
X190160750Y-92668710D01*
X190115805Y-92679500D01*
X187655252Y-92679500D01*
X187655251Y-92679500D01*
X187655241Y-92679501D01*
X187596772Y-92691132D01*
X187596766Y-92691134D01*
X187530451Y-92735445D01*
X187530445Y-92735451D01*
X187486134Y-92801766D01*
X187486132Y-92801772D01*
X187474501Y-92860241D01*
X187474500Y-92860253D01*
X187474500Y-93000500D01*
X187469655Y-93015411D01*
X187469655Y-93031093D01*
X187460438Y-93043778D01*
X187455593Y-93058691D01*
X187442907Y-93067907D01*
X187433691Y-93080593D01*
X187418778Y-93085438D01*
X187406093Y-93094655D01*
X187375500Y-93099500D01*
X187277610Y-93099500D01*
X187219419Y-93080593D01*
X187207607Y-93070504D01*
X187156614Y-93019511D01*
X187156608Y-93019507D01*
X187053889Y-92960202D01*
X187053890Y-92960202D01*
X187040351Y-92956574D01*
X186939309Y-92929500D01*
X186820691Y-92929500D01*
X186750567Y-92948289D01*
X186706109Y-92960202D01*
X186603391Y-93019507D01*
X186603385Y-93019511D01*
X186552393Y-93070504D01*
X186497876Y-93098281D01*
X186482390Y-93099500D01*
X184964500Y-93099500D01*
X184906309Y-93080593D01*
X184870345Y-93031093D01*
X184865500Y-93000500D01*
X184865500Y-92860253D01*
X184865498Y-92860241D01*
X184857346Y-92819261D01*
X184853867Y-92801769D01*
X184809552Y-92735448D01*
X184809548Y-92735445D01*
X184743233Y-92691134D01*
X184743231Y-92691133D01*
X184743228Y-92691132D01*
X184743227Y-92691132D01*
X184684758Y-92679501D01*
X184684748Y-92679500D01*
X184684747Y-92679500D01*
X183831301Y-92679500D01*
X183773110Y-92660593D01*
X183737146Y-92611093D01*
X183732301Y-92580500D01*
X183732301Y-89080691D01*
X184229500Y-89080691D01*
X184229500Y-89199309D01*
X184245630Y-89259507D01*
X184260202Y-89313890D01*
X184319507Y-89416608D01*
X184319509Y-89416610D01*
X184319511Y-89416613D01*
X184403387Y-89500489D01*
X184403389Y-89500490D01*
X184403391Y-89500492D01*
X184506110Y-89559797D01*
X184506111Y-89559797D01*
X184506114Y-89559799D01*
X184620691Y-89590500D01*
X184692806Y-89590500D01*
X184750997Y-89609407D01*
X184762810Y-89619496D01*
X185045504Y-89902190D01*
X185049130Y-89909307D01*
X185055593Y-89914003D01*
X185062756Y-89936051D01*
X185073281Y-89956707D01*
X185074500Y-89972194D01*
X185074500Y-90125565D01*
X185055593Y-90183756D01*
X185011614Y-90215708D01*
X185012023Y-90216511D01*
X185006958Y-90219091D01*
X185006095Y-90219719D01*
X185006093Y-90219719D01*
X185006093Y-90219720D01*
X185006092Y-90219720D01*
X185005079Y-90220049D01*
X184886750Y-90280341D01*
X184792841Y-90374250D01*
X184732550Y-90492576D01*
X184732549Y-90492580D01*
X184717000Y-90590751D01*
X184717000Y-91169248D01*
X184732549Y-91267419D01*
X184732550Y-91267423D01*
X184786272Y-91372857D01*
X184792842Y-91385751D01*
X184886749Y-91479658D01*
X185005080Y-91539951D01*
X185071630Y-91550491D01*
X185103251Y-91555500D01*
X185103254Y-91555500D01*
X185606749Y-91555500D01*
X185635303Y-91550976D01*
X185704920Y-91539951D01*
X185823251Y-91479658D01*
X185917158Y-91385751D01*
X185977451Y-91267420D01*
X185993000Y-91169246D01*
X185993000Y-90590754D01*
X185977451Y-90492580D01*
X185917158Y-90374249D01*
X185823251Y-90280342D01*
X185704920Y-90220049D01*
X185703905Y-90219719D01*
X185703041Y-90219091D01*
X185697977Y-90216511D01*
X185698385Y-90215708D01*
X185654406Y-90183754D01*
X185635500Y-90125565D01*
X185635500Y-89778074D01*
X185635500Y-89778072D01*
X185616384Y-89706731D01*
X185579456Y-89642769D01*
X185556183Y-89619496D01*
X185527231Y-89590543D01*
X185527231Y-89590544D01*
X185159496Y-89222809D01*
X185131719Y-89168292D01*
X185130500Y-89152805D01*
X185130500Y-89080692D01*
X185128708Y-89074003D01*
X185099799Y-88966114D01*
X185099797Y-88966111D01*
X185099797Y-88966109D01*
X185040492Y-88863391D01*
X185040490Y-88863389D01*
X185040489Y-88863387D01*
X184956613Y-88779511D01*
X184956610Y-88779509D01*
X184956608Y-88779507D01*
X184853889Y-88720202D01*
X184853890Y-88720202D01*
X184840351Y-88716574D01*
X184739309Y-88689500D01*
X184620691Y-88689500D01*
X184550567Y-88708289D01*
X184506109Y-88720202D01*
X184403391Y-88779507D01*
X184319507Y-88863391D01*
X184260202Y-88966109D01*
X184260201Y-88966114D01*
X184229500Y-89080691D01*
X183732301Y-89080691D01*
X183732301Y-88481661D01*
X183751208Y-88423470D01*
X183761298Y-88411657D01*
X183866030Y-88306925D01*
X184110510Y-88062446D01*
X184117421Y-88050477D01*
X184147439Y-87998483D01*
X184156308Y-87965383D01*
X184166555Y-87927143D01*
X184166555Y-87853286D01*
X184166555Y-86892332D01*
X184174091Y-86854446D01*
X184185085Y-86827904D01*
X184222756Y-86736961D01*
X184235511Y-86689361D01*
X184230507Y-86574796D01*
X184243675Y-86520983D01*
X184248140Y-86513251D01*
X184272384Y-86471259D01*
X184291500Y-86399918D01*
X184291500Y-82008586D01*
X184272384Y-81937245D01*
X184235456Y-81873283D01*
X184225074Y-81862901D01*
X184183231Y-81821057D01*
X184183231Y-81821058D01*
X184183230Y-81821057D01*
X184183230Y-81821056D01*
X183728088Y-81365916D01*
X183728085Y-81365912D01*
X183728085Y-81365913D01*
X183722443Y-81360271D01*
X183722442Y-81360269D01*
X183670217Y-81308044D01*
X183606255Y-81271116D01*
X183606254Y-81271115D01*
X183606251Y-81271114D01*
X183558186Y-81258235D01*
X183558185Y-81258235D01*
X183534917Y-81252000D01*
X183534915Y-81252000D01*
X183534914Y-81252000D01*
X181620406Y-81252000D01*
X181562215Y-81233093D01*
X181541229Y-81207652D01*
X181539033Y-81209191D01*
X181534067Y-81202099D01*
X181534065Y-81202097D01*
X181534065Y-81202096D01*
X181450404Y-81118435D01*
X181450402Y-81118434D01*
X181450401Y-81118433D01*
X181343175Y-81068432D01*
X181310601Y-81064144D01*
X181294316Y-81062000D01*
X180845684Y-81062000D01*
X180829398Y-81064144D01*
X180796825Y-81068432D01*
X180796824Y-81068432D01*
X180689598Y-81118433D01*
X180605933Y-81202098D01*
X180555932Y-81309324D01*
X180555932Y-81309325D01*
X180549500Y-81358185D01*
X180549500Y-81706814D01*
X180555932Y-81755674D01*
X180555932Y-81755675D01*
X180605933Y-81862901D01*
X180605934Y-81862902D01*
X180605935Y-81862904D01*
X180689596Y-81946565D01*
X180689597Y-81946565D01*
X180689598Y-81946566D01*
X180702915Y-81952776D01*
X180747663Y-81994505D01*
X180759337Y-82054566D01*
X180733478Y-82110018D01*
X180728198Y-82115271D01*
X180716876Y-82125713D01*
X180689596Y-82138435D01*
X180605935Y-82222096D01*
X180601067Y-82232534D01*
X180586717Y-82245771D01*
X180575761Y-82250807D01*
X180567533Y-82259619D01*
X180542562Y-82266068D01*
X180531124Y-82271326D01*
X180526097Y-82270320D01*
X180519594Y-82272000D01*
X178770568Y-82272000D01*
X178699234Y-82291114D01*
X178699229Y-82291116D01*
X178635271Y-82328041D01*
X178630124Y-82331992D01*
X178628705Y-82330143D01*
X178583293Y-82353281D01*
X178567806Y-82354500D01*
X178078251Y-82354500D01*
X177980080Y-82370049D01*
X177980076Y-82370050D01*
X177861750Y-82430341D01*
X177767841Y-82524250D01*
X177707550Y-82642576D01*
X177707549Y-82642580D01*
X177692000Y-82740751D01*
X177692000Y-83319248D01*
X177707549Y-83417419D01*
X177707550Y-83417423D01*
X177714563Y-83431186D01*
X177767842Y-83535751D01*
X177861749Y-83629658D01*
X177980080Y-83689951D01*
X178046630Y-83700491D01*
X178078251Y-83705500D01*
X178078254Y-83705500D01*
X178581749Y-83705500D01*
X178610303Y-83700976D01*
X178679920Y-83689951D01*
X178798251Y-83629658D01*
X178892158Y-83535751D01*
X178952451Y-83417420D01*
X178965339Y-83336046D01*
X178968000Y-83319248D01*
X178968000Y-82932000D01*
X178986907Y-82873809D01*
X179036407Y-82837845D01*
X179067000Y-82833000D01*
X180519594Y-82833000D01*
X180577785Y-82851907D01*
X180598770Y-82877347D01*
X180600967Y-82875809D01*
X180605932Y-82882900D01*
X180605934Y-82882902D01*
X180605935Y-82882904D01*
X180689596Y-82966565D01*
X180689597Y-82966565D01*
X180689598Y-82966566D01*
X180796824Y-83016567D01*
X180796825Y-83016567D01*
X180796827Y-83016568D01*
X180845684Y-83023000D01*
X180845685Y-83023000D01*
X181251500Y-83023000D01*
X181309691Y-83041907D01*
X181345655Y-83091407D01*
X181350500Y-83122000D01*
X181350500Y-84031806D01*
X181331593Y-84089997D01*
X181321504Y-84101810D01*
X180572810Y-84850504D01*
X180518293Y-84878281D01*
X180502806Y-84879500D01*
X178845252Y-84879500D01*
X178845251Y-84879500D01*
X178845241Y-84879501D01*
X178786772Y-84891132D01*
X178786766Y-84891134D01*
X178720451Y-84935445D01*
X178720445Y-84935451D01*
X178676134Y-85001766D01*
X178676132Y-85001772D01*
X178664501Y-85060241D01*
X178664500Y-85060253D01*
X178664500Y-85200500D01*
X178645593Y-85258691D01*
X178596093Y-85294655D01*
X178565500Y-85299500D01*
X176154500Y-85299500D01*
X176096309Y-85280593D01*
X176060345Y-85231093D01*
X176055500Y-85200500D01*
X176055500Y-85060253D01*
X176055498Y-85060241D01*
X176049383Y-85029500D01*
X176043867Y-85001769D01*
X175999552Y-84935448D01*
X175997211Y-84933883D01*
X175994322Y-84930219D01*
X175992657Y-84928554D01*
X175992854Y-84928356D01*
X175959334Y-84885834D01*
X175956932Y-84824696D01*
X175990926Y-84773823D01*
X176002707Y-84765838D01*
X176046613Y-84740489D01*
X176130489Y-84656613D01*
X176178396Y-84573637D01*
X176189797Y-84553890D01*
X176189797Y-84553888D01*
X176189799Y-84553886D01*
X176220500Y-84439309D01*
X176220500Y-84320691D01*
X176189799Y-84206114D01*
X176189797Y-84206111D01*
X176189797Y-84206109D01*
X176130492Y-84103391D01*
X176130488Y-84103385D01*
X176079496Y-84052393D01*
X176051719Y-83997876D01*
X176050500Y-83982390D01*
X176050500Y-83632416D01*
X176069407Y-83574225D01*
X176118907Y-83538261D01*
X176180093Y-83538261D01*
X176219501Y-83562410D01*
X176286749Y-83629658D01*
X176405080Y-83689951D01*
X176471630Y-83700491D01*
X176503251Y-83705500D01*
X176503254Y-83705500D01*
X177006749Y-83705500D01*
X177035303Y-83700976D01*
X177104920Y-83689951D01*
X177223251Y-83629658D01*
X177317158Y-83535751D01*
X177377451Y-83417420D01*
X177390339Y-83336046D01*
X177393000Y-83319248D01*
X177393000Y-82740751D01*
X177381158Y-82665987D01*
X177377451Y-82642580D01*
X177317158Y-82524249D01*
X177223251Y-82430342D01*
X177203623Y-82420341D01*
X177104923Y-82370050D01*
X177104920Y-82370049D01*
X177080376Y-82366161D01*
X177006749Y-82354500D01*
X177006746Y-82354500D01*
X176503254Y-82354500D01*
X176503251Y-82354500D01*
X176405080Y-82370049D01*
X176405076Y-82370050D01*
X176286750Y-82430341D01*
X176192841Y-82524250D01*
X176132550Y-82642576D01*
X176132549Y-82642580D01*
X176128842Y-82665987D01*
X176101065Y-82720503D01*
X176046548Y-82748281D01*
X176031061Y-82749500D01*
X176018068Y-82749500D01*
X175946734Y-82768614D01*
X175946733Y-82768614D01*
X175882766Y-82805546D01*
X175592126Y-83096184D01*
X175592127Y-83096185D01*
X175592124Y-83096188D01*
X175592123Y-83096187D01*
X175545546Y-83142766D01*
X175545544Y-83142768D01*
X175545544Y-83142769D01*
X175543812Y-83145769D01*
X175508616Y-83206730D01*
X175508616Y-83206731D01*
X175489500Y-83278072D01*
X175489500Y-83278074D01*
X175489500Y-83982390D01*
X175470593Y-84040581D01*
X175460504Y-84052393D01*
X175409511Y-84103385D01*
X175409507Y-84103391D01*
X175350202Y-84206109D01*
X175335892Y-84259517D01*
X175319500Y-84320691D01*
X175319500Y-84439309D01*
X175335009Y-84497190D01*
X175350202Y-84553890D01*
X175409507Y-84656608D01*
X175409509Y-84656610D01*
X175409511Y-84656613D01*
X175463396Y-84710498D01*
X175491172Y-84765013D01*
X175481601Y-84825445D01*
X175438336Y-84868710D01*
X175393391Y-84879500D01*
X173085252Y-84879500D01*
X173085251Y-84879500D01*
X173085241Y-84879501D01*
X173026772Y-84891132D01*
X173026766Y-84891134D01*
X172960451Y-84935445D01*
X172960445Y-84935451D01*
X172916134Y-85001766D01*
X172916132Y-85001772D01*
X172904501Y-85060241D01*
X172904500Y-85060253D01*
X172904500Y-86099746D01*
X172904501Y-86099758D01*
X172916132Y-86158227D01*
X172916134Y-86158233D01*
X172960445Y-86224548D01*
X172960448Y-86224552D01*
X173026769Y-86268867D01*
X173071231Y-86277711D01*
X173085241Y-86280498D01*
X173085246Y-86280498D01*
X173085252Y-86280500D01*
X173143805Y-86280500D01*
X173201996Y-86299407D01*
X173237960Y-86348907D01*
X173237960Y-86410093D01*
X173213809Y-86449504D01*
X172455310Y-87208004D01*
X172448192Y-87211630D01*
X172443497Y-87218093D01*
X172421448Y-87225256D01*
X172400793Y-87235781D01*
X172385306Y-87237000D01*
X172370406Y-87237000D01*
X172312215Y-87218093D01*
X172291229Y-87192652D01*
X172289033Y-87194191D01*
X172284067Y-87187099D01*
X172284065Y-87187097D01*
X172284065Y-87187096D01*
X172200404Y-87103435D01*
X172187085Y-87097224D01*
X172142337Y-87055497D01*
X172130662Y-86995436D01*
X172156519Y-86939983D01*
X172187084Y-86917775D01*
X172200404Y-86911565D01*
X172284065Y-86827904D01*
X172334068Y-86720673D01*
X172340500Y-86671816D01*
X172340500Y-86323184D01*
X172334068Y-86274327D01*
X172325521Y-86255999D01*
X172284066Y-86167098D01*
X172284065Y-86167097D01*
X172284065Y-86167096D01*
X172200404Y-86083435D01*
X172200402Y-86083434D01*
X172200400Y-86083432D01*
X172157660Y-86063502D01*
X172112912Y-86021773D01*
X172100500Y-85973778D01*
X172100500Y-84671238D01*
X172119407Y-84613047D01*
X172168907Y-84577083D01*
X172182916Y-84573637D01*
X172188478Y-84572691D01*
X172188480Y-84572692D01*
X172278644Y-84557371D01*
X172285715Y-84554442D01*
X172352381Y-84509896D01*
X173652383Y-83209894D01*
X173695858Y-83145765D01*
X173698783Y-83138963D01*
X173715423Y-83063322D01*
X173750778Y-81752233D01*
X173750830Y-81749748D01*
X173750831Y-81749715D01*
X173750834Y-81749484D01*
X173750833Y-81749470D01*
X173735212Y-81667777D01*
X173732284Y-81660708D01*
X173712743Y-81629610D01*
X173695659Y-81602421D01*
X173689812Y-81598272D01*
X173621074Y-81549498D01*
X173618100Y-81548266D01*
X173614001Y-81546568D01*
X173613999Y-81546567D01*
X173613998Y-81546567D01*
X173582286Y-81540259D01*
X173535357Y-81530924D01*
X170935354Y-81530924D01*
X170935351Y-81530924D01*
X170935344Y-81530925D01*
X170859278Y-81545524D01*
X170859277Y-81545524D01*
X170852397Y-81548266D01*
X170795735Y-81582288D01*
X170740814Y-81655417D01*
X170737697Y-81662402D01*
X170737696Y-81662405D01*
X170737696Y-81662406D01*
X170730301Y-81694959D01*
X170719931Y-81740617D01*
X170684576Y-83051709D01*
X170684523Y-83054221D01*
X170684520Y-83054452D01*
X170684521Y-83054466D01*
X170694549Y-83106907D01*
X170700142Y-83136157D01*
X170703071Y-83143228D01*
X170747617Y-83209894D01*
X171510505Y-83972782D01*
X171538281Y-84027297D01*
X171539500Y-84042784D01*
X171539500Y-85973778D01*
X171520593Y-86031969D01*
X171482340Y-86063502D01*
X171439599Y-86083432D01*
X171355933Y-86167098D01*
X171305932Y-86274324D01*
X171305932Y-86274325D01*
X171299500Y-86323185D01*
X171299500Y-86671814D01*
X171305932Y-86720674D01*
X171305932Y-86720675D01*
X171355933Y-86827901D01*
X171355934Y-86827902D01*
X171355935Y-86827904D01*
X171439596Y-86911565D01*
X171439597Y-86911565D01*
X171439598Y-86911566D01*
X171452915Y-86917776D01*
X171497663Y-86959505D01*
X171509337Y-87019566D01*
X171483478Y-87075018D01*
X171478198Y-87080271D01*
X171466876Y-87090713D01*
X171439596Y-87103435D01*
X171355935Y-87187096D01*
X171351067Y-87197534D01*
X171336717Y-87210771D01*
X171325761Y-87215807D01*
X171317533Y-87224619D01*
X171292562Y-87231068D01*
X171281124Y-87236326D01*
X171276097Y-87235320D01*
X171269594Y-87237000D01*
X170724695Y-87237000D01*
X170666504Y-87218093D01*
X170654691Y-87208004D01*
X170046191Y-86599504D01*
X170018414Y-86544987D01*
X170027985Y-86484555D01*
X170071250Y-86441290D01*
X170116195Y-86430500D01*
X170174747Y-86430500D01*
X170174748Y-86430500D01*
X170233231Y-86418867D01*
X170299552Y-86374552D01*
X170343867Y-86308231D01*
X170355500Y-86249748D01*
X170355500Y-85210252D01*
X170343867Y-85151769D01*
X170299552Y-85085448D01*
X170299548Y-85085445D01*
X170233233Y-85041134D01*
X170233231Y-85041133D01*
X170233228Y-85041132D01*
X170233227Y-85041132D01*
X170174758Y-85029501D01*
X170174748Y-85029500D01*
X170174747Y-85029500D01*
X167956609Y-85029500D01*
X167898418Y-85010593D01*
X167862454Y-84961093D01*
X167862454Y-84899907D01*
X167886603Y-84860498D01*
X167890489Y-84856613D01*
X167898876Y-84842086D01*
X167949797Y-84753890D01*
X167949797Y-84753888D01*
X167949799Y-84753886D01*
X167980500Y-84639309D01*
X167980500Y-84520691D01*
X167949799Y-84406114D01*
X167949797Y-84406111D01*
X167949797Y-84406109D01*
X167890492Y-84303391D01*
X167890490Y-84303389D01*
X167890489Y-84303387D01*
X167806613Y-84219511D01*
X167806610Y-84219509D01*
X167806608Y-84219507D01*
X167703889Y-84160202D01*
X167703890Y-84160202D01*
X167676765Y-84152934D01*
X167589309Y-84129500D01*
X167589307Y-84129500D01*
X167517195Y-84129500D01*
X167459004Y-84110593D01*
X167447191Y-84100504D01*
X167256996Y-83910309D01*
X167253369Y-83903191D01*
X167246907Y-83898496D01*
X167239743Y-83876447D01*
X167229219Y-83855792D01*
X167228000Y-83840305D01*
X167228000Y-83774435D01*
X167246907Y-83716244D01*
X167249541Y-83714330D01*
X167290885Y-83684291D01*
X167290477Y-83683489D01*
X167295541Y-83680908D01*
X167296405Y-83680281D01*
X167296406Y-83680280D01*
X167296408Y-83680280D01*
X167297414Y-83679951D01*
X167297420Y-83679951D01*
X167415751Y-83619658D01*
X167509658Y-83525751D01*
X167569951Y-83407420D01*
X167585500Y-83309246D01*
X167585500Y-82730754D01*
X167585253Y-82729196D01*
X167575242Y-82665987D01*
X167569951Y-82632580D01*
X167509658Y-82514249D01*
X167415751Y-82420342D01*
X167411631Y-82418243D01*
X167297423Y-82360050D01*
X167297420Y-82360049D01*
X167272876Y-82356161D01*
X167199249Y-82344500D01*
X167199246Y-82344500D01*
X166695754Y-82344500D01*
X166695751Y-82344500D01*
X166597580Y-82360049D01*
X166597576Y-82360050D01*
X166479250Y-82420341D01*
X166385341Y-82514250D01*
X166325050Y-82632576D01*
X166325049Y-82632580D01*
X166309500Y-82730751D01*
X166309500Y-83309248D01*
X166325049Y-83407419D01*
X166325050Y-83407423D01*
X166337158Y-83431186D01*
X166385342Y-83525751D01*
X166479249Y-83619658D01*
X166597580Y-83679951D01*
X166597584Y-83679951D01*
X166598595Y-83680281D01*
X166599458Y-83680908D01*
X166604523Y-83683489D01*
X166604114Y-83684291D01*
X166648094Y-83716246D01*
X166667000Y-83774435D01*
X166667000Y-84034431D01*
X166673722Y-84059518D01*
X166686114Y-84105765D01*
X166686115Y-84105767D01*
X166686116Y-84105769D01*
X166723044Y-84169731D01*
X166775269Y-84221956D01*
X166775271Y-84221957D01*
X167050504Y-84497190D01*
X167078281Y-84551707D01*
X167079500Y-84567194D01*
X167079500Y-84639309D01*
X167098575Y-84710496D01*
X167110202Y-84753890D01*
X167169507Y-84856608D01*
X167169509Y-84856610D01*
X167169511Y-84856613D01*
X167253387Y-84940489D01*
X167253389Y-84940490D01*
X167257976Y-84945077D01*
X167256133Y-84946919D01*
X167284501Y-84988202D01*
X167282895Y-85049366D01*
X167265428Y-85077049D01*
X167265865Y-85077341D01*
X167216134Y-85151766D01*
X167216132Y-85151772D01*
X167204501Y-85210241D01*
X167204500Y-85210253D01*
X167204500Y-85350500D01*
X167185593Y-85408691D01*
X167136093Y-85444655D01*
X167105500Y-85449500D01*
X164694500Y-85449500D01*
X164636309Y-85430593D01*
X164600345Y-85381093D01*
X164595500Y-85350500D01*
X164595500Y-85210253D01*
X164595498Y-85210241D01*
X164592030Y-85192809D01*
X164583867Y-85151769D01*
X164539552Y-85085448D01*
X164539548Y-85085445D01*
X164473233Y-85041134D01*
X164473231Y-85041133D01*
X164473228Y-85041132D01*
X164473227Y-85041132D01*
X164414758Y-85029501D01*
X164414748Y-85029500D01*
X164414747Y-85029500D01*
X162757195Y-85029500D01*
X162699004Y-85010593D01*
X162687191Y-85000504D01*
X161341957Y-83655271D01*
X161341956Y-83655269D01*
X161289731Y-83603044D01*
X161225769Y-83566116D01*
X161225768Y-83566115D01*
X161225765Y-83566114D01*
X161154431Y-83547000D01*
X161154429Y-83547000D01*
X161154428Y-83547000D01*
X160650406Y-83547000D01*
X160592215Y-83528093D01*
X160583284Y-83520771D01*
X160568931Y-83507532D01*
X160564065Y-83497096D01*
X160480404Y-83413435D01*
X160453123Y-83400713D01*
X160441802Y-83390271D01*
X160433997Y-83376369D01*
X160422337Y-83365497D01*
X160419395Y-83350362D01*
X160411847Y-83336919D01*
X160413703Y-83321084D01*
X160410662Y-83305436D01*
X160417177Y-83291463D01*
X160418973Y-83276150D01*
X160429781Y-83264431D01*
X160436519Y-83249983D01*
X160456496Y-83235468D01*
X160460457Y-83231175D01*
X160463146Y-83230636D01*
X160467084Y-83227775D01*
X160480404Y-83221565D01*
X160564065Y-83137904D01*
X160564067Y-83137900D01*
X160569033Y-83130809D01*
X160572069Y-83132934D01*
X160602467Y-83100381D01*
X160650406Y-83088000D01*
X164635500Y-83088000D01*
X164693691Y-83106907D01*
X164729655Y-83156407D01*
X164734500Y-83187000D01*
X164734500Y-83309248D01*
X164750049Y-83407419D01*
X164750050Y-83407423D01*
X164762158Y-83431186D01*
X164810342Y-83525751D01*
X164904249Y-83619658D01*
X165022580Y-83679951D01*
X165088560Y-83690401D01*
X165120751Y-83695500D01*
X165120754Y-83695500D01*
X165624249Y-83695500D01*
X165656440Y-83690401D01*
X165722420Y-83679951D01*
X165840751Y-83619658D01*
X165934658Y-83525751D01*
X165994951Y-83407420D01*
X166010500Y-83309246D01*
X166010500Y-82730754D01*
X166010253Y-82729196D01*
X166000242Y-82665987D01*
X165994951Y-82632580D01*
X165934658Y-82514249D01*
X165840751Y-82420342D01*
X165836631Y-82418243D01*
X165722423Y-82360050D01*
X165722420Y-82360049D01*
X165697876Y-82356161D01*
X165624249Y-82344500D01*
X165624246Y-82344500D01*
X165120754Y-82344500D01*
X165120751Y-82344500D01*
X165022580Y-82360049D01*
X165022576Y-82360050D01*
X164904250Y-82420341D01*
X164904249Y-82420341D01*
X164904249Y-82420342D01*
X164826585Y-82498005D01*
X164772071Y-82525781D01*
X164756584Y-82527000D01*
X160650406Y-82527000D01*
X160592215Y-82508093D01*
X160571229Y-82482652D01*
X160569033Y-82484191D01*
X160564067Y-82477099D01*
X160564065Y-82477097D01*
X160564065Y-82477096D01*
X160480404Y-82393435D01*
X160480402Y-82393434D01*
X160480401Y-82393433D01*
X160373175Y-82343432D01*
X160340601Y-82339144D01*
X160324316Y-82337000D01*
X159875684Y-82337000D01*
X159859398Y-82339144D01*
X159826825Y-82343432D01*
X159826824Y-82343432D01*
X159719598Y-82393433D01*
X159635933Y-82477098D01*
X159585932Y-82584324D01*
X159585932Y-82584325D01*
X159585932Y-82584327D01*
X159579500Y-82633184D01*
X159579500Y-82981816D01*
X159581642Y-82998087D01*
X159585932Y-83030674D01*
X159585932Y-83030675D01*
X159635933Y-83137901D01*
X159635934Y-83137902D01*
X159635935Y-83137904D01*
X159719596Y-83221565D01*
X159719597Y-83221565D01*
X159719598Y-83221566D01*
X159732915Y-83227776D01*
X159777663Y-83269505D01*
X159789337Y-83329566D01*
X159763478Y-83385018D01*
X159732915Y-83407224D01*
X159719598Y-83413433D01*
X159635933Y-83497098D01*
X159585932Y-83604324D01*
X159585932Y-83604325D01*
X159579500Y-83653185D01*
X159579500Y-84001814D01*
X159585932Y-84050674D01*
X159585932Y-84050675D01*
X159635933Y-84157901D01*
X159635934Y-84157902D01*
X159635935Y-84157904D01*
X159719596Y-84241565D01*
X159719597Y-84241565D01*
X159719598Y-84241566D01*
X159826824Y-84291567D01*
X159826825Y-84291567D01*
X159826827Y-84291568D01*
X159875684Y-84298000D01*
X159875685Y-84298000D01*
X160324314Y-84298000D01*
X160324316Y-84298000D01*
X160373173Y-84291568D01*
X160480404Y-84241565D01*
X160564065Y-84157904D01*
X160564067Y-84157900D01*
X160569033Y-84150809D01*
X160572069Y-84152934D01*
X160602467Y-84120381D01*
X160650406Y-84108000D01*
X160960306Y-84108000D01*
X161018497Y-84126907D01*
X161030310Y-84136996D01*
X161753809Y-84860496D01*
X161781586Y-84915013D01*
X161772015Y-84975445D01*
X161728750Y-85018710D01*
X161683805Y-85029500D01*
X161625252Y-85029500D01*
X161625251Y-85029500D01*
X161625241Y-85029501D01*
X161566772Y-85041132D01*
X161566766Y-85041134D01*
X161500451Y-85085445D01*
X161500445Y-85085451D01*
X161456134Y-85151766D01*
X161456132Y-85151772D01*
X161444501Y-85210241D01*
X161444500Y-85210253D01*
X161444500Y-86249746D01*
X161444501Y-86249758D01*
X161456132Y-86308227D01*
X161456134Y-86308233D01*
X161483312Y-86348907D01*
X161500448Y-86374552D01*
X161566769Y-86418867D01*
X161611231Y-86427711D01*
X161625241Y-86430498D01*
X161625246Y-86430498D01*
X161625252Y-86430500D01*
X161625253Y-86430500D01*
X164414747Y-86430500D01*
X164414748Y-86430500D01*
X164473231Y-86418867D01*
X164539552Y-86374552D01*
X164583867Y-86308231D01*
X164595500Y-86249748D01*
X164595500Y-86109500D01*
X164614407Y-86051309D01*
X164663907Y-86015345D01*
X164694500Y-86010500D01*
X167105500Y-86010500D01*
X167163691Y-86029407D01*
X167199655Y-86078907D01*
X167204500Y-86109500D01*
X167204500Y-86249746D01*
X167204501Y-86249758D01*
X167216132Y-86308227D01*
X167216134Y-86308233D01*
X167243312Y-86348907D01*
X167260448Y-86374552D01*
X167326769Y-86418867D01*
X167371231Y-86427711D01*
X167385241Y-86430498D01*
X167385246Y-86430498D01*
X167385252Y-86430500D01*
X169042806Y-86430500D01*
X169100997Y-86449407D01*
X169112809Y-86459495D01*
X169728331Y-87075018D01*
X170343043Y-87689730D01*
X170343044Y-87689731D01*
X170343043Y-87689731D01*
X170375993Y-87722680D01*
X170395269Y-87741956D01*
X170459231Y-87778884D01*
X170530572Y-87798000D01*
X170604429Y-87798000D01*
X171269594Y-87798000D01*
X171327785Y-87816907D01*
X171348770Y-87842347D01*
X171350967Y-87840809D01*
X171355932Y-87847900D01*
X171355934Y-87847902D01*
X171355935Y-87847904D01*
X171439596Y-87931565D01*
X171482339Y-87951496D01*
X171527087Y-87993223D01*
X171539500Y-88041220D01*
X171539500Y-89514069D01*
X171520593Y-89572260D01*
X171471093Y-89608224D01*
X171409907Y-89608224D01*
X171360407Y-89572260D01*
X171344873Y-89539692D01*
X171319799Y-89446114D01*
X171319797Y-89446111D01*
X171319797Y-89446109D01*
X171260492Y-89343391D01*
X171260490Y-89343389D01*
X171260489Y-89343387D01*
X171176613Y-89259511D01*
X171176610Y-89259509D01*
X171176608Y-89259507D01*
X171073889Y-89200202D01*
X171073890Y-89200202D01*
X171050046Y-89193813D01*
X170959309Y-89169500D01*
X170840691Y-89169500D01*
X170770567Y-89188289D01*
X170726109Y-89200202D01*
X170623391Y-89259507D01*
X170539508Y-89343390D01*
X170535560Y-89348536D01*
X170534244Y-89347526D01*
X170494758Y-89383074D01*
X170433907Y-89389463D01*
X170380922Y-89358865D01*
X170356041Y-89302967D01*
X170355500Y-89292629D01*
X170355500Y-89210253D01*
X170355498Y-89210241D01*
X170347394Y-89169500D01*
X170343867Y-89151769D01*
X170299552Y-89085448D01*
X170299548Y-89085445D01*
X170233233Y-89041134D01*
X170233231Y-89041133D01*
X170233228Y-89041132D01*
X170233227Y-89041132D01*
X170174758Y-89029501D01*
X170174748Y-89029500D01*
X167385252Y-89029500D01*
X167385251Y-89029500D01*
X167385241Y-89029501D01*
X167326772Y-89041132D01*
X167326766Y-89041134D01*
X167260451Y-89085445D01*
X167260445Y-89085451D01*
X167216134Y-89151766D01*
X167216132Y-89151772D01*
X167204501Y-89210241D01*
X167204500Y-89210253D01*
X167204500Y-89350500D01*
X167185593Y-89408691D01*
X167136093Y-89444655D01*
X167105500Y-89449500D01*
X164694500Y-89449500D01*
X164636309Y-89430593D01*
X164600345Y-89381093D01*
X164595500Y-89350500D01*
X164595500Y-89210253D01*
X164595498Y-89210241D01*
X164587394Y-89169500D01*
X164583867Y-89151769D01*
X164539552Y-89085448D01*
X164539548Y-89085445D01*
X164473233Y-89041134D01*
X164473231Y-89041133D01*
X164473228Y-89041132D01*
X164473227Y-89041132D01*
X164414758Y-89029501D01*
X164414748Y-89029500D01*
X161625252Y-89029500D01*
X161625251Y-89029500D01*
X161625241Y-89029501D01*
X161566772Y-89041132D01*
X161566766Y-89041134D01*
X161500451Y-89085445D01*
X161500445Y-89085451D01*
X161456134Y-89151766D01*
X161456132Y-89151772D01*
X161444501Y-89210241D01*
X161444500Y-89210253D01*
X161444500Y-90249746D01*
X161444501Y-90249758D01*
X161456132Y-90308227D01*
X161456134Y-90308233D01*
X161500246Y-90374250D01*
X161500448Y-90374552D01*
X161566769Y-90418867D01*
X161611231Y-90427711D01*
X161625241Y-90430498D01*
X161625246Y-90430498D01*
X161625252Y-90430500D01*
X162640500Y-90430500D01*
X162698691Y-90449407D01*
X162734655Y-90498907D01*
X162739500Y-90529500D01*
X162739500Y-92506928D01*
X162758616Y-92578269D01*
X162795544Y-92642231D01*
X162847769Y-92694456D01*
X162847771Y-92694457D01*
X163560504Y-93407190D01*
X163588281Y-93461707D01*
X163589500Y-93477194D01*
X163589500Y-93734316D01*
X163592881Y-93760000D01*
X163595932Y-93783174D01*
X163595932Y-93783175D01*
X163645933Y-93890401D01*
X163645934Y-93890402D01*
X163645935Y-93890404D01*
X163729596Y-93974065D01*
X163729597Y-93974065D01*
X163729598Y-93974066D01*
X163836824Y-94024067D01*
X163836825Y-94024067D01*
X163836827Y-94024068D01*
X163885684Y-94030500D01*
X163885685Y-94030500D01*
X164234314Y-94030500D01*
X164234316Y-94030500D01*
X164283173Y-94024068D01*
X164294859Y-94018618D01*
X164355584Y-94011160D01*
X164409099Y-94040821D01*
X164421912Y-94057947D01*
X164439263Y-94087287D01*
X164552714Y-94200738D01*
X164690804Y-94282404D01*
X164829999Y-94322844D01*
X164830000Y-94322844D01*
X164830000Y-93760001D01*
X165330000Y-93760001D01*
X165330000Y-94322844D01*
X165469195Y-94282404D01*
X165469196Y-94282404D01*
X165607285Y-94200738D01*
X165720738Y-94087285D01*
X165802404Y-93949196D01*
X165802404Y-93949195D01*
X165847165Y-93795127D01*
X165847167Y-93795121D01*
X165849930Y-93760000D01*
X165330001Y-93760000D01*
X165330000Y-93760001D01*
X164830000Y-93760001D01*
X164830000Y-93259999D01*
X165330000Y-93259999D01*
X165330001Y-93260000D01*
X165849930Y-93260000D01*
X165849930Y-93259999D01*
X165847167Y-93224878D01*
X165847165Y-93224872D01*
X165802404Y-93070804D01*
X165802404Y-93070803D01*
X165720738Y-92932714D01*
X165607285Y-92819261D01*
X165469196Y-92737595D01*
X165469194Y-92737594D01*
X165330000Y-92697154D01*
X165330000Y-93259999D01*
X164830000Y-93259999D01*
X164830000Y-92697154D01*
X164690805Y-92737594D01*
X164690803Y-92737595D01*
X164552714Y-92819261D01*
X164439261Y-92932714D01*
X164421911Y-92962052D01*
X164376015Y-93002514D01*
X164315101Y-93008272D01*
X164294861Y-93001381D01*
X164283182Y-92995935D01*
X164283175Y-92995933D01*
X164283173Y-92995932D01*
X164234316Y-92989500D01*
X164234315Y-92989500D01*
X163977194Y-92989500D01*
X163919003Y-92970593D01*
X163907190Y-92960504D01*
X163329496Y-92382810D01*
X163301719Y-92328293D01*
X163300500Y-92312806D01*
X163300500Y-90529500D01*
X163319407Y-90471309D01*
X163368907Y-90435345D01*
X163399500Y-90430500D01*
X164414747Y-90430500D01*
X164414748Y-90430500D01*
X164473231Y-90418867D01*
X164539552Y-90374552D01*
X164583867Y-90308231D01*
X164595500Y-90249748D01*
X164595500Y-90109500D01*
X164614407Y-90051309D01*
X164663907Y-90015345D01*
X164694500Y-90010500D01*
X167105500Y-90010500D01*
X167163691Y-90029407D01*
X167199655Y-90078907D01*
X167204500Y-90109500D01*
X167204500Y-90249746D01*
X167204501Y-90249758D01*
X167216132Y-90308227D01*
X167216134Y-90308233D01*
X167260246Y-90374250D01*
X167260448Y-90374552D01*
X167326769Y-90418867D01*
X167371231Y-90427711D01*
X167385241Y-90430498D01*
X167385246Y-90430498D01*
X167385252Y-90430500D01*
X167385253Y-90430500D01*
X170174747Y-90430500D01*
X170174748Y-90430500D01*
X170233231Y-90418867D01*
X170299552Y-90374552D01*
X170343867Y-90308231D01*
X170355500Y-90249748D01*
X170355500Y-90109500D01*
X170360345Y-90094588D01*
X170360345Y-90078907D01*
X170369561Y-90066221D01*
X170374407Y-90051309D01*
X170387092Y-90042092D01*
X170396309Y-90029407D01*
X170411221Y-90024561D01*
X170423907Y-90015345D01*
X170454500Y-90010500D01*
X170648840Y-90010500D01*
X170698340Y-90023763D01*
X170726114Y-90039799D01*
X170840691Y-90070500D01*
X170840693Y-90070500D01*
X170959308Y-90070500D01*
X170959309Y-90070500D01*
X170992430Y-90061625D01*
X171053530Y-90064826D01*
X171101080Y-90103330D01*
X171116917Y-90162431D01*
X171094992Y-90219552D01*
X171088057Y-90227254D01*
X170159809Y-91155504D01*
X170105292Y-91183282D01*
X170089805Y-91184501D01*
X168480254Y-91184501D01*
X168480253Y-91184501D01*
X168480243Y-91184502D01*
X168421774Y-91196133D01*
X168421768Y-91196135D01*
X168355453Y-91240446D01*
X168355447Y-91240452D01*
X168311136Y-91306767D01*
X168311134Y-91306773D01*
X168299503Y-91365242D01*
X168299502Y-91365254D01*
X168299502Y-92847807D01*
X168280595Y-92905998D01*
X168270506Y-92917811D01*
X164587813Y-96600504D01*
X164580695Y-96604130D01*
X164576000Y-96610593D01*
X164553951Y-96617756D01*
X164533296Y-96628281D01*
X164517809Y-96629500D01*
X164450406Y-96629500D01*
X164392215Y-96610593D01*
X164371229Y-96585152D01*
X164369033Y-96586691D01*
X164364067Y-96579599D01*
X164364065Y-96579597D01*
X164364065Y-96579596D01*
X164280404Y-96495935D01*
X164267085Y-96489724D01*
X164222337Y-96447997D01*
X164210662Y-96387936D01*
X164236519Y-96332483D01*
X164267084Y-96310275D01*
X164280404Y-96304065D01*
X164364065Y-96220404D01*
X164414068Y-96113173D01*
X164420500Y-96064316D01*
X164420500Y-95715684D01*
X164414068Y-95666827D01*
X164364065Y-95559596D01*
X164280404Y-95475935D01*
X164280402Y-95475934D01*
X164280401Y-95475933D01*
X164215839Y-95445827D01*
X164171091Y-95404098D01*
X164162053Y-95381729D01*
X164161384Y-95379231D01*
X164124456Y-95315269D01*
X164102403Y-95293216D01*
X164072231Y-95263043D01*
X164072231Y-95263044D01*
X164072230Y-95263043D01*
X163344075Y-94534889D01*
X163340707Y-94531521D01*
X163340706Y-94531519D01*
X163288481Y-94479294D01*
X163248791Y-94456379D01*
X163242451Y-94451155D01*
X163241212Y-94449211D01*
X163235402Y-94444753D01*
X162875496Y-94084846D01*
X162847719Y-94030330D01*
X162846500Y-94014843D01*
X162846500Y-93107071D01*
X162840703Y-93085438D01*
X162839114Y-93079509D01*
X162827384Y-93035731D01*
X162790456Y-92971769D01*
X161086457Y-91267771D01*
X161086456Y-91267769D01*
X161034231Y-91215544D01*
X160970269Y-91178616D01*
X160970266Y-91178615D01*
X160953305Y-91174070D01*
X160898931Y-91159500D01*
X160898929Y-91159500D01*
X160898928Y-91159500D01*
X159443939Y-91159500D01*
X159385748Y-91140593D01*
X159349784Y-91091093D01*
X159346158Y-91075987D01*
X159342451Y-91052580D01*
X159282158Y-90934249D01*
X159188251Y-90840342D01*
X159171528Y-90831821D01*
X159069923Y-90780050D01*
X159069920Y-90780049D01*
X159045376Y-90776161D01*
X158971749Y-90764500D01*
X158971746Y-90764500D01*
X158468254Y-90764500D01*
X158468251Y-90764500D01*
X158370080Y-90780049D01*
X158370076Y-90780050D01*
X158251750Y-90840341D01*
X158157841Y-90934250D01*
X158097550Y-91052576D01*
X158097549Y-91052580D01*
X158082000Y-91150751D01*
X158082000Y-91729250D01*
X158082305Y-91733128D01*
X158080544Y-91733266D01*
X158076821Y-91756680D01*
X158072011Y-91787053D01*
X158071988Y-91787075D01*
X158071984Y-91787106D01*
X158050339Y-91808724D01*
X158028747Y-91830318D01*
X158028716Y-91830322D01*
X158028694Y-91830345D01*
X157998260Y-91835146D01*
X157968315Y-91839889D01*
X157968287Y-91839875D01*
X157968256Y-91839880D01*
X157913798Y-91812111D01*
X157811996Y-91710308D01*
X157784219Y-91655792D01*
X157783000Y-91640305D01*
X157783000Y-91150751D01*
X157775394Y-91102731D01*
X157767451Y-91052580D01*
X157707158Y-90934249D01*
X157613251Y-90840342D01*
X157596528Y-90831821D01*
X157494923Y-90780050D01*
X157494920Y-90780049D01*
X157470376Y-90776161D01*
X157396749Y-90764500D01*
X157396746Y-90764500D01*
X156893254Y-90764500D01*
X156893251Y-90764500D01*
X156795080Y-90780049D01*
X156795076Y-90780050D01*
X156676750Y-90840341D01*
X156582841Y-90934250D01*
X156522550Y-91052576D01*
X156522549Y-91052580D01*
X156507000Y-91150751D01*
X156507000Y-91729248D01*
X156522549Y-91827419D01*
X156522550Y-91827423D01*
X156528902Y-91839889D01*
X156582842Y-91945751D01*
X156676749Y-92039658D01*
X156795080Y-92099951D01*
X156859652Y-92110178D01*
X156893251Y-92115500D01*
X157382806Y-92115500D01*
X157440997Y-92134407D01*
X157452809Y-92144496D01*
X157780503Y-92472189D01*
X157808281Y-92526706D01*
X157809500Y-92542193D01*
X157809500Y-93042388D01*
X157790593Y-93100579D01*
X157780504Y-93112391D01*
X157729511Y-93163383D01*
X157729507Y-93163389D01*
X157670202Y-93266107D01*
X157657689Y-93312808D01*
X157649188Y-93344535D01*
X157639500Y-93380690D01*
X157639500Y-93499306D01*
X157646351Y-93524876D01*
X157643148Y-93585978D01*
X157604642Y-93633527D01*
X157550724Y-93649498D01*
X156864500Y-93649498D01*
X156806309Y-93630591D01*
X156770345Y-93581091D01*
X156765500Y-93550498D01*
X156765500Y-93410253D01*
X156765498Y-93410241D01*
X156759620Y-93380690D01*
X156753867Y-93351769D01*
X156709552Y-93285448D01*
X156682105Y-93267108D01*
X156643233Y-93241134D01*
X156643231Y-93241133D01*
X156643228Y-93241132D01*
X156643227Y-93241132D01*
X156584758Y-93229501D01*
X156584748Y-93229500D01*
X153795252Y-93229500D01*
X153795251Y-93229500D01*
X153795241Y-93229501D01*
X153736772Y-93241132D01*
X153736766Y-93241134D01*
X153670451Y-93285445D01*
X153670445Y-93285451D01*
X153626134Y-93351766D01*
X153626132Y-93351772D01*
X153614501Y-93410241D01*
X153614500Y-93410253D01*
X153614500Y-94449746D01*
X153614501Y-94449758D01*
X153626132Y-94508227D01*
X153626134Y-94508233D01*
X153670445Y-94574548D01*
X153670448Y-94574552D01*
X153736769Y-94618867D01*
X153781231Y-94627711D01*
X153795241Y-94630498D01*
X153795246Y-94630498D01*
X153795252Y-94630500D01*
X153795253Y-94630500D01*
X156584747Y-94630500D01*
X156584748Y-94630500D01*
X156643231Y-94618867D01*
X156709552Y-94574552D01*
X156753867Y-94508231D01*
X156765500Y-94449748D01*
X156765500Y-94309498D01*
X156784407Y-94251307D01*
X156833907Y-94215343D01*
X156864500Y-94210498D01*
X159275500Y-94210498D01*
X159333691Y-94229405D01*
X159369655Y-94278905D01*
X159374500Y-94309498D01*
X159374500Y-94449746D01*
X159374501Y-94449758D01*
X159386132Y-94508227D01*
X159386134Y-94508233D01*
X159430445Y-94574548D01*
X159430448Y-94574552D01*
X159496769Y-94618867D01*
X159541231Y-94627711D01*
X159555241Y-94630498D01*
X159555246Y-94630498D01*
X159555252Y-94630500D01*
X162132806Y-94630500D01*
X162190997Y-94649407D01*
X162202810Y-94659496D01*
X162649504Y-95106190D01*
X162677281Y-95160707D01*
X162678500Y-95176194D01*
X162678500Y-96408428D01*
X162697616Y-96479769D01*
X162734544Y-96543731D01*
X162786769Y-96595956D01*
X162786771Y-96595957D01*
X163273042Y-97082228D01*
X163273044Y-97082231D01*
X163325269Y-97134456D01*
X163379755Y-97165913D01*
X163379754Y-97165915D01*
X163379773Y-97165923D01*
X163382090Y-97167261D01*
X163422289Y-97211142D01*
X163435933Y-97240401D01*
X163435934Y-97240402D01*
X163435935Y-97240404D01*
X163519596Y-97324065D01*
X163562339Y-97343996D01*
X163607087Y-97385723D01*
X163619500Y-97433720D01*
X163619500Y-102641928D01*
X163638616Y-102713269D01*
X163675544Y-102777231D01*
X163727769Y-102829456D01*
X163727771Y-102829457D01*
X167385504Y-106487190D01*
X167413281Y-106541707D01*
X167414500Y-106557194D01*
X167414500Y-107053489D01*
X167417633Y-107073267D01*
X167426508Y-107129307D01*
X167430281Y-107153125D01*
X167430283Y-107153132D01*
X167491470Y-107273217D01*
X167491472Y-107273220D01*
X167586780Y-107368528D01*
X167586782Y-107368529D01*
X167706867Y-107429716D01*
X167706869Y-107429716D01*
X167706874Y-107429719D01*
X167782541Y-107441703D01*
X167806510Y-107445500D01*
X167806512Y-107445500D01*
X168373490Y-107445500D01*
X168394885Y-107442111D01*
X168473126Y-107429719D01*
X168593220Y-107368528D01*
X168688528Y-107273220D01*
X168708259Y-107234494D01*
X168751522Y-107191231D01*
X168811954Y-107181659D01*
X168866471Y-107209436D01*
X168889033Y-107248342D01*
X168889407Y-107248178D01*
X168890903Y-107251566D01*
X168891996Y-107253451D01*
X168892414Y-107254989D01*
X168892415Y-107254991D01*
X168937794Y-107357765D01*
X169017235Y-107437206D01*
X169120009Y-107482585D01*
X169145135Y-107485500D01*
X170509864Y-107485499D01*
X170534991Y-107482585D01*
X170637765Y-107437206D01*
X170658931Y-107416039D01*
X170713445Y-107388262D01*
X170773877Y-107397833D01*
X170798934Y-107416036D01*
X170813387Y-107430489D01*
X170813389Y-107430490D01*
X170813391Y-107430492D01*
X170916110Y-107489797D01*
X170916111Y-107489797D01*
X170916114Y-107489799D01*
X171030691Y-107520500D01*
X171030693Y-107520500D01*
X171149307Y-107520500D01*
X171149309Y-107520500D01*
X171263886Y-107489799D01*
X171263888Y-107489797D01*
X171263890Y-107489797D01*
X171366608Y-107430492D01*
X171366608Y-107430491D01*
X171366613Y-107430489D01*
X171450489Y-107346613D01*
X171477805Y-107299301D01*
X171509797Y-107243890D01*
X171509797Y-107243888D01*
X171509799Y-107243886D01*
X171540500Y-107129309D01*
X171540500Y-107010691D01*
X171509799Y-106896114D01*
X171509797Y-106896111D01*
X171509797Y-106896109D01*
X171450492Y-106793391D01*
X171450490Y-106793389D01*
X171450489Y-106793387D01*
X171391722Y-106734620D01*
X171390495Y-106732212D01*
X171388154Y-106730860D01*
X171376717Y-106705170D01*
X171363947Y-106680106D01*
X171364370Y-106677434D01*
X171363270Y-106674963D01*
X171369117Y-106647458D01*
X171369262Y-106646542D01*
X171928200Y-106646542D01*
X171928200Y-106793457D01*
X171930088Y-106802949D01*
X171952378Y-106915011D01*
X171956860Y-106937541D01*
X171956860Y-106937543D01*
X172013078Y-107073266D01*
X172013078Y-107073267D01*
X172050525Y-107129309D01*
X172094699Y-107195420D01*
X172198580Y-107299301D01*
X172320731Y-107380920D01*
X172456458Y-107437140D01*
X172600545Y-107465800D01*
X172600547Y-107465800D01*
X172747453Y-107465800D01*
X172747455Y-107465800D01*
X172891542Y-107437140D01*
X173027269Y-107380920D01*
X173149420Y-107299301D01*
X173253301Y-107195420D01*
X173334920Y-107073269D01*
X173391140Y-106937542D01*
X173419800Y-106793455D01*
X173419800Y-106646545D01*
X173391140Y-106502458D01*
X173334921Y-106366733D01*
X173334921Y-106366732D01*
X173314585Y-106336298D01*
X173253301Y-106244580D01*
X173149420Y-106140699D01*
X173027269Y-106059080D01*
X173027268Y-106059079D01*
X173027266Y-106059078D01*
X172891542Y-106002860D01*
X172747457Y-105974200D01*
X172747455Y-105974200D01*
X172600545Y-105974200D01*
X172600542Y-105974200D01*
X172456458Y-106002860D01*
X172456456Y-106002860D01*
X172320733Y-106059078D01*
X172320732Y-106059078D01*
X172198580Y-106140699D01*
X172198576Y-106140702D01*
X172094702Y-106244576D01*
X172094699Y-106244580D01*
X172013078Y-106366732D01*
X172013078Y-106366733D01*
X171956860Y-106502456D01*
X171956860Y-106502458D01*
X171928200Y-106646542D01*
X171369262Y-106646542D01*
X171373518Y-106619674D01*
X171375974Y-106615150D01*
X171399799Y-106573886D01*
X171430500Y-106459309D01*
X171430500Y-106340691D01*
X171399799Y-106226114D01*
X171399797Y-106226111D01*
X171399797Y-106226109D01*
X171340492Y-106123391D01*
X171340490Y-106123389D01*
X171340489Y-106123387D01*
X171256613Y-106039511D01*
X171256610Y-106039509D01*
X171256608Y-106039507D01*
X171153889Y-105980202D01*
X171153890Y-105980202D01*
X171131490Y-105974200D01*
X171039309Y-105949500D01*
X170920691Y-105949500D01*
X170905065Y-105953686D01*
X170890121Y-105957691D01*
X170862041Y-105956219D01*
X170833906Y-105956219D01*
X170831718Y-105954629D01*
X170829020Y-105954488D01*
X170807172Y-105936795D01*
X170784406Y-105920255D01*
X170783570Y-105917682D01*
X170781470Y-105915982D01*
X170765499Y-105862066D01*
X170765499Y-105809521D01*
X170784406Y-105751332D01*
X170804232Y-105730981D01*
X170892920Y-105662928D01*
X170892929Y-105662919D01*
X170989098Y-105537589D01*
X170989100Y-105537585D01*
X171049555Y-105391632D01*
X171057011Y-105335000D01*
X169170001Y-105335000D01*
X169153555Y-105351445D01*
X169151093Y-105359024D01*
X169122323Y-105385491D01*
X169116844Y-105388812D01*
X169017235Y-105432794D01*
X168975571Y-105474457D01*
X168965344Y-105480658D01*
X168946630Y-105485056D01*
X168929507Y-105493781D01*
X168914021Y-105495000D01*
X167227695Y-105495000D01*
X167169504Y-105476093D01*
X167157691Y-105466004D01*
X166663363Y-104971676D01*
X167115000Y-104971676D01*
X167115000Y-104994999D01*
X167115001Y-104995000D01*
X167839999Y-104995000D01*
X167840000Y-104994999D01*
X167840000Y-104294999D01*
X167791679Y-104295000D01*
X167791676Y-104295001D01*
X167692402Y-104305142D01*
X167692390Y-104305145D01*
X167531512Y-104358454D01*
X167387270Y-104447425D01*
X167267425Y-104567270D01*
X167178454Y-104711512D01*
X167125143Y-104872396D01*
X167115000Y-104971676D01*
X166663363Y-104971676D01*
X164209496Y-102517809D01*
X164181719Y-102463292D01*
X164180500Y-102447805D01*
X164180500Y-97433720D01*
X164199407Y-97375529D01*
X164237659Y-97343997D01*
X164280404Y-97324065D01*
X164364065Y-97240404D01*
X164364067Y-97240400D01*
X164369033Y-97233309D01*
X164372069Y-97235434D01*
X164402467Y-97202881D01*
X164450406Y-97190500D01*
X164711933Y-97190500D01*
X164711933Y-97190499D01*
X164783272Y-97171384D01*
X164792748Y-97165913D01*
X164847234Y-97134456D01*
X164899459Y-97082231D01*
X164899460Y-97082228D01*
X168052843Y-93928845D01*
X168107359Y-93901069D01*
X168167791Y-93910640D01*
X168211056Y-93953905D01*
X168220627Y-94014337D01*
X168202941Y-94057038D01*
X168195378Y-94067447D01*
X168098906Y-94256785D01*
X168033242Y-94458879D01*
X168000002Y-94668750D01*
X168000002Y-94881251D01*
X168033242Y-95091122D01*
X168098906Y-95293216D01*
X168195378Y-95482554D01*
X168195382Y-95482560D01*
X168234730Y-95536717D01*
X168234731Y-95536717D01*
X168867039Y-94904409D01*
X168884077Y-94967994D01*
X168949903Y-95082008D01*
X169042995Y-95175100D01*
X169157009Y-95240926D01*
X169220591Y-95257963D01*
X168588284Y-95890270D01*
X168588284Y-95890271D01*
X168642442Y-95929620D01*
X168642448Y-95929624D01*
X168831786Y-96026096D01*
X169033880Y-96091760D01*
X169243752Y-96125001D01*
X169456252Y-96125001D01*
X169666123Y-96091760D01*
X169868217Y-96026096D01*
X170057558Y-95929621D01*
X170111718Y-95890271D01*
X169479410Y-95257963D01*
X169542995Y-95240926D01*
X169657009Y-95175100D01*
X169750101Y-95082008D01*
X169815927Y-94967994D01*
X169832964Y-94904409D01*
X170465272Y-95536717D01*
X170504622Y-95482557D01*
X170601097Y-95293216D01*
X170666761Y-95091122D01*
X170675361Y-95036824D01*
X170703138Y-94982308D01*
X170757655Y-94954530D01*
X170818087Y-94964101D01*
X170861351Y-95007366D01*
X170870240Y-95032997D01*
X170879871Y-95081419D01*
X170959060Y-95272598D01*
X171046925Y-95404098D01*
X171074025Y-95444656D01*
X171220347Y-95590978D01*
X171392404Y-95705942D01*
X171583582Y-95785131D01*
X171786537Y-95825501D01*
X171786538Y-95825501D01*
X171993466Y-95825501D01*
X171993467Y-95825501D01*
X172196422Y-95785131D01*
X172387600Y-95705942D01*
X172559657Y-95590978D01*
X172705979Y-95444656D01*
X172820943Y-95272599D01*
X172900132Y-95081421D01*
X172940502Y-94878466D01*
X172940502Y-94671536D01*
X172900132Y-94468581D01*
X172820943Y-94277403D01*
X172705979Y-94105346D01*
X172559657Y-93959024D01*
X172559653Y-93959021D01*
X172387599Y-93844059D01*
X172196420Y-93764870D01*
X171993469Y-93724501D01*
X171993467Y-93724501D01*
X171786537Y-93724501D01*
X171786534Y-93724501D01*
X171583583Y-93764870D01*
X171392404Y-93844059D01*
X171220350Y-93959021D01*
X171074022Y-94105349D01*
X170959060Y-94277403D01*
X170879871Y-94468582D01*
X170870240Y-94517004D01*
X170840343Y-94570388D01*
X170784778Y-94596004D01*
X170724768Y-94584067D01*
X170683236Y-94539137D01*
X170675361Y-94513177D01*
X170666761Y-94458879D01*
X170601097Y-94256785D01*
X170504625Y-94067447D01*
X170504621Y-94067441D01*
X170465272Y-94013283D01*
X170465271Y-94013283D01*
X169832964Y-94645590D01*
X169815927Y-94582008D01*
X169750101Y-94467994D01*
X169657009Y-94374902D01*
X169542995Y-94309076D01*
X169479410Y-94292038D01*
X170111718Y-93659730D01*
X170111718Y-93659729D01*
X170057561Y-93620381D01*
X170057555Y-93620377D01*
X169868217Y-93523905D01*
X169728953Y-93478656D01*
X169679453Y-93442692D01*
X169660546Y-93384501D01*
X169679453Y-93326310D01*
X169728953Y-93290346D01*
X169759546Y-93285501D01*
X170219749Y-93285501D01*
X170219750Y-93285501D01*
X170278233Y-93273868D01*
X170344554Y-93229553D01*
X170388869Y-93163232D01*
X170400502Y-93104749D01*
X170400502Y-92131533D01*
X170839502Y-92131533D01*
X170839502Y-92338468D01*
X170879871Y-92541419D01*
X170959060Y-92732598D01*
X171074022Y-92904652D01*
X171074025Y-92904656D01*
X171220347Y-93050978D01*
X171392404Y-93165942D01*
X171583582Y-93245131D01*
X171786537Y-93285501D01*
X171786538Y-93285501D01*
X171993466Y-93285501D01*
X171993467Y-93285501D01*
X172196422Y-93245131D01*
X172387600Y-93165942D01*
X172559657Y-93050978D01*
X172705979Y-92904656D01*
X172820943Y-92732599D01*
X172900132Y-92541421D01*
X172940502Y-92338466D01*
X172940502Y-92131536D01*
X172900132Y-91928581D01*
X172820943Y-91737403D01*
X172705979Y-91565346D01*
X172559657Y-91419024D01*
X172559653Y-91419021D01*
X172387599Y-91304059D01*
X172196420Y-91224870D01*
X171993469Y-91184501D01*
X171993467Y-91184501D01*
X171786537Y-91184501D01*
X171786534Y-91184501D01*
X171583583Y-91224870D01*
X171392404Y-91304059D01*
X171220350Y-91419021D01*
X171074022Y-91565349D01*
X170959060Y-91737403D01*
X170879871Y-91928582D01*
X170839502Y-92131533D01*
X170400502Y-92131533D01*
X170400502Y-91749192D01*
X170419409Y-91691001D01*
X170429498Y-91679188D01*
X171174437Y-90934249D01*
X172044456Y-90064231D01*
X172081384Y-90000269D01*
X172100500Y-89928929D01*
X172100500Y-89855071D01*
X172100500Y-88041220D01*
X172119407Y-87983029D01*
X172157659Y-87951497D01*
X172200404Y-87931565D01*
X172284065Y-87847904D01*
X172284067Y-87847900D01*
X172289033Y-87840809D01*
X172292069Y-87842934D01*
X172322467Y-87810381D01*
X172370406Y-87798000D01*
X172579430Y-87798000D01*
X172579430Y-87797999D01*
X172650765Y-87778885D01*
X172650766Y-87778885D01*
X172650766Y-87778884D01*
X172650769Y-87778884D01*
X172714731Y-87741956D01*
X172766956Y-87689731D01*
X172766956Y-87689729D01*
X172775106Y-87681580D01*
X172775108Y-87681577D01*
X174147192Y-86309496D01*
X174201708Y-86281719D01*
X174217195Y-86280500D01*
X175874747Y-86280500D01*
X175874748Y-86280500D01*
X175933231Y-86268867D01*
X175999552Y-86224552D01*
X176043867Y-86158231D01*
X176055500Y-86099748D01*
X176055500Y-85959500D01*
X176074407Y-85901309D01*
X176123907Y-85865345D01*
X176154500Y-85860500D01*
X178565500Y-85860500D01*
X178623691Y-85879407D01*
X178659655Y-85928907D01*
X178664500Y-85959500D01*
X178664500Y-86099746D01*
X178664501Y-86099758D01*
X178676132Y-86158227D01*
X178676134Y-86158233D01*
X178720445Y-86224548D01*
X178720448Y-86224552D01*
X178786769Y-86268867D01*
X178831231Y-86277711D01*
X178845241Y-86280498D01*
X178845246Y-86280498D01*
X178845252Y-86280500D01*
X178845253Y-86280500D01*
X181634747Y-86280500D01*
X181634748Y-86280500D01*
X181693231Y-86268867D01*
X181759552Y-86224552D01*
X181803867Y-86158231D01*
X181815500Y-86099748D01*
X181815500Y-85060252D01*
X181803867Y-85001769D01*
X181759552Y-84935448D01*
X181757213Y-84933885D01*
X181693233Y-84891134D01*
X181693231Y-84891133D01*
X181693228Y-84891132D01*
X181693227Y-84891132D01*
X181634758Y-84879501D01*
X181634748Y-84879500D01*
X181634747Y-84879500D01*
X181576193Y-84879500D01*
X181518002Y-84860593D01*
X181482038Y-84811093D01*
X181482038Y-84749907D01*
X181506189Y-84710497D01*
X181719495Y-84497190D01*
X181803228Y-84413457D01*
X181803231Y-84413456D01*
X181855456Y-84361231D01*
X181892384Y-84297269D01*
X181902499Y-84259520D01*
X181911500Y-84225929D01*
X181911500Y-84152071D01*
X181911500Y-82056572D01*
X181892384Y-81985231D01*
X181878682Y-81961499D01*
X181865961Y-81901652D01*
X181890847Y-81845756D01*
X181943835Y-81815163D01*
X181964419Y-81813000D01*
X182586516Y-81813000D01*
X182644707Y-81831907D01*
X182680671Y-81881407D01*
X182680671Y-81942593D01*
X182677685Y-81950492D01*
X182637155Y-82089999D01*
X182637156Y-82090000D01*
X183617792Y-82090000D01*
X183625389Y-82092468D01*
X183633279Y-82091219D01*
X183653934Y-82101743D01*
X183675983Y-82108907D01*
X183687796Y-82118996D01*
X183701504Y-82132704D01*
X183729281Y-82187221D01*
X183730500Y-82202708D01*
X183730500Y-82491000D01*
X183711593Y-82549191D01*
X183662093Y-82585155D01*
X183631500Y-82590000D01*
X182637155Y-82590000D01*
X182677595Y-82729195D01*
X182677595Y-82729196D01*
X182759261Y-82867285D01*
X182872712Y-82980736D01*
X182902051Y-82998087D01*
X182942514Y-83043983D01*
X182948272Y-83104897D01*
X182941382Y-83125136D01*
X182935935Y-83136817D01*
X182935932Y-83136825D01*
X182935932Y-83136827D01*
X182929500Y-83185684D01*
X182929500Y-83534316D01*
X182931170Y-83547000D01*
X182935932Y-83583174D01*
X182935932Y-83583175D01*
X182985933Y-83690401D01*
X182985934Y-83690402D01*
X182985935Y-83690404D01*
X183069596Y-83774065D01*
X183112339Y-83793996D01*
X183157087Y-83835723D01*
X183169500Y-83883720D01*
X183169500Y-85122805D01*
X183150593Y-85180996D01*
X183140504Y-85192809D01*
X182580716Y-85752597D01*
X182580714Y-85752599D01*
X182580713Y-85752598D01*
X182528491Y-85804821D01*
X182528489Y-85804823D01*
X182528489Y-85804824D01*
X182496345Y-85860500D01*
X182493953Y-85864643D01*
X182491561Y-85868785D01*
X182474443Y-85932672D01*
X182472445Y-85940128D01*
X182472445Y-86815750D01*
X182453538Y-86873941D01*
X182443449Y-86885754D01*
X182067771Y-87261432D01*
X182067769Y-87261434D01*
X182067768Y-87261433D01*
X182015543Y-87313659D01*
X182015542Y-87313661D01*
X181991719Y-87354925D01*
X181991717Y-87354927D01*
X181987557Y-87362135D01*
X181978616Y-87377621D01*
X181967762Y-87418130D01*
X181966558Y-87422620D01*
X181966557Y-87422625D01*
X181959500Y-87448961D01*
X181959500Y-88112805D01*
X181940593Y-88170996D01*
X181930504Y-88182809D01*
X181262810Y-88850504D01*
X181208293Y-88878281D01*
X181192806Y-88879500D01*
X178845252Y-88879500D01*
X178845251Y-88879500D01*
X178845241Y-88879501D01*
X178786772Y-88891132D01*
X178786766Y-88891134D01*
X178720451Y-88935445D01*
X178720445Y-88935451D01*
X178676134Y-89001766D01*
X178676132Y-89001772D01*
X178664501Y-89060241D01*
X178664500Y-89060253D01*
X178664500Y-89200500D01*
X178645593Y-89258691D01*
X178596093Y-89294655D01*
X178565500Y-89299500D01*
X176154500Y-89299500D01*
X176096309Y-89280593D01*
X176060345Y-89231093D01*
X176055500Y-89200500D01*
X176055500Y-89060253D01*
X176055498Y-89060241D01*
X176049383Y-89029500D01*
X176043867Y-89001769D01*
X175999552Y-88935448D01*
X175999548Y-88935445D01*
X175933233Y-88891134D01*
X175933231Y-88891133D01*
X175933228Y-88891132D01*
X175933227Y-88891132D01*
X175874758Y-88879501D01*
X175874748Y-88879500D01*
X173085252Y-88879500D01*
X173085251Y-88879500D01*
X173085241Y-88879501D01*
X173026772Y-88891132D01*
X173026766Y-88891134D01*
X172960451Y-88935445D01*
X172960445Y-88935451D01*
X172916134Y-89001766D01*
X172916132Y-89001772D01*
X172904501Y-89060241D01*
X172904500Y-89060253D01*
X172904500Y-90099746D01*
X172904501Y-90099758D01*
X172916132Y-90158227D01*
X172916134Y-90158233D01*
X172960445Y-90224548D01*
X172960448Y-90224552D01*
X173026769Y-90268867D01*
X173071231Y-90277711D01*
X173085241Y-90280498D01*
X173085246Y-90280498D01*
X173085252Y-90280500D01*
X174162746Y-90280500D01*
X174220937Y-90299407D01*
X174248481Y-90329998D01*
X174255544Y-90342231D01*
X174307769Y-90394456D01*
X174307771Y-90394457D01*
X175090116Y-91176802D01*
X175117893Y-91231319D01*
X175108322Y-91291751D01*
X175065057Y-91335016D01*
X175004625Y-91344587D01*
X174965111Y-91329122D01*
X174927600Y-91304058D01*
X174736421Y-91224869D01*
X174533470Y-91184500D01*
X174533468Y-91184500D01*
X174326538Y-91184500D01*
X174326535Y-91184500D01*
X174123584Y-91224869D01*
X173932405Y-91304058D01*
X173760351Y-91419020D01*
X173614023Y-91565348D01*
X173499061Y-91737402D01*
X173419872Y-91928581D01*
X173379503Y-92131532D01*
X173379503Y-92338467D01*
X173419872Y-92541418D01*
X173499061Y-92732597D01*
X173586598Y-92863606D01*
X173614026Y-92904655D01*
X173760348Y-93050977D01*
X173932405Y-93165941D01*
X174123583Y-93245130D01*
X174326538Y-93285500D01*
X174326539Y-93285500D01*
X174533467Y-93285500D01*
X174533468Y-93285500D01*
X174736423Y-93245130D01*
X174927601Y-93165941D01*
X175086500Y-93059768D01*
X175145387Y-93043161D01*
X175202790Y-93064339D01*
X175236783Y-93115213D01*
X175240500Y-93142085D01*
X175240500Y-93867916D01*
X175221593Y-93926107D01*
X175172093Y-93962071D01*
X175110907Y-93962071D01*
X175086499Y-93950232D01*
X174927599Y-93844059D01*
X174736420Y-93764870D01*
X174533469Y-93724501D01*
X174533467Y-93724501D01*
X174326537Y-93724501D01*
X174326534Y-93724501D01*
X174123583Y-93764870D01*
X173932404Y-93844059D01*
X173760350Y-93959021D01*
X173614022Y-94105349D01*
X173499060Y-94277403D01*
X173419871Y-94468582D01*
X173379502Y-94671533D01*
X173379502Y-94878468D01*
X173419871Y-95081419D01*
X173499060Y-95272598D01*
X173586925Y-95404098D01*
X173614025Y-95444656D01*
X173760347Y-95590978D01*
X173932404Y-95705942D01*
X174123582Y-95785131D01*
X174326537Y-95825501D01*
X174326538Y-95825501D01*
X174533466Y-95825501D01*
X174533467Y-95825501D01*
X174736422Y-95785131D01*
X174927600Y-95705942D01*
X175086499Y-95599770D01*
X175145387Y-95583161D01*
X175202790Y-95604339D01*
X175236783Y-95655212D01*
X175240500Y-95682085D01*
X175240500Y-96611805D01*
X175221593Y-96669996D01*
X175211504Y-96681809D01*
X174682513Y-97210801D01*
X174627996Y-97238578D01*
X174612509Y-97239797D01*
X173505271Y-97239797D01*
X173433937Y-97258911D01*
X173433936Y-97258911D01*
X173369969Y-97295843D01*
X169860308Y-100805504D01*
X169805791Y-100833281D01*
X169790304Y-100834500D01*
X169145139Y-100834500D01*
X169145136Y-100834501D01*
X169120009Y-100837414D01*
X169017235Y-100882794D01*
X168937794Y-100962235D01*
X168892414Y-101065011D01*
X168889500Y-101090130D01*
X168889500Y-101379859D01*
X168889501Y-101379864D01*
X168892414Y-101404990D01*
X168916437Y-101459397D01*
X168922525Y-101473185D01*
X168941500Y-101516157D01*
X168939126Y-101517205D01*
X168952537Y-101562757D01*
X168939477Y-101602949D01*
X168941500Y-101603843D01*
X168937794Y-101612234D01*
X168937794Y-101612235D01*
X168906369Y-101683406D01*
X168892414Y-101715011D01*
X168889500Y-101740130D01*
X168889500Y-102029859D01*
X168889501Y-102029864D01*
X168892414Y-102054990D01*
X168909652Y-102094030D01*
X168922231Y-102122519D01*
X168941500Y-102166157D01*
X168939126Y-102167205D01*
X168952537Y-102212757D01*
X168939477Y-102252949D01*
X168941500Y-102253843D01*
X168937794Y-102262234D01*
X168937794Y-102262235D01*
X168930699Y-102278304D01*
X168892414Y-102365011D01*
X168889500Y-102390130D01*
X168889500Y-102679859D01*
X168889501Y-102679864D01*
X168892414Y-102704990D01*
X168896070Y-102713269D01*
X168936441Y-102804701D01*
X168941500Y-102816157D01*
X168939126Y-102817205D01*
X168952537Y-102862757D01*
X168939477Y-102902949D01*
X168941500Y-102903843D01*
X168937794Y-102912234D01*
X168937794Y-102912235D01*
X168927695Y-102935108D01*
X168892414Y-103015011D01*
X168889500Y-103040130D01*
X168889500Y-103329859D01*
X168889501Y-103329864D01*
X168892414Y-103354990D01*
X168916437Y-103409397D01*
X168928815Y-103437430D01*
X168941500Y-103466157D01*
X168939126Y-103467205D01*
X168952537Y-103512757D01*
X168939477Y-103552949D01*
X168941500Y-103553843D01*
X168937794Y-103562234D01*
X168937794Y-103562235D01*
X168916793Y-103609799D01*
X168892414Y-103665011D01*
X168889500Y-103690130D01*
X168889500Y-103979859D01*
X168889501Y-103979864D01*
X168892414Y-104004990D01*
X168916437Y-104059397D01*
X168923662Y-104075760D01*
X168941500Y-104116157D01*
X168939126Y-104117205D01*
X168952537Y-104162757D01*
X168946485Y-104194187D01*
X168941037Y-104208991D01*
X168937794Y-104212235D01*
X168892415Y-104315009D01*
X168889500Y-104340135D01*
X168889500Y-104349055D01*
X168883916Y-104364231D01*
X168871930Y-104379461D01*
X168863857Y-104397079D01*
X168853458Y-104402933D01*
X168846077Y-104412313D01*
X168827428Y-104417589D01*
X168810542Y-104427097D01*
X168798687Y-104425721D01*
X168787203Y-104428971D01*
X168769015Y-104422278D01*
X168749764Y-104420045D01*
X168739033Y-104414304D01*
X168648487Y-104358454D01*
X168487603Y-104305143D01*
X168388323Y-104295000D01*
X168340001Y-104295000D01*
X168340000Y-104295001D01*
X168340000Y-104994999D01*
X168340001Y-104995000D01*
X168484999Y-104995000D01*
X168503770Y-104976228D01*
X168503907Y-104975809D01*
X168504941Y-104975057D01*
X168513996Y-104966003D01*
X168515430Y-104967437D01*
X168553407Y-104939845D01*
X168584000Y-104935000D01*
X171057011Y-104935000D01*
X171057011Y-104934999D01*
X171049556Y-104878372D01*
X171049554Y-104878364D01*
X170989100Y-104732414D01*
X170989098Y-104732410D01*
X170892929Y-104607080D01*
X170892923Y-104607074D01*
X170804231Y-104539018D01*
X170769576Y-104488593D01*
X170765499Y-104460476D01*
X170765499Y-104340139D01*
X170765499Y-104340136D01*
X170762585Y-104315009D01*
X170717206Y-104212235D01*
X170717205Y-104212234D01*
X170713500Y-104203843D01*
X170715875Y-104202794D01*
X170702462Y-104157261D01*
X170715526Y-104117051D01*
X170713500Y-104116157D01*
X170717204Y-104107766D01*
X170717206Y-104107765D01*
X170762585Y-104004991D01*
X170765500Y-103979865D01*
X170765499Y-103717216D01*
X170784406Y-103659027D01*
X170833906Y-103623063D01*
X170890122Y-103621591D01*
X170960691Y-103640500D01*
X170960692Y-103640500D01*
X171079307Y-103640500D01*
X171079309Y-103640500D01*
X171193886Y-103609799D01*
X171193888Y-103609797D01*
X171193890Y-103609797D01*
X171296608Y-103550492D01*
X171296608Y-103550491D01*
X171296613Y-103550489D01*
X171380489Y-103466613D01*
X171382367Y-103463360D01*
X171439797Y-103363890D01*
X171439797Y-103363888D01*
X171439799Y-103363886D01*
X171470500Y-103249309D01*
X171470500Y-103130691D01*
X171439799Y-103016114D01*
X171439797Y-103016111D01*
X171439797Y-103016109D01*
X171380492Y-102913391D01*
X171380490Y-102913389D01*
X171380489Y-102913387D01*
X171296613Y-102829511D01*
X171296610Y-102829509D01*
X171296608Y-102829507D01*
X171193889Y-102770202D01*
X171193890Y-102770202D01*
X171180351Y-102766574D01*
X171079309Y-102739500D01*
X170960691Y-102739500D01*
X170890122Y-102758409D01*
X170829020Y-102755206D01*
X170781470Y-102716701D01*
X170765499Y-102662785D01*
X170765499Y-102390136D01*
X170762585Y-102365009D01*
X170717206Y-102262235D01*
X170717205Y-102262234D01*
X170713500Y-102253843D01*
X170715875Y-102252794D01*
X170702462Y-102207261D01*
X170711550Y-102168484D01*
X170715896Y-102159074D01*
X170717206Y-102157765D01*
X170732444Y-102123251D01*
X170732783Y-102122519D01*
X170734154Y-102121037D01*
X170752652Y-102094034D01*
X170789456Y-102057231D01*
X170789456Y-102057230D01*
X170789459Y-102057228D01*
X170854237Y-101992449D01*
X170908753Y-101964671D01*
X170969185Y-101974242D01*
X171006554Y-102007448D01*
X171078699Y-102115420D01*
X171182580Y-102219301D01*
X171304731Y-102300920D01*
X171440458Y-102357140D01*
X171584545Y-102385800D01*
X171584547Y-102385800D01*
X171731453Y-102385800D01*
X171731455Y-102385800D01*
X171875542Y-102357140D01*
X172011269Y-102300920D01*
X172133420Y-102219301D01*
X172237301Y-102115420D01*
X172318920Y-101993269D01*
X172375140Y-101857542D01*
X172403800Y-101713455D01*
X172403800Y-101566545D01*
X172403799Y-101566542D01*
X172944200Y-101566542D01*
X172944200Y-101713457D01*
X172972860Y-101857541D01*
X172972860Y-101857543D01*
X173029078Y-101993266D01*
X173029078Y-101993267D01*
X173053532Y-102029864D01*
X173110699Y-102115420D01*
X173214580Y-102219301D01*
X173336731Y-102300920D01*
X173472458Y-102357140D01*
X173616545Y-102385800D01*
X173616547Y-102385800D01*
X173763453Y-102385800D01*
X173763455Y-102385800D01*
X173907542Y-102357140D01*
X174043269Y-102300920D01*
X174165420Y-102219301D01*
X174269301Y-102115420D01*
X174350920Y-101993269D01*
X174407140Y-101857542D01*
X174435800Y-101713455D01*
X174435800Y-101566545D01*
X174407140Y-101422458D01*
X174367088Y-101325764D01*
X174350921Y-101286733D01*
X174350921Y-101286732D01*
X174315496Y-101233716D01*
X174269301Y-101164580D01*
X174194851Y-101090130D01*
X174614500Y-101090130D01*
X174614500Y-101379859D01*
X174614501Y-101379864D01*
X174617414Y-101404990D01*
X174641437Y-101459397D01*
X174647525Y-101473185D01*
X174666500Y-101516157D01*
X174664126Y-101517205D01*
X174677537Y-101562757D01*
X174664477Y-101602949D01*
X174666500Y-101603843D01*
X174662794Y-101612234D01*
X174662794Y-101612235D01*
X174617415Y-101715009D01*
X174614500Y-101740135D01*
X174614500Y-101826063D01*
X174614500Y-101826066D01*
X174614500Y-102029859D01*
X174614501Y-102029864D01*
X174617414Y-102054990D01*
X174634652Y-102094030D01*
X174647231Y-102122519D01*
X174666500Y-102166157D01*
X174664126Y-102167205D01*
X174677537Y-102212757D01*
X174664477Y-102252949D01*
X174666500Y-102253843D01*
X174662794Y-102262234D01*
X174662794Y-102262235D01*
X174655699Y-102278304D01*
X174617414Y-102365011D01*
X174614500Y-102390130D01*
X174614500Y-102679859D01*
X174614501Y-102679864D01*
X174617414Y-102704990D01*
X174621070Y-102713269D01*
X174661441Y-102804701D01*
X174666500Y-102816157D01*
X174664126Y-102817205D01*
X174677537Y-102862757D01*
X174664477Y-102902949D01*
X174666500Y-102903843D01*
X174662794Y-102912234D01*
X174662794Y-102912235D01*
X174652695Y-102935108D01*
X174617414Y-103015011D01*
X174614500Y-103040130D01*
X174614500Y-103329859D01*
X174614501Y-103329864D01*
X174617414Y-103354990D01*
X174641437Y-103409397D01*
X174653815Y-103437430D01*
X174666500Y-103466157D01*
X174664126Y-103467205D01*
X174677537Y-103512757D01*
X174664477Y-103552949D01*
X174666500Y-103553843D01*
X174662794Y-103562234D01*
X174662794Y-103562235D01*
X174641793Y-103609799D01*
X174617414Y-103665011D01*
X174614500Y-103690130D01*
X174614500Y-103979859D01*
X174614501Y-103979864D01*
X174617414Y-104004990D01*
X174641437Y-104059397D01*
X174648662Y-104075760D01*
X174666500Y-104116157D01*
X174664126Y-104117205D01*
X174677537Y-104162757D01*
X174664477Y-104202949D01*
X174666500Y-104203843D01*
X174662794Y-104212234D01*
X174662794Y-104212235D01*
X174638741Y-104266711D01*
X174617414Y-104315011D01*
X174614500Y-104340130D01*
X174614500Y-104629859D01*
X174614501Y-104629864D01*
X174617414Y-104654990D01*
X174641437Y-104709397D01*
X174651600Y-104732414D01*
X174666500Y-104766157D01*
X174664126Y-104767205D01*
X174677537Y-104812757D01*
X174664477Y-104852949D01*
X174666500Y-104853843D01*
X174662794Y-104862234D01*
X174662794Y-104862235D01*
X174655669Y-104878372D01*
X174617414Y-104965011D01*
X174614500Y-104990130D01*
X174614500Y-105279859D01*
X174614501Y-105279864D01*
X174617414Y-105304990D01*
X174666500Y-105416157D01*
X174664126Y-105417205D01*
X174677537Y-105462757D01*
X174664477Y-105502949D01*
X174666500Y-105503843D01*
X174662794Y-105512234D01*
X174662794Y-105512235D01*
X174648286Y-105545093D01*
X174617414Y-105615011D01*
X174614500Y-105640130D01*
X174614500Y-105929859D01*
X174614501Y-105929864D01*
X174617414Y-105954990D01*
X174638551Y-106002860D01*
X174654732Y-106039507D01*
X174666500Y-106066157D01*
X174664126Y-106067205D01*
X174677537Y-106112757D01*
X174664477Y-106152949D01*
X174666500Y-106153843D01*
X174662794Y-106162234D01*
X174662794Y-106162235D01*
X174637149Y-106220315D01*
X174617414Y-106265011D01*
X174614500Y-106290130D01*
X174614500Y-106579859D01*
X174614501Y-106579864D01*
X174617414Y-106604990D01*
X174639059Y-106654010D01*
X174661648Y-106705170D01*
X174666500Y-106716157D01*
X174664126Y-106717205D01*
X174677537Y-106762757D01*
X174664477Y-106802949D01*
X174666500Y-106803843D01*
X174662794Y-106812234D01*
X174662794Y-106812235D01*
X174625760Y-106896109D01*
X174617414Y-106915011D01*
X174614500Y-106940130D01*
X174614500Y-107229859D01*
X174614501Y-107229864D01*
X174617414Y-107254990D01*
X174629952Y-107283385D01*
X174662794Y-107357765D01*
X174742235Y-107437206D01*
X174845009Y-107482585D01*
X174870135Y-107485500D01*
X176234864Y-107485499D01*
X176259991Y-107482585D01*
X176362765Y-107437206D01*
X176442206Y-107357765D01*
X176487585Y-107254991D01*
X176490500Y-107229865D01*
X176490499Y-106940136D01*
X176487585Y-106915009D01*
X176442206Y-106812235D01*
X176442205Y-106812234D01*
X176438500Y-106803843D01*
X176440875Y-106802794D01*
X176427462Y-106757261D01*
X176437143Y-106717222D01*
X176441184Y-106708786D01*
X176442206Y-106707765D01*
X176448452Y-106693618D01*
X176449096Y-106692275D01*
X176469197Y-106671166D01*
X176488610Y-106649471D01*
X176490181Y-106649131D01*
X176491291Y-106647967D01*
X176519946Y-106642708D01*
X176548418Y-106636564D01*
X176549889Y-106637213D01*
X176551472Y-106636923D01*
X176577741Y-106649509D01*
X176604391Y-106661275D01*
X176606540Y-106663308D01*
X176606650Y-106663361D01*
X176606706Y-106663465D01*
X176608380Y-106665049D01*
X176840503Y-106897171D01*
X176868281Y-106951688D01*
X176869500Y-106967175D01*
X176869500Y-107162390D01*
X176850593Y-107220581D01*
X176840504Y-107232393D01*
X176789511Y-107283385D01*
X176789507Y-107283391D01*
X176730202Y-107386109D01*
X176716511Y-107437205D01*
X176699500Y-107500691D01*
X176699500Y-107619309D01*
X176724247Y-107711665D01*
X176730202Y-107733890D01*
X176789507Y-107836608D01*
X176789509Y-107836610D01*
X176789511Y-107836613D01*
X176873387Y-107920489D01*
X176873389Y-107920490D01*
X176873391Y-107920492D01*
X176976110Y-107979797D01*
X176976111Y-107979797D01*
X176976114Y-107979799D01*
X177090691Y-108010500D01*
X177090693Y-108010500D01*
X177209307Y-108010500D01*
X177209309Y-108010500D01*
X177323886Y-107979799D01*
X177323888Y-107979797D01*
X177323890Y-107979797D01*
X177426608Y-107920492D01*
X177426608Y-107920491D01*
X177426613Y-107920489D01*
X177510489Y-107836613D01*
X177569799Y-107733886D01*
X177600500Y-107619309D01*
X177600500Y-107500691D01*
X177569799Y-107386114D01*
X177569797Y-107386111D01*
X177569797Y-107386109D01*
X177510492Y-107283391D01*
X177510488Y-107283385D01*
X177459496Y-107232393D01*
X177431719Y-107177876D01*
X177430500Y-107162390D01*
X177430500Y-106773053D01*
X177424778Y-106751702D01*
X177423046Y-106745237D01*
X177411384Y-106701713D01*
X177386987Y-106659456D01*
X177374456Y-106637751D01*
X177351820Y-106615115D01*
X177322231Y-106585525D01*
X177322231Y-106585526D01*
X176519495Y-105782790D01*
X176491718Y-105728273D01*
X176490499Y-105712786D01*
X176490499Y-105640139D01*
X176490499Y-105640136D01*
X176487585Y-105615009D01*
X176460861Y-105554486D01*
X176460333Y-105549306D01*
X176457272Y-105545093D01*
X176457272Y-105519288D01*
X176454654Y-105493619D01*
X176457272Y-105489116D01*
X176457272Y-105483907D01*
X176472441Y-105463027D01*
X176485410Y-105440725D01*
X176490173Y-105438621D01*
X176493236Y-105434407D01*
X176517779Y-105426432D01*
X176541382Y-105416011D01*
X176551427Y-105415500D01*
X176651846Y-105415500D01*
X176710037Y-105434407D01*
X176721849Y-105444495D01*
X176750813Y-105473459D01*
X176750815Y-105473460D01*
X176750816Y-105473461D01*
X176750817Y-105473462D01*
X176853536Y-105532767D01*
X176853537Y-105532767D01*
X176853540Y-105532769D01*
X176968117Y-105563470D01*
X176968119Y-105563470D01*
X177086733Y-105563470D01*
X177086735Y-105563470D01*
X177201312Y-105532769D01*
X177201314Y-105532767D01*
X177201316Y-105532767D01*
X177304034Y-105473462D01*
X177304034Y-105473461D01*
X177304039Y-105473459D01*
X177387915Y-105389583D01*
X177390850Y-105384500D01*
X177447223Y-105286860D01*
X177447223Y-105286858D01*
X177447225Y-105286856D01*
X177477926Y-105172279D01*
X177477926Y-105053661D01*
X177447225Y-104939084D01*
X177395868Y-104850133D01*
X177383147Y-104790285D01*
X177408033Y-104734390D01*
X177411577Y-104730655D01*
X177412205Y-104730028D01*
X177412207Y-104730023D01*
X177412209Y-104730022D01*
X177471513Y-104627305D01*
X177471513Y-104627303D01*
X177471515Y-104627301D01*
X177502216Y-104512724D01*
X177502216Y-104394106D01*
X177471515Y-104279529D01*
X177471513Y-104279526D01*
X177471513Y-104279524D01*
X177419068Y-104188687D01*
X177406346Y-104128839D01*
X177429978Y-104075760D01*
X177429663Y-104075519D01*
X177430670Y-104074205D01*
X177431233Y-104072943D01*
X177433357Y-104070704D01*
X177433608Y-104070376D01*
X177433612Y-104070373D01*
X177471361Y-104004990D01*
X177492920Y-103967650D01*
X177492920Y-103967648D01*
X177492922Y-103967646D01*
X177523623Y-103853069D01*
X177523623Y-103734451D01*
X177492922Y-103619874D01*
X177492920Y-103619871D01*
X177492920Y-103619869D01*
X177433615Y-103517151D01*
X177433613Y-103517149D01*
X177433612Y-103517147D01*
X177349736Y-103433271D01*
X177349733Y-103433269D01*
X177349731Y-103433267D01*
X177247012Y-103373962D01*
X177247013Y-103373962D01*
X177233474Y-103370334D01*
X177132432Y-103343260D01*
X177013814Y-103343260D01*
X176970034Y-103354991D01*
X176899232Y-103373962D01*
X176796514Y-103433267D01*
X176796513Y-103433268D01*
X176796510Y-103433270D01*
X176796510Y-103433271D01*
X176712634Y-103517147D01*
X176712632Y-103517149D01*
X176708046Y-103521736D01*
X176706808Y-103520498D01*
X176701815Y-103523929D01*
X176693342Y-103535593D01*
X176677232Y-103540827D01*
X176663273Y-103550422D01*
X176635151Y-103554500D01*
X176551427Y-103554500D01*
X176493236Y-103535593D01*
X176457272Y-103486093D01*
X176457272Y-103424907D01*
X176460862Y-103415512D01*
X176472169Y-103389904D01*
X176487585Y-103354991D01*
X176490500Y-103329865D01*
X176490499Y-103097155D01*
X176509406Y-103038966D01*
X176558906Y-103003002D01*
X176620091Y-103003001D01*
X176638997Y-103011418D01*
X176686568Y-103038884D01*
X176801145Y-103069585D01*
X176801147Y-103069585D01*
X176919761Y-103069585D01*
X176919763Y-103069585D01*
X177034340Y-103038884D01*
X177034342Y-103038882D01*
X177034344Y-103038882D01*
X177042394Y-103034234D01*
X186064500Y-103034234D01*
X186064500Y-103185766D01*
X186066917Y-103194785D01*
X186103720Y-103332139D01*
X186179481Y-103463360D01*
X186179483Y-103463362D01*
X186179485Y-103463365D01*
X186286635Y-103570515D01*
X186286637Y-103570516D01*
X186286639Y-103570518D01*
X186417861Y-103646279D01*
X186417859Y-103646279D01*
X186417863Y-103646280D01*
X186417865Y-103646281D01*
X186564234Y-103685500D01*
X186564236Y-103685500D01*
X186715764Y-103685500D01*
X186715766Y-103685500D01*
X186862135Y-103646281D01*
X186862137Y-103646279D01*
X186862139Y-103646279D01*
X186993360Y-103570518D01*
X186993360Y-103570517D01*
X186993365Y-103570515D01*
X187100515Y-103463365D01*
X187157947Y-103363890D01*
X187176279Y-103332139D01*
X187176279Y-103332137D01*
X187176281Y-103332135D01*
X187215500Y-103185766D01*
X187215500Y-103034234D01*
X187176281Y-102887865D01*
X187176279Y-102887862D01*
X187176279Y-102887860D01*
X187100518Y-102756639D01*
X187100516Y-102756637D01*
X187100515Y-102756635D01*
X186993365Y-102649485D01*
X186993362Y-102649483D01*
X186993360Y-102649481D01*
X186862138Y-102573720D01*
X186862140Y-102573720D01*
X186805347Y-102558503D01*
X186715766Y-102534500D01*
X186564234Y-102534500D01*
X186474652Y-102558503D01*
X186417860Y-102573720D01*
X186286639Y-102649481D01*
X186179481Y-102756639D01*
X186103720Y-102887860D01*
X186095181Y-102919728D01*
X186064500Y-103034234D01*
X177042394Y-103034234D01*
X177137062Y-102979577D01*
X177137062Y-102979576D01*
X177137067Y-102979574D01*
X177196914Y-102919726D01*
X177241289Y-102894106D01*
X177292184Y-102880469D01*
X177316580Y-102866384D01*
X177356146Y-102843541D01*
X177408371Y-102791316D01*
X177408371Y-102791314D01*
X177416521Y-102783165D01*
X177416523Y-102783162D01*
X178520192Y-101679496D01*
X178574708Y-101651719D01*
X178590195Y-101650500D01*
X178662307Y-101650500D01*
X178662309Y-101650500D01*
X178776886Y-101619799D01*
X178776888Y-101619797D01*
X178776890Y-101619797D01*
X178879608Y-101560492D01*
X178879608Y-101560491D01*
X178879613Y-101560489D01*
X178963489Y-101476613D01*
X178966072Y-101472139D01*
X179022797Y-101373890D01*
X179022797Y-101373888D01*
X179022799Y-101373886D01*
X179042112Y-101301809D01*
X184271086Y-101301809D01*
X184415156Y-101317716D01*
X184415162Y-101317716D01*
X184573994Y-101295112D01*
X184573998Y-101295110D01*
X184722217Y-101233717D01*
X184722218Y-101233716D01*
X184850521Y-101137383D01*
X184950836Y-101012170D01*
X184966831Y-100980777D01*
X184486478Y-100781809D01*
X184271086Y-101301809D01*
X179042112Y-101301809D01*
X179053500Y-101259309D01*
X179053500Y-101140691D01*
X179022799Y-101026114D01*
X179022797Y-101026111D01*
X179022797Y-101026109D01*
X178963492Y-100923391D01*
X178963490Y-100923389D01*
X178963489Y-100923387D01*
X178879613Y-100839511D01*
X178879610Y-100839509D01*
X178879608Y-100839507D01*
X178776889Y-100780202D01*
X178776890Y-100780202D01*
X178746100Y-100771952D01*
X178662309Y-100749500D01*
X178543691Y-100749500D01*
X178473567Y-100768289D01*
X178429109Y-100780202D01*
X178326391Y-100839507D01*
X178242507Y-100923391D01*
X178183202Y-101026109D01*
X178170703Y-101072756D01*
X178153387Y-101137383D01*
X178152500Y-101140692D01*
X178152500Y-101212805D01*
X178133593Y-101270996D01*
X178123504Y-101282809D01*
X177565511Y-101840801D01*
X177510994Y-101868578D01*
X177450562Y-101859007D01*
X177411087Y-101822511D01*
X177403594Y-101810280D01*
X177399799Y-101796114D01*
X177340489Y-101693387D01*
X177318547Y-101671445D01*
X177312422Y-101661446D01*
X177307885Y-101642538D01*
X177299060Y-101625216D01*
X177300917Y-101613492D01*
X177298148Y-101601949D01*
X177305592Y-101583985D01*
X177308634Y-101564785D01*
X177318305Y-101549458D01*
X177320483Y-101546618D01*
X177320489Y-101546613D01*
X177379799Y-101443886D01*
X177410500Y-101329309D01*
X177410500Y-101210691D01*
X177379799Y-101096114D01*
X177379797Y-101096111D01*
X177379797Y-101096109D01*
X177320492Y-100993391D01*
X177320490Y-100993389D01*
X177320489Y-100993387D01*
X177236613Y-100909511D01*
X177236610Y-100909509D01*
X177236608Y-100909507D01*
X177133889Y-100850202D01*
X177133890Y-100850202D01*
X177103115Y-100841956D01*
X177019309Y-100819500D01*
X176900691Y-100819500D01*
X176833832Y-100837415D01*
X176786109Y-100850202D01*
X176683391Y-100909507D01*
X176683390Y-100909508D01*
X176683387Y-100909510D01*
X176683387Y-100909511D01*
X176667392Y-100925505D01*
X176660277Y-100929130D01*
X176655582Y-100935593D01*
X176633533Y-100942756D01*
X176612878Y-100953281D01*
X176597391Y-100954500D01*
X176475479Y-100954500D01*
X176417288Y-100935593D01*
X176405476Y-100925504D01*
X176362766Y-100882795D01*
X176362765Y-100882794D01*
X176259991Y-100837415D01*
X176259990Y-100837414D01*
X176259988Y-100837414D01*
X176234868Y-100834500D01*
X174870139Y-100834500D01*
X174870136Y-100834501D01*
X174845009Y-100837414D01*
X174742235Y-100882794D01*
X174662794Y-100962235D01*
X174617414Y-101065011D01*
X174614500Y-101090130D01*
X174194851Y-101090130D01*
X174165420Y-101060699D01*
X174043269Y-100979080D01*
X174043268Y-100979079D01*
X174043266Y-100979078D01*
X173907542Y-100922860D01*
X173763457Y-100894200D01*
X173763455Y-100894200D01*
X173616545Y-100894200D01*
X173616542Y-100894200D01*
X173472458Y-100922860D01*
X173472456Y-100922860D01*
X173336733Y-100979078D01*
X173336732Y-100979078D01*
X173214580Y-101060699D01*
X173214576Y-101060702D01*
X173110702Y-101164576D01*
X173110699Y-101164580D01*
X173029078Y-101286732D01*
X173029078Y-101286733D01*
X172972860Y-101422456D01*
X172972860Y-101422458D01*
X172944200Y-101566542D01*
X172403799Y-101566542D01*
X172375140Y-101422458D01*
X172335088Y-101325764D01*
X172318921Y-101286733D01*
X172318921Y-101286732D01*
X172283496Y-101233716D01*
X172237301Y-101164580D01*
X172133420Y-101060699D01*
X172011269Y-100979080D01*
X172011268Y-100979079D01*
X172011266Y-100979078D01*
X171875542Y-100922860D01*
X171731457Y-100894200D01*
X171731455Y-100894200D01*
X171584545Y-100894200D01*
X171584542Y-100894200D01*
X171440458Y-100922860D01*
X171440456Y-100922860D01*
X171304734Y-100979078D01*
X171266201Y-101004825D01*
X171252940Y-101008564D01*
X171241793Y-101016664D01*
X171224223Y-101016664D01*
X171207313Y-101021433D01*
X171194386Y-101016664D01*
X171180607Y-101016664D01*
X171166391Y-101006335D01*
X171149909Y-101000255D01*
X171142254Y-100988799D01*
X171131107Y-100980700D01*
X171125677Y-100963988D01*
X171115917Y-100949381D01*
X171112200Y-100922509D01*
X171112200Y-100841956D01*
X171131107Y-100783765D01*
X171141196Y-100771952D01*
X173762356Y-98150793D01*
X173816873Y-98123016D01*
X173832360Y-98121797D01*
X182865630Y-98121797D01*
X182865632Y-98121797D01*
X182884876Y-98116640D01*
X182945975Y-98119840D01*
X182993526Y-98158343D01*
X183009500Y-98212266D01*
X183009500Y-99748130D01*
X183005304Y-99776648D01*
X183001989Y-99787666D01*
X182993407Y-99802532D01*
X182974291Y-99873872D01*
X182974291Y-99879746D01*
X182970610Y-99891983D01*
X182969257Y-99893932D01*
X182967270Y-99901350D01*
X182888293Y-100092019D01*
X182888291Y-100092024D01*
X182875539Y-100139613D01*
X182875539Y-100139617D01*
X182880701Y-100257823D01*
X182880701Y-100257825D01*
X182925977Y-100367129D01*
X182925978Y-100367131D01*
X183005911Y-100454363D01*
X183048587Y-100479002D01*
X183048589Y-100479003D01*
X183086729Y-100494801D01*
X183370681Y-100612418D01*
X183418281Y-100625173D01*
X183431162Y-100624610D01*
X183490118Y-100640957D01*
X183528209Y-100688839D01*
X183533493Y-100709566D01*
X183538295Y-100743312D01*
X183538297Y-100743316D01*
X183599690Y-100891535D01*
X183599691Y-100891536D01*
X183696024Y-101019839D01*
X183809146Y-101110468D01*
X184120209Y-100359498D01*
X184136624Y-100319868D01*
X184677819Y-100319868D01*
X185158173Y-100518837D01*
X185169061Y-100485331D01*
X185169062Y-100485329D01*
X185186667Y-100325864D01*
X185186666Y-100325856D01*
X185164062Y-100167025D01*
X185164060Y-100167021D01*
X185102667Y-100018802D01*
X185102666Y-100018801D01*
X185006331Y-99890495D01*
X184893211Y-99799868D01*
X184893210Y-99799868D01*
X184677819Y-100319868D01*
X184136624Y-100319868D01*
X184152317Y-100281983D01*
X184431270Y-99608526D01*
X184287203Y-99592620D01*
X184287195Y-99592621D01*
X184128363Y-99615225D01*
X184128359Y-99615227D01*
X183980138Y-99676621D01*
X183980136Y-99676622D01*
X183952873Y-99697092D01*
X183894986Y-99716910D01*
X183836506Y-99698918D01*
X183820444Y-99684807D01*
X183811732Y-99675300D01*
X183811731Y-99675299D01*
X183769055Y-99650660D01*
X183769050Y-99650657D01*
X183631614Y-99593729D01*
X183585088Y-99553992D01*
X183570500Y-99502265D01*
X183570500Y-98179500D01*
X183589407Y-98121309D01*
X183638907Y-98085345D01*
X183669500Y-98080500D01*
X184684747Y-98080500D01*
X184684748Y-98080500D01*
X184743231Y-98068867D01*
X184809552Y-98024552D01*
X184853867Y-97958231D01*
X184865500Y-97899748D01*
X184865500Y-97759502D01*
X184884407Y-97701311D01*
X184933907Y-97665347D01*
X184964500Y-97660502D01*
X186473389Y-97660502D01*
X186531580Y-97679409D01*
X186567544Y-97728909D01*
X186567544Y-97790095D01*
X186543394Y-97829503D01*
X186489511Y-97883387D01*
X186489508Y-97883390D01*
X186489507Y-97883391D01*
X186430202Y-97986109D01*
X186419901Y-98024554D01*
X186399500Y-98100691D01*
X186399500Y-98219309D01*
X186423667Y-98309500D01*
X186430202Y-98333890D01*
X186489507Y-98436608D01*
X186489509Y-98436610D01*
X186489511Y-98436613D01*
X186540505Y-98487607D01*
X186568281Y-98542122D01*
X186569500Y-98557609D01*
X186569500Y-100003277D01*
X186569499Y-100003277D01*
X186573660Y-100018801D01*
X186576182Y-100028214D01*
X186588616Y-100074617D01*
X186625544Y-100138579D01*
X186677769Y-100190804D01*
X186677771Y-100190805D01*
X186847322Y-100360356D01*
X186875099Y-100414873D01*
X186876224Y-100434674D01*
X186875538Y-100450378D01*
X186875539Y-100450386D01*
X186888291Y-100497975D01*
X187059976Y-100912460D01*
X187059978Y-100912463D01*
X187084617Y-100955139D01*
X187171849Y-101035072D01*
X187281157Y-101080349D01*
X187399361Y-101085511D01*
X187399365Y-101085510D01*
X187399366Y-101085510D01*
X187446955Y-101072758D01*
X187446957Y-101072756D01*
X187446961Y-101072756D01*
X187769055Y-100939340D01*
X187811731Y-100914701D01*
X187891664Y-100827469D01*
X187936941Y-100718161D01*
X187937582Y-100703476D01*
X187959010Y-100646166D01*
X188010032Y-100612396D01*
X188071159Y-100615065D01*
X188103368Y-100634802D01*
X188114207Y-100644734D01*
X188223515Y-100690011D01*
X188341719Y-100695173D01*
X188341723Y-100695172D01*
X188341724Y-100695172D01*
X188389313Y-100682420D01*
X188389315Y-100682418D01*
X188389319Y-100682418D01*
X188711413Y-100549002D01*
X188754089Y-100524363D01*
X188821881Y-100450381D01*
X188839874Y-100430745D01*
X188841479Y-100432216D01*
X188879571Y-100400805D01*
X188890242Y-100397285D01*
X188894239Y-100396215D01*
X188894242Y-100396213D01*
X188894243Y-100396213D01*
X188895508Y-100395483D01*
X188923149Y-100379523D01*
X188958201Y-100359287D01*
X189010426Y-100307062D01*
X189010427Y-100307060D01*
X189027190Y-100290297D01*
X189081707Y-100262520D01*
X189097194Y-100261301D01*
X189463626Y-100261301D01*
X189463628Y-100261301D01*
X189534968Y-100242185D01*
X189536631Y-100241224D01*
X189537506Y-100240720D01*
X189537507Y-100240718D01*
X189543841Y-100237062D01*
X189598930Y-100205257D01*
X189651155Y-100153032D01*
X189651156Y-100153029D01*
X190935456Y-98868731D01*
X190962987Y-98821044D01*
X191008455Y-98780104D01*
X191069305Y-98773708D01*
X191122294Y-98804300D01*
X191147181Y-98860196D01*
X191145645Y-98890722D01*
X191116250Y-99031920D01*
X191099414Y-99069942D01*
X190007551Y-100572421D01*
X190006745Y-100573515D01*
X188253680Y-102917501D01*
X188248619Y-102924268D01*
X188225289Y-102948254D01*
X188209326Y-102976805D01*
X188205392Y-102982066D01*
X188205389Y-102982067D01*
X188189735Y-103003001D01*
X188189734Y-103003002D01*
X188179691Y-103028118D01*
X188174180Y-103039673D01*
X186794906Y-105506823D01*
X186794905Y-105506822D01*
X186791305Y-105513260D01*
X186773793Y-105535903D01*
X186759299Y-105570511D01*
X186756561Y-105575411D01*
X186740984Y-105603276D01*
X186740979Y-105603287D01*
X186735758Y-105623906D01*
X186731105Y-105637839D01*
X186128323Y-107077321D01*
X186104419Y-107111583D01*
X184599076Y-108511288D01*
X184556975Y-108534497D01*
X182369367Y-109113038D01*
X182340040Y-109116247D01*
X179750484Y-109011136D01*
X179740559Y-109010231D01*
X177528754Y-108695663D01*
X177526016Y-108695234D01*
X174815925Y-108232055D01*
X174815925Y-108232054D01*
X174810695Y-108231160D01*
X174773060Y-108220496D01*
X174746021Y-108220108D01*
X174738443Y-108218813D01*
X174719367Y-108215553D01*
X174685680Y-108218678D01*
X174675117Y-108219091D01*
X171961417Y-108180185D01*
X171961416Y-108180185D01*
X171954108Y-108180080D01*
X171925535Y-108175420D01*
X171888505Y-108179139D01*
X171882831Y-108179058D01*
X171882830Y-108179057D01*
X171851289Y-108178606D01*
X171851286Y-108178607D01*
X171830300Y-108183908D01*
X171815951Y-108186427D01*
X169712978Y-108397684D01*
X169712979Y-108397685D01*
X169705873Y-108398398D01*
X169676096Y-108397094D01*
X169640592Y-108404957D01*
X169634782Y-108405541D01*
X169634777Y-108405541D01*
X169604411Y-108408593D01*
X169604409Y-108408593D01*
X169604406Y-108408594D01*
X169583201Y-108416621D01*
X169569562Y-108420690D01*
X166612171Y-109075747D01*
X166604242Y-109077502D01*
X166602352Y-109077435D01*
X166540216Y-109091683D01*
X166539671Y-109091804D01*
X166539551Y-109091832D01*
X166475486Y-109106023D01*
X166467839Y-109108280D01*
X163880170Y-109701693D01*
X163879473Y-109701850D01*
X161736719Y-110176983D01*
X161686052Y-110174916D01*
X161326403Y-110063752D01*
X161313975Y-110058973D01*
X160430959Y-109649326D01*
X160415184Y-109640154D01*
X159739975Y-109159183D01*
X159736850Y-109156863D01*
X159054125Y-108628889D01*
X159037050Y-108612003D01*
X158970715Y-108528163D01*
X158368029Y-107766434D01*
X158366249Y-107764114D01*
X158354513Y-107748338D01*
X157817351Y-107026250D01*
X157803134Y-106999268D01*
X157782860Y-106940136D01*
X157504586Y-106128502D01*
X157499244Y-106097648D01*
X157498859Y-106067205D01*
X157491053Y-105450538D01*
X157494348Y-105431808D01*
X157490222Y-105384876D01*
X157489626Y-105337778D01*
X157486985Y-105328402D01*
X157483660Y-105310239D01*
X157471532Y-105172279D01*
X157413011Y-104506607D01*
X157414747Y-104491445D01*
X157407258Y-104441168D01*
X157402807Y-104390530D01*
X157401010Y-104385599D01*
X157401010Y-104385598D01*
X157397579Y-104376184D01*
X157395333Y-104361099D01*
X157375098Y-104314498D01*
X157374074Y-104311688D01*
X157362351Y-104279524D01*
X157357682Y-104266712D01*
X157354668Y-104262412D01*
X157344931Y-104245024D01*
X157327335Y-104204500D01*
X157041613Y-103546471D01*
X157040804Y-103544551D01*
X157039281Y-103540827D01*
X156788983Y-102928989D01*
X156785188Y-102917500D01*
X157237155Y-102917500D01*
X157277595Y-103056695D01*
X157277595Y-103056696D01*
X157359261Y-103194785D01*
X157472714Y-103308238D01*
X157610804Y-103389904D01*
X157764872Y-103434665D01*
X157764878Y-103434667D01*
X157799999Y-103437430D01*
X157800000Y-103437430D01*
X157800000Y-102917501D01*
X158300000Y-102917501D01*
X158300000Y-103437430D01*
X158335121Y-103434667D01*
X158335127Y-103434665D01*
X158489195Y-103389904D01*
X158489196Y-103389904D01*
X158627285Y-103308238D01*
X158740738Y-103194785D01*
X158822404Y-103056696D01*
X158822404Y-103056695D01*
X158862844Y-102917500D01*
X158300001Y-102917500D01*
X158300000Y-102917501D01*
X157800000Y-102917501D01*
X157799999Y-102917500D01*
X157237155Y-102917500D01*
X156785188Y-102917500D01*
X156784691Y-102915996D01*
X156778684Y-102892445D01*
X156773922Y-102883963D01*
X156764536Y-102867243D01*
X156759233Y-102856263D01*
X156748289Y-102829511D01*
X156748286Y-102829507D01*
X156733581Y-102810167D01*
X156726060Y-102798709D01*
X156710056Y-102770201D01*
X156457185Y-102319775D01*
X156456392Y-102316814D01*
X156424944Y-102262345D01*
X156394171Y-102207531D01*
X156393862Y-102207118D01*
X156393627Y-102206761D01*
X156392744Y-102205611D01*
X156391997Y-102204625D01*
X156391092Y-102203415D01*
X156390806Y-102203085D01*
X156390502Y-102202689D01*
X156346455Y-102158642D01*
X156346455Y-102158641D01*
X156346027Y-102158213D01*
X156302115Y-102113230D01*
X156299480Y-102111665D01*
X156292940Y-102105125D01*
X156292932Y-102105118D01*
X155836765Y-101648951D01*
X155829643Y-101641016D01*
X155808606Y-101614876D01*
X155808603Y-101614873D01*
X155808602Y-101614872D01*
X155792758Y-101603287D01*
X155781199Y-101593385D01*
X155767314Y-101579500D01*
X155767311Y-101579498D01*
X155767309Y-101579496D01*
X155738243Y-101562715D01*
X155729310Y-101556895D01*
X154858090Y-100919873D01*
X154847878Y-100911294D01*
X154537257Y-100612396D01*
X154353447Y-100435522D01*
X154351387Y-100433479D01*
X153870097Y-99941839D01*
X153481866Y-99545258D01*
X153466581Y-99524992D01*
X153117763Y-98912434D01*
X153111278Y-98898689D01*
X153108243Y-98890722D01*
X152669918Y-97740119D01*
X152664646Y-97720325D01*
X152615687Y-97410253D01*
X153614500Y-97410253D01*
X153614500Y-98449746D01*
X153614501Y-98449758D01*
X153626132Y-98508227D01*
X153626134Y-98508233D01*
X153659127Y-98557609D01*
X153670448Y-98574552D01*
X153736769Y-98618867D01*
X153781231Y-98627711D01*
X153795241Y-98630498D01*
X153795246Y-98630498D01*
X153795252Y-98630500D01*
X153795253Y-98630500D01*
X156584747Y-98630500D01*
X156584748Y-98630500D01*
X156643231Y-98618867D01*
X156709552Y-98574552D01*
X156753867Y-98508231D01*
X156765500Y-98449748D01*
X156765500Y-98309500D01*
X156784407Y-98251309D01*
X156833907Y-98215345D01*
X156864500Y-98210500D01*
X159275500Y-98210500D01*
X159333691Y-98229407D01*
X159369655Y-98278907D01*
X159374500Y-98309500D01*
X159374500Y-98449746D01*
X159374501Y-98449758D01*
X159386132Y-98508227D01*
X159386134Y-98508233D01*
X159419127Y-98557609D01*
X159430448Y-98574552D01*
X159496769Y-98618867D01*
X159541231Y-98627711D01*
X159555241Y-98630498D01*
X159555246Y-98630498D01*
X159555252Y-98630500D01*
X159633809Y-98630500D01*
X159692000Y-98649407D01*
X159727964Y-98698907D01*
X159727964Y-98760093D01*
X159703813Y-98799503D01*
X158788590Y-99714726D01*
X157877771Y-100625545D01*
X157877769Y-100625547D01*
X157877768Y-100625546D01*
X157825543Y-100677771D01*
X157807621Y-100708814D01*
X157802226Y-100718161D01*
X157788616Y-100741734D01*
X157774259Y-100795316D01*
X157773021Y-100799934D01*
X157773020Y-100799938D01*
X157769500Y-100813074D01*
X157769500Y-101123778D01*
X157750593Y-101181969D01*
X157712340Y-101213502D01*
X157669599Y-101233432D01*
X157585933Y-101317098D01*
X157535932Y-101424324D01*
X157535932Y-101424325D01*
X157531644Y-101456898D01*
X157529500Y-101473184D01*
X157529500Y-101821816D01*
X157535932Y-101870673D01*
X157535933Y-101870675D01*
X157535935Y-101870682D01*
X157541381Y-101882361D01*
X157548837Y-101943090D01*
X157519172Y-101996603D01*
X157502052Y-102009411D01*
X157472714Y-102026761D01*
X157359261Y-102140214D01*
X157277595Y-102278303D01*
X157277595Y-102278304D01*
X157237155Y-102417499D01*
X157237156Y-102417500D01*
X158862844Y-102417500D01*
X158862844Y-102417499D01*
X158822404Y-102278304D01*
X158822404Y-102278303D01*
X158740738Y-102140214D01*
X158627287Y-102026763D01*
X158597947Y-102009412D01*
X158557485Y-101963516D01*
X158551726Y-101902602D01*
X158558614Y-101882367D01*
X158564068Y-101870673D01*
X158570500Y-101821816D01*
X158570500Y-101473184D01*
X158564068Y-101424327D01*
X158563196Y-101422458D01*
X158514066Y-101317098D01*
X158514065Y-101317097D01*
X158514065Y-101317096D01*
X158430404Y-101233435D01*
X158383503Y-101211564D01*
X158379542Y-101209249D01*
X158362092Y-101189659D01*
X158345551Y-101174234D01*
X159484500Y-101174234D01*
X159484500Y-101325766D01*
X159510909Y-101424327D01*
X159523720Y-101472139D01*
X159599481Y-101603360D01*
X159599483Y-101603362D01*
X159599485Y-101603365D01*
X159706635Y-101710515D01*
X159706637Y-101710516D01*
X159706639Y-101710518D01*
X159837861Y-101786279D01*
X159837859Y-101786279D01*
X159837863Y-101786280D01*
X159837865Y-101786281D01*
X159984234Y-101825500D01*
X159984236Y-101825500D01*
X160135764Y-101825500D01*
X160135766Y-101825500D01*
X160282135Y-101786281D01*
X160282137Y-101786279D01*
X160282139Y-101786279D01*
X160413360Y-101710518D01*
X160413360Y-101710517D01*
X160413365Y-101710515D01*
X160520515Y-101603365D01*
X160543960Y-101562757D01*
X160596279Y-101472139D01*
X160596279Y-101472137D01*
X160596281Y-101472135D01*
X160635500Y-101325766D01*
X160635500Y-101174234D01*
X160596281Y-101027865D01*
X160596279Y-101027862D01*
X160596279Y-101027860D01*
X160520518Y-100896639D01*
X160520516Y-100896637D01*
X160520515Y-100896635D01*
X160413365Y-100789485D01*
X160413362Y-100789483D01*
X160413360Y-100789481D01*
X160282138Y-100713720D01*
X160282140Y-100713720D01*
X160225347Y-100698503D01*
X160135766Y-100674500D01*
X159984234Y-100674500D01*
X159894652Y-100698503D01*
X159837860Y-100713720D01*
X159706639Y-100789481D01*
X159599481Y-100896639D01*
X159523720Y-101027860D01*
X159511690Y-101072758D01*
X159484500Y-101174234D01*
X158345551Y-101174234D01*
X158342912Y-101171773D01*
X158341583Y-101166635D01*
X158338845Y-101163561D01*
X158337625Y-101151332D01*
X158330500Y-101123778D01*
X158330500Y-101007197D01*
X158349407Y-100949006D01*
X158359496Y-100937193D01*
X160470496Y-98826193D01*
X160525013Y-98798416D01*
X160585445Y-98807987D01*
X160628710Y-98851252D01*
X160639500Y-98896197D01*
X160639500Y-98942390D01*
X160620593Y-99000581D01*
X160610504Y-99012393D01*
X160559511Y-99063385D01*
X160559507Y-99063391D01*
X160500202Y-99166109D01*
X160500201Y-99166114D01*
X160469500Y-99280691D01*
X160469500Y-99399309D01*
X160476790Y-99426515D01*
X160500202Y-99513890D01*
X160559507Y-99616608D01*
X160559509Y-99616610D01*
X160559511Y-99616613D01*
X160643387Y-99700489D01*
X160643389Y-99700490D01*
X160643391Y-99700492D01*
X160746110Y-99759797D01*
X160746111Y-99759797D01*
X160746114Y-99759799D01*
X160860691Y-99790500D01*
X160860693Y-99790500D01*
X160979307Y-99790500D01*
X160979309Y-99790500D01*
X161093886Y-99759799D01*
X161093888Y-99759797D01*
X161093890Y-99759797D01*
X161196608Y-99700492D01*
X161196608Y-99700491D01*
X161196613Y-99700489D01*
X161280489Y-99616613D01*
X161294341Y-99592621D01*
X161339797Y-99513890D01*
X161339797Y-99513888D01*
X161339799Y-99513886D01*
X161370500Y-99399309D01*
X161370500Y-99280691D01*
X161339799Y-99166114D01*
X161339797Y-99166111D01*
X161339797Y-99166109D01*
X161280492Y-99063391D01*
X161280488Y-99063385D01*
X161229496Y-99012393D01*
X161201719Y-98957876D01*
X161200500Y-98942390D01*
X161200500Y-98729500D01*
X161219407Y-98671309D01*
X161268907Y-98635345D01*
X161299500Y-98630500D01*
X162344747Y-98630500D01*
X162344748Y-98630500D01*
X162403231Y-98618867D01*
X162469552Y-98574552D01*
X162513867Y-98508231D01*
X162525500Y-98449748D01*
X162525500Y-97410252D01*
X162513867Y-97351769D01*
X162469552Y-97285448D01*
X162462135Y-97280492D01*
X162403233Y-97241134D01*
X162403231Y-97241133D01*
X162403228Y-97241132D01*
X162403227Y-97241132D01*
X162344758Y-97229501D01*
X162344748Y-97229500D01*
X159555252Y-97229500D01*
X159555251Y-97229500D01*
X159555241Y-97229501D01*
X159496772Y-97241132D01*
X159496766Y-97241134D01*
X159430451Y-97285445D01*
X159430445Y-97285451D01*
X159386134Y-97351766D01*
X159386132Y-97351772D01*
X159374501Y-97410241D01*
X159374500Y-97410253D01*
X159374500Y-97550500D01*
X159355593Y-97608691D01*
X159306093Y-97644655D01*
X159275500Y-97649500D01*
X156864500Y-97649500D01*
X156806309Y-97630593D01*
X156770345Y-97581093D01*
X156765500Y-97550500D01*
X156765500Y-97410253D01*
X156765498Y-97410241D01*
X156757623Y-97370651D01*
X156753867Y-97351769D01*
X156709552Y-97285448D01*
X156702135Y-97280492D01*
X156643233Y-97241134D01*
X156643231Y-97241133D01*
X156643228Y-97241132D01*
X156643227Y-97241132D01*
X156584758Y-97229501D01*
X156584748Y-97229500D01*
X153795252Y-97229500D01*
X153795251Y-97229500D01*
X153795241Y-97229501D01*
X153736772Y-97241132D01*
X153736766Y-97241134D01*
X153670451Y-97285445D01*
X153670445Y-97285451D01*
X153626134Y-97351766D01*
X153626132Y-97351772D01*
X153614501Y-97410241D01*
X153614500Y-97410253D01*
X152615687Y-97410253D01*
X152473594Y-96510329D01*
X152472463Y-96490934D01*
X152529917Y-95054569D01*
X152529988Y-95053093D01*
X152530892Y-95036824D01*
X152577448Y-94198817D01*
X152579122Y-94185386D01*
X152794918Y-93078260D01*
X152797594Y-93067677D01*
X152800066Y-93059769D01*
X153181968Y-91837680D01*
X153184060Y-91831674D01*
X153194699Y-91804013D01*
X153564581Y-90842315D01*
X153569330Y-90831835D01*
X153860761Y-90277175D01*
X153861418Y-90275950D01*
X154415607Y-89263126D01*
X154426504Y-89250067D01*
X154447128Y-89205518D01*
X154470699Y-89162441D01*
X154472436Y-89155306D01*
X154478784Y-89137140D01*
X154941877Y-88136861D01*
X154961021Y-88105674D01*
X154969443Y-88077318D01*
X154981870Y-88050477D01*
X154987133Y-88020137D01*
X154989774Y-88008868D01*
X155259463Y-87100914D01*
X155262673Y-87090151D01*
X155265527Y-87085260D01*
X155271261Y-87064234D01*
X159374500Y-87064234D01*
X159374500Y-87215766D01*
X159386737Y-87261434D01*
X159413720Y-87362139D01*
X159489481Y-87493360D01*
X159489483Y-87493362D01*
X159489485Y-87493365D01*
X159596635Y-87600515D01*
X159596637Y-87600516D01*
X159596639Y-87600518D01*
X159727861Y-87676279D01*
X159727859Y-87676279D01*
X159727863Y-87676280D01*
X159727865Y-87676281D01*
X159874234Y-87715500D01*
X159874236Y-87715500D01*
X160025764Y-87715500D01*
X160025766Y-87715500D01*
X160172135Y-87676281D01*
X160172137Y-87676279D01*
X160172139Y-87676279D01*
X160303360Y-87600518D01*
X160303360Y-87600517D01*
X160303365Y-87600515D01*
X160410515Y-87493365D01*
X160410518Y-87493360D01*
X160486279Y-87362139D01*
X160486279Y-87362137D01*
X160486281Y-87362135D01*
X160525500Y-87215766D01*
X160525500Y-87064234D01*
X160486281Y-86917865D01*
X160486279Y-86917862D01*
X160486279Y-86917860D01*
X160410518Y-86786639D01*
X160410516Y-86786637D01*
X160410515Y-86786635D01*
X160303365Y-86679485D01*
X160303362Y-86679483D01*
X160303360Y-86679481D01*
X160172138Y-86603720D01*
X160172140Y-86603720D01*
X160115347Y-86588503D01*
X160025766Y-86564500D01*
X159874234Y-86564500D01*
X159784652Y-86588503D01*
X159727860Y-86603720D01*
X159596639Y-86679481D01*
X159489481Y-86786639D01*
X159413720Y-86917860D01*
X159399925Y-86969345D01*
X159374500Y-87064234D01*
X155271261Y-87064234D01*
X155281101Y-87028151D01*
X155281690Y-87026082D01*
X155298544Y-86969345D01*
X155298544Y-86969341D01*
X155299564Y-86962933D01*
X155300238Y-86963040D01*
X155301828Y-86952149D01*
X155509293Y-86191449D01*
X155515798Y-86178697D01*
X155526581Y-86128063D01*
X155540202Y-86078120D01*
X155540220Y-86074006D01*
X155542388Y-86053834D01*
X155747305Y-85091613D01*
X155753139Y-85073239D01*
X155755215Y-85068396D01*
X156199686Y-84031293D01*
X156203425Y-84023526D01*
X156823758Y-82867452D01*
X156834266Y-82851702D01*
X157335331Y-82237493D01*
X157368280Y-82211273D01*
X157871425Y-81963346D01*
X157895541Y-81955119D01*
X158650058Y-81802419D01*
X158653019Y-81801868D01*
X159667433Y-81629610D01*
X159696438Y-81628998D01*
X159732116Y-81618626D01*
X159768753Y-81612405D01*
X159788493Y-81603350D01*
X159802126Y-81598273D01*
X160572255Y-81374400D01*
X160588669Y-81372984D01*
X160635325Y-81356065D01*
X160682983Y-81342212D01*
X160688710Y-81338741D01*
X160706261Y-81330343D01*
X160712560Y-81328060D01*
X160750614Y-81301481D01*
X160755999Y-81297975D01*
X160795696Y-81273926D01*
X160800327Y-81269094D01*
X160815105Y-81256439D01*
X161342856Y-80887852D01*
X161343202Y-80887727D01*
X161397032Y-80850015D01*
X161432647Y-80825141D01*
X161450600Y-80812604D01*
X161450896Y-80812333D01*
X161450906Y-80812323D01*
X161450938Y-80812292D01*
X161450940Y-80812291D01*
X161451125Y-80812120D01*
X161451136Y-80812113D01*
X161493138Y-80762033D01*
X161535433Y-80711752D01*
X161535434Y-80711749D01*
X161539043Y-80707459D01*
X161539971Y-80706192D01*
X161986083Y-80174292D01*
X162003826Y-80159258D01*
X162028255Y-80124009D01*
X162055822Y-80091142D01*
X162062086Y-80077698D01*
X162070443Y-80063137D01*
X162711308Y-79138462D01*
X162720875Y-79129466D01*
X162748734Y-79084462D01*
X162778895Y-79040945D01*
X162779804Y-79038407D01*
X162788819Y-79019707D01*
X163255097Y-78266491D01*
X163272699Y-78245985D01*
X163289638Y-78210694D01*
X163310240Y-78177415D01*
X163315816Y-78158897D01*
X163321357Y-78144612D01*
X163646459Y-77467317D01*
X163663979Y-77440783D01*
X163674849Y-77408172D01*
X163689726Y-77377179D01*
X163694353Y-77352554D01*
X163697730Y-77339528D01*
X163798935Y-77035916D01*
X163876847Y-76802179D01*
X163881570Y-76794439D01*
X163897640Y-76739800D01*
X163915653Y-76685762D01*
X163915653Y-76685759D01*
X163916884Y-76679390D01*
X163917011Y-76679414D01*
X163919366Y-76665928D01*
X164004828Y-76375356D01*
X166178077Y-76375356D01*
X166178077Y-78975366D01*
X166178124Y-78979775D01*
X166178134Y-78980217D01*
X166197171Y-79062259D01*
X166200389Y-79069196D01*
X166200395Y-79069206D01*
X166237841Y-79123631D01*
X166239406Y-79125905D01*
X166316131Y-79175680D01*
X166323317Y-79178312D01*
X166402533Y-79190670D01*
X166402538Y-79190669D01*
X166402540Y-79190670D01*
X167873989Y-79129466D01*
X168102531Y-79119960D01*
X168176583Y-79102810D01*
X168183238Y-79099889D01*
X168237578Y-79064948D01*
X168290502Y-78990361D01*
X168293431Y-78983290D01*
X168309075Y-78904646D01*
X168309075Y-76375356D01*
X176090924Y-76375356D01*
X176090924Y-78975436D01*
X176090935Y-78977522D01*
X176090937Y-78977649D01*
X176090940Y-78977918D01*
X176093663Y-78990361D01*
X176108762Y-79059365D01*
X176108763Y-79059368D01*
X176111879Y-79066351D01*
X176111881Y-79066354D01*
X176150065Y-79123633D01*
X176226053Y-79174525D01*
X176233200Y-79177262D01*
X176312233Y-79190778D01*
X176909002Y-79174684D01*
X176967679Y-79192016D01*
X177004965Y-79240528D01*
X177010669Y-79273648D01*
X177010669Y-80018100D01*
X177029783Y-80089434D01*
X177029783Y-80089435D01*
X177029785Y-80089438D01*
X177066713Y-80153400D01*
X177118938Y-80205625D01*
X177118940Y-80205626D01*
X177390504Y-80477190D01*
X177418281Y-80531707D01*
X177419500Y-80547194D01*
X177419500Y-80619309D01*
X177443120Y-80707459D01*
X177450202Y-80733890D01*
X177509507Y-80836608D01*
X177509509Y-80836610D01*
X177509511Y-80836613D01*
X177593387Y-80920489D01*
X177593389Y-80920490D01*
X177593391Y-80920492D01*
X177696110Y-80979797D01*
X177696111Y-80979797D01*
X177696114Y-80979799D01*
X177810691Y-81010500D01*
X177810693Y-81010500D01*
X177929307Y-81010500D01*
X177929309Y-81010500D01*
X178043886Y-80979799D01*
X178043888Y-80979797D01*
X178043890Y-80979797D01*
X178146608Y-80920492D01*
X178146608Y-80920491D01*
X178146613Y-80920489D01*
X178230489Y-80836613D01*
X178244531Y-80812292D01*
X178289797Y-80733890D01*
X178289797Y-80733888D01*
X178289799Y-80733886D01*
X178320500Y-80619309D01*
X178320500Y-80500691D01*
X178289799Y-80386114D01*
X178289797Y-80386111D01*
X178289797Y-80386109D01*
X178230492Y-80283391D01*
X178230490Y-80283389D01*
X178230489Y-80283387D01*
X178146613Y-80199511D01*
X178146610Y-80199509D01*
X178146608Y-80199507D01*
X178043889Y-80140202D01*
X178043890Y-80140202D01*
X178030351Y-80136574D01*
X177929309Y-80109500D01*
X177929307Y-80109500D01*
X177857195Y-80109500D01*
X177799004Y-80090593D01*
X177787191Y-80080504D01*
X177600665Y-79893978D01*
X177572888Y-79839461D01*
X177571669Y-79823974D01*
X177571669Y-79246374D01*
X177590576Y-79188183D01*
X177640076Y-79152219D01*
X177649391Y-79149688D01*
X177698963Y-79138783D01*
X177705765Y-79135858D01*
X177769894Y-79092383D01*
X179069896Y-77792381D01*
X179114442Y-77725715D01*
X179117371Y-77718644D01*
X179132692Y-77651520D01*
X179117371Y-77561356D01*
X179114442Y-77554285D01*
X179069896Y-77487619D01*
X177769894Y-76187617D01*
X177767594Y-76185352D01*
X177767400Y-76185164D01*
X177767398Y-76185162D01*
X177697890Y-76140832D01*
X177690750Y-76138098D01*
X177690743Y-76138096D01*
X177611704Y-76124577D01*
X176300610Y-76159932D01*
X176300609Y-76159932D01*
X176224944Y-76176584D01*
X176224943Y-76176584D01*
X176218137Y-76179512D01*
X176218136Y-76179512D01*
X176162422Y-76215050D01*
X176162419Y-76215053D01*
X176109498Y-76289637D01*
X176106567Y-76296712D01*
X176090924Y-76375356D01*
X168309075Y-76375356D01*
X168309075Y-76304643D01*
X168309037Y-76300692D01*
X168309029Y-76300276D01*
X168289983Y-76217745D01*
X168286762Y-76210802D01*
X168247741Y-76154088D01*
X168247739Y-76154087D01*
X168247739Y-76154086D01*
X168247740Y-76154086D01*
X168171019Y-76104320D01*
X168171018Y-76104319D01*
X168171014Y-76104317D01*
X168163827Y-76101685D01*
X168163824Y-76101684D01*
X168163820Y-76101683D01*
X168084624Y-76089330D01*
X168084609Y-76089329D01*
X166384629Y-76160039D01*
X166384619Y-76160040D01*
X166310581Y-76177184D01*
X166303922Y-76180107D01*
X166249576Y-76215050D01*
X166249575Y-76215051D01*
X166249574Y-76215051D01*
X166249574Y-76215052D01*
X166196650Y-76289639D01*
X166196650Y-76289640D01*
X166193720Y-76296712D01*
X166178077Y-76375356D01*
X164004828Y-76375356D01*
X164037310Y-76264919D01*
X164042613Y-76250910D01*
X164051240Y-76232479D01*
X164056989Y-76200134D01*
X164059485Y-76189524D01*
X164068755Y-76158010D01*
X164069247Y-76137673D01*
X164070744Y-76122759D01*
X164217881Y-75295119D01*
X164219911Y-75286150D01*
X164524445Y-74182214D01*
X164527563Y-74172787D01*
X164880366Y-73262931D01*
X164886742Y-73249557D01*
X165643415Y-71927656D01*
X165664650Y-71901893D01*
X166243624Y-71402231D01*
X166270530Y-71385672D01*
X167387821Y-70924568D01*
X167405882Y-70919063D01*
X168629568Y-70670646D01*
X168646240Y-70668714D01*
X170563992Y-70610305D01*
X172014124Y-70572737D01*
X172072785Y-70590131D01*
X172110019Y-70638683D01*
X172111603Y-70699848D01*
X172076933Y-70750263D01*
X172071692Y-70754018D01*
X172047621Y-70770102D01*
X170747613Y-72070110D01*
X170704145Y-72134230D01*
X170704139Y-72134241D01*
X170701217Y-72141034D01*
X170684578Y-72216672D01*
X170684577Y-72216678D01*
X170649221Y-73527772D01*
X170649168Y-73530284D01*
X170649165Y-73530515D01*
X170649166Y-73530529D01*
X170664787Y-73612222D01*
X170667715Y-73619291D01*
X170696439Y-73665003D01*
X170704341Y-73677579D01*
X170778928Y-73730503D01*
X170785999Y-73733432D01*
X170864643Y-73749076D01*
X170864649Y-73749076D01*
X173464643Y-73749076D01*
X173464646Y-73749076D01*
X173540723Y-73734475D01*
X173547601Y-73731734D01*
X173604264Y-73697712D01*
X173659185Y-73624583D01*
X173662304Y-73617594D01*
X173680068Y-73539386D01*
X173715423Y-72228296D01*
X173715475Y-72225811D01*
X173715476Y-72225778D01*
X173715479Y-72225547D01*
X173715478Y-72225533D01*
X173702249Y-72156349D01*
X173699933Y-72144234D01*
X175234500Y-72144234D01*
X175234500Y-72295766D01*
X175269086Y-72424847D01*
X175273720Y-72442139D01*
X175349481Y-72573360D01*
X175349483Y-72573362D01*
X175349485Y-72573365D01*
X175456635Y-72680515D01*
X175456637Y-72680516D01*
X175456639Y-72680518D01*
X175587861Y-72756279D01*
X175587859Y-72756279D01*
X175587863Y-72756280D01*
X175587865Y-72756281D01*
X175734234Y-72795500D01*
X175734236Y-72795500D01*
X175885764Y-72795500D01*
X175885766Y-72795500D01*
X176032135Y-72756281D01*
X176032137Y-72756279D01*
X176032139Y-72756279D01*
X176163360Y-72680518D01*
X176163360Y-72680517D01*
X176163365Y-72680515D01*
X176270515Y-72573365D01*
X176346281Y-72442135D01*
X176385500Y-72295766D01*
X176385500Y-72144234D01*
X176346281Y-71997865D01*
X176346279Y-71997862D01*
X176346279Y-71997860D01*
X176270518Y-71866639D01*
X176270516Y-71866637D01*
X176270515Y-71866635D01*
X176163365Y-71759485D01*
X176163362Y-71759483D01*
X176163360Y-71759481D01*
X176032138Y-71683720D01*
X176032140Y-71683720D01*
X175975347Y-71668503D01*
X175885766Y-71644500D01*
X175734234Y-71644500D01*
X175644652Y-71668503D01*
X175587860Y-71683720D01*
X175456639Y-71759481D01*
X175349481Y-71866639D01*
X175273720Y-71997860D01*
X175273719Y-71997865D01*
X175234500Y-72144234D01*
X173699933Y-72144234D01*
X173699858Y-72143843D01*
X173696929Y-72136772D01*
X173652383Y-72070106D01*
X172352381Y-70770104D01*
X172352377Y-70770101D01*
X172352376Y-70770100D01*
X172314624Y-70744874D01*
X172314195Y-70744330D01*
X172313530Y-70744133D01*
X172295289Y-70720347D01*
X172276745Y-70696824D01*
X172276717Y-70696130D01*
X172276296Y-70695581D01*
X172275521Y-70665659D01*
X172274344Y-70635686D01*
X172274729Y-70635108D01*
X172274712Y-70634416D01*
X172291684Y-70609734D01*
X172308338Y-70584812D01*
X172308988Y-70584572D01*
X172309381Y-70584001D01*
X172337623Y-70574008D01*
X172365742Y-70563636D01*
X172366963Y-70563596D01*
X172487259Y-70560479D01*
X172489029Y-70560451D01*
X174014119Y-70550548D01*
X174017047Y-70550574D01*
G37*
G04 #@! TD.AperFunction*
G04 #@! TA.AperFunction,Conductor*
G36*
X182671428Y-87547881D02*
G01*
X182714695Y-87591143D01*
X182724902Y-87646861D01*
X182724489Y-87650633D01*
X182724489Y-87650638D01*
X182724489Y-87650639D01*
X182727635Y-87722680D01*
X182729651Y-87768843D01*
X182729651Y-87768845D01*
X182774927Y-87878149D01*
X182774928Y-87878151D01*
X182824292Y-87932023D01*
X182849665Y-87987698D01*
X182850301Y-87998905D01*
X182850301Y-91372004D01*
X182831394Y-91430195D01*
X182821305Y-91442008D01*
X182222810Y-92040504D01*
X182168293Y-92068281D01*
X182152806Y-92069500D01*
X182003072Y-92069500D01*
X181931731Y-92088616D01*
X181931730Y-92088616D01*
X181931728Y-92088617D01*
X181885165Y-92115500D01*
X181867769Y-92125543D01*
X180986338Y-93006973D01*
X180931822Y-93034750D01*
X180871390Y-93025179D01*
X180828125Y-92981914D01*
X180818554Y-92921482D01*
X180824871Y-92899083D01*
X180989050Y-92502720D01*
X181000472Y-92467566D01*
X181018494Y-92304336D01*
X181018493Y-92304328D01*
X180995355Y-92141745D01*
X180995353Y-92141740D01*
X180932509Y-91990020D01*
X180932509Y-91990019D01*
X180833899Y-91858683D01*
X180705735Y-91756004D01*
X180703504Y-91754867D01*
X180230970Y-92895671D01*
X179758433Y-94036472D01*
X179760811Y-94037245D01*
X179802147Y-94041809D01*
X179823048Y-94051246D01*
X179845200Y-94057181D01*
X179850392Y-94063592D01*
X179857911Y-94066987D01*
X179869273Y-94086906D01*
X179883707Y-94104729D01*
X179884139Y-94112967D01*
X179888227Y-94120134D01*
X179886912Y-94165831D01*
X179879888Y-94192047D01*
X179879654Y-94192916D01*
X179879654Y-94245448D01*
X179872118Y-94283334D01*
X179460199Y-95277793D01*
X179460198Y-95277798D01*
X179443296Y-95344544D01*
X179450544Y-95461295D01*
X179450545Y-95461299D01*
X179450546Y-95461300D01*
X179495307Y-95569365D01*
X179526192Y-95604339D01*
X179572739Y-95657048D01*
X179631887Y-95692292D01*
X179970507Y-95832554D01*
X180037253Y-95849456D01*
X180154004Y-95842207D01*
X180262076Y-95797442D01*
X180349756Y-95720012D01*
X180373457Y-95680236D01*
X180384999Y-95660869D01*
X180387343Y-95655212D01*
X180860110Y-94513850D01*
X180877012Y-94447104D01*
X180869764Y-94330353D01*
X180827950Y-94229405D01*
X180825000Y-94222282D01*
X180818872Y-94215343D01*
X180764378Y-94153635D01*
X180740033Y-94097505D01*
X180753330Y-94037782D01*
X180768578Y-94018106D01*
X181545497Y-93241188D01*
X181600013Y-93213412D01*
X181660445Y-93222983D01*
X181703710Y-93266248D01*
X181714500Y-93311193D01*
X181714500Y-93899746D01*
X181714501Y-93899758D01*
X181726132Y-93958227D01*
X181726134Y-93958233D01*
X181770445Y-94024548D01*
X181770448Y-94024552D01*
X181836769Y-94068867D01*
X181881231Y-94077711D01*
X181895241Y-94080498D01*
X181895246Y-94080498D01*
X181895252Y-94080500D01*
X181895253Y-94080500D01*
X184684747Y-94080500D01*
X184684748Y-94080500D01*
X184743231Y-94068867D01*
X184809552Y-94024552D01*
X184853867Y-93958231D01*
X184865500Y-93899748D01*
X184865500Y-93759500D01*
X184884407Y-93701309D01*
X184933907Y-93665345D01*
X184964500Y-93660500D01*
X186482390Y-93660500D01*
X186540581Y-93679407D01*
X186552393Y-93689496D01*
X186603385Y-93740488D01*
X186603391Y-93740492D01*
X186706110Y-93799797D01*
X186706111Y-93799797D01*
X186706114Y-93799799D01*
X186820691Y-93830500D01*
X186820693Y-93830500D01*
X186939307Y-93830500D01*
X186939309Y-93830500D01*
X187053886Y-93799799D01*
X187053888Y-93799797D01*
X187053890Y-93799797D01*
X187156608Y-93740492D01*
X187156609Y-93740491D01*
X187156613Y-93740489D01*
X187177096Y-93720006D01*
X187207607Y-93689496D01*
X187214723Y-93685870D01*
X187219419Y-93679407D01*
X187241470Y-93672242D01*
X187262124Y-93661719D01*
X187277610Y-93660500D01*
X187375500Y-93660500D01*
X187433691Y-93679407D01*
X187469655Y-93728907D01*
X187474500Y-93759500D01*
X187474500Y-93899746D01*
X187474501Y-93899758D01*
X187486132Y-93958227D01*
X187486134Y-93958233D01*
X187530445Y-94024548D01*
X187530448Y-94024552D01*
X187596769Y-94068867D01*
X187641231Y-94077711D01*
X187655241Y-94080498D01*
X187655246Y-94080498D01*
X187655252Y-94080500D01*
X190331500Y-94080500D01*
X190389691Y-94099407D01*
X190425655Y-94148907D01*
X190430500Y-94179500D01*
X190430500Y-96580500D01*
X190411593Y-96638691D01*
X190362093Y-96674655D01*
X190331500Y-96679500D01*
X187655252Y-96679500D01*
X187655251Y-96679500D01*
X187655241Y-96679501D01*
X187596772Y-96691132D01*
X187596766Y-96691134D01*
X187530451Y-96735445D01*
X187530445Y-96735451D01*
X187486134Y-96801766D01*
X187486132Y-96801772D01*
X187474501Y-96860241D01*
X187474500Y-96860253D01*
X187474500Y-97000502D01*
X187455593Y-97058693D01*
X187406093Y-97094657D01*
X187375500Y-97099502D01*
X184964500Y-97099502D01*
X184906309Y-97080595D01*
X184870345Y-97031095D01*
X184865500Y-97000502D01*
X184865500Y-96860253D01*
X184865498Y-96860241D01*
X184859963Y-96832418D01*
X184853867Y-96801769D01*
X184809552Y-96735448D01*
X184804500Y-96732072D01*
X184743233Y-96691134D01*
X184743231Y-96691133D01*
X184743228Y-96691132D01*
X184743227Y-96691132D01*
X184684758Y-96679501D01*
X184684748Y-96679500D01*
X181895252Y-96679500D01*
X181895251Y-96679500D01*
X181895241Y-96679501D01*
X181836772Y-96691132D01*
X181836766Y-96691134D01*
X181770451Y-96735445D01*
X181770445Y-96735451D01*
X181726134Y-96801766D01*
X181726132Y-96801772D01*
X181714501Y-96860241D01*
X181714500Y-96860253D01*
X181714500Y-97461797D01*
X181695593Y-97519988D01*
X181646093Y-97555952D01*
X181615500Y-97560797D01*
X180631090Y-97560797D01*
X180572899Y-97541890D01*
X180536935Y-97492390D01*
X180536935Y-97431204D01*
X180572899Y-97381704D01*
X180605464Y-97366171D01*
X180703886Y-97339799D01*
X180703888Y-97339797D01*
X180703890Y-97339797D01*
X180806608Y-97280492D01*
X180806608Y-97280491D01*
X180806613Y-97280489D01*
X180890489Y-97196613D01*
X180897152Y-97185072D01*
X180949797Y-97093890D01*
X180949797Y-97093888D01*
X180949799Y-97093886D01*
X180980500Y-96979309D01*
X180980500Y-96860691D01*
X180949799Y-96746114D01*
X180949797Y-96746111D01*
X180949797Y-96746109D01*
X180890492Y-96643391D01*
X180890490Y-96643389D01*
X180890489Y-96643387D01*
X180806613Y-96559511D01*
X180806610Y-96559509D01*
X180806608Y-96559507D01*
X180703889Y-96500202D01*
X180703890Y-96500202D01*
X180687961Y-96495934D01*
X180589309Y-96469500D01*
X180589307Y-96469500D01*
X180515489Y-96469500D01*
X180469905Y-96458381D01*
X180459855Y-96453168D01*
X180457400Y-96450713D01*
X180393438Y-96413785D01*
X180384168Y-96411301D01*
X180373766Y-96408513D01*
X180373765Y-96408513D01*
X180322100Y-96394669D01*
X180322098Y-96394669D01*
X180322097Y-96394669D01*
X179587560Y-96394669D01*
X179529369Y-96375762D01*
X179514569Y-96362552D01*
X179444091Y-96285639D01*
X179444090Y-96285638D01*
X179444089Y-96285637D01*
X179401413Y-96260998D01*
X179401414Y-96260998D01*
X179401410Y-96260996D01*
X179079312Y-96127579D01*
X179079313Y-96127579D01*
X179031722Y-96114827D01*
X179031719Y-96114827D01*
X178943066Y-96118698D01*
X178913514Y-96119989D01*
X178913512Y-96119989D01*
X178804208Y-96165265D01*
X178804205Y-96165267D01*
X178793369Y-96175197D01*
X178737692Y-96200568D01*
X178677735Y-96188368D01*
X178636400Y-96143256D01*
X178627582Y-96106523D01*
X178626941Y-96091839D01*
X178626908Y-96091760D01*
X178581664Y-95982532D01*
X178581664Y-95982531D01*
X178501731Y-95895299D01*
X178459055Y-95870660D01*
X178459056Y-95870660D01*
X178459052Y-95870658D01*
X178136954Y-95737241D01*
X178136955Y-95737241D01*
X178082045Y-95722528D01*
X178082877Y-95719421D01*
X178039860Y-95700018D01*
X178009525Y-95646883D01*
X178007460Y-95626769D01*
X178007460Y-95167597D01*
X178026367Y-95109406D01*
X178075867Y-95073442D01*
X178137053Y-95073442D01*
X178144333Y-95076128D01*
X178215136Y-95105456D01*
X178281882Y-95122358D01*
X178398633Y-95115109D01*
X178506705Y-95070344D01*
X178594385Y-94992914D01*
X178629630Y-94933767D01*
X179083700Y-93837543D01*
X179123437Y-93791019D01*
X179182931Y-93776735D01*
X179237063Y-93798168D01*
X179294265Y-93843995D01*
X179294269Y-93843999D01*
X179296493Y-93845131D01*
X179673358Y-92935299D01*
X179165225Y-92724823D01*
X179010949Y-93097279D01*
X178999527Y-93132433D01*
X178985769Y-93257044D01*
X178960590Y-93312808D01*
X178907442Y-93343122D01*
X178849483Y-93337643D01*
X178721571Y-93284660D01*
X178594434Y-93231997D01*
X178584790Y-93229555D01*
X178527684Y-93215094D01*
X178527683Y-93215094D01*
X178410930Y-93222343D01*
X178302861Y-93267107D01*
X178302860Y-93267107D01*
X178215183Y-93344535D01*
X178215179Y-93344540D01*
X178179937Y-93403680D01*
X177768015Y-94398148D01*
X177746555Y-94430265D01*
X177554731Y-94622090D01*
X177554731Y-94622091D01*
X177554729Y-94622093D01*
X177554728Y-94622092D01*
X177502506Y-94674315D01*
X177465576Y-94738279D01*
X177465576Y-94738280D01*
X177446460Y-94809621D01*
X177446460Y-94809623D01*
X177446460Y-96167730D01*
X177446459Y-96167730D01*
X177451990Y-96188368D01*
X177454911Y-96199269D01*
X177465576Y-96239070D01*
X177502504Y-96303032D01*
X177502506Y-96303034D01*
X177538610Y-96339139D01*
X177566387Y-96393656D01*
X177567512Y-96404821D01*
X177570361Y-96470054D01*
X177570701Y-96477823D01*
X177615978Y-96587131D01*
X177695911Y-96674363D01*
X177738587Y-96699002D01*
X177738589Y-96699003D01*
X177776729Y-96714801D01*
X178060681Y-96832418D01*
X178060684Y-96832418D01*
X178060687Y-96832420D01*
X178060686Y-96832420D01*
X178108277Y-96845172D01*
X178108281Y-96845173D01*
X178226485Y-96840011D01*
X178335793Y-96794734D01*
X178346629Y-96784804D01*
X178402301Y-96759432D01*
X178462259Y-96771628D01*
X178503596Y-96816738D01*
X178512417Y-96853472D01*
X178513058Y-96868160D01*
X178513059Y-96868163D01*
X178558335Y-96977467D01*
X178558336Y-96977469D01*
X178638269Y-97064701D01*
X178680945Y-97089340D01*
X178680947Y-97089341D01*
X178693781Y-97094657D01*
X179003039Y-97222756D01*
X179003042Y-97222756D01*
X179003045Y-97222758D01*
X179003044Y-97222758D01*
X179050635Y-97235510D01*
X179050639Y-97235511D01*
X179168843Y-97230349D01*
X179278151Y-97185072D01*
X179365383Y-97105139D01*
X179390022Y-97062463D01*
X179408944Y-97016782D01*
X179448681Y-96970257D01*
X179500408Y-96955669D01*
X179997201Y-96955669D01*
X180055392Y-96974576D01*
X180091356Y-97024076D01*
X180092818Y-97029013D01*
X180102380Y-97064698D01*
X180110202Y-97093890D01*
X180169507Y-97196608D01*
X180169509Y-97196610D01*
X180169511Y-97196613D01*
X180253387Y-97280489D01*
X180253389Y-97280490D01*
X180253391Y-97280492D01*
X180356110Y-97339797D01*
X180356111Y-97339797D01*
X180356114Y-97339799D01*
X180454534Y-97366170D01*
X180505848Y-97399494D01*
X180527774Y-97456616D01*
X180511938Y-97515716D01*
X180464388Y-97554222D01*
X180428910Y-97560797D01*
X175364897Y-97560797D01*
X175306706Y-97541890D01*
X175270742Y-97492390D01*
X175270742Y-97431204D01*
X175294893Y-97391793D01*
X175427775Y-97258911D01*
X175745455Y-96941232D01*
X175748157Y-96936553D01*
X175782384Y-96877269D01*
X175788867Y-96853076D01*
X175801500Y-96805929D01*
X175801500Y-96732072D01*
X175801500Y-92262882D01*
X179356567Y-92262882D01*
X179864699Y-92473358D01*
X180241566Y-91563525D01*
X180239192Y-91562754D01*
X180239194Y-91562754D01*
X180075958Y-91544732D01*
X180075950Y-91544733D01*
X179913366Y-91567871D01*
X179913362Y-91567873D01*
X179761638Y-91630718D01*
X179630305Y-91729327D01*
X179527623Y-91857495D01*
X179510841Y-91890433D01*
X179356567Y-92262882D01*
X175801500Y-92262882D01*
X175801500Y-91174072D01*
X175801113Y-91172629D01*
X175782384Y-91102731D01*
X175774070Y-91088331D01*
X175745456Y-91038769D01*
X175693231Y-90986543D01*
X175693231Y-90986544D01*
X175693230Y-90986543D01*
X175471187Y-90764500D01*
X175156189Y-90449503D01*
X175128413Y-90394987D01*
X175137984Y-90334555D01*
X175181249Y-90291290D01*
X175226194Y-90280500D01*
X175874747Y-90280500D01*
X175874748Y-90280500D01*
X175933231Y-90268867D01*
X175999552Y-90224552D01*
X176043867Y-90158231D01*
X176055500Y-90099748D01*
X176055500Y-89959500D01*
X176074407Y-89901309D01*
X176123907Y-89865345D01*
X176154500Y-89860500D01*
X178565500Y-89860500D01*
X178623691Y-89879407D01*
X178659655Y-89928907D01*
X178664500Y-89959500D01*
X178664500Y-90099746D01*
X178664501Y-90099758D01*
X178676132Y-90158227D01*
X178676134Y-90158233D01*
X178720445Y-90224548D01*
X178720448Y-90224552D01*
X178786769Y-90268867D01*
X178831231Y-90277711D01*
X178845241Y-90280498D01*
X178845246Y-90280498D01*
X178845252Y-90280500D01*
X178845253Y-90280500D01*
X181634747Y-90280500D01*
X181634748Y-90280500D01*
X181693231Y-90268867D01*
X181759552Y-90224552D01*
X181803867Y-90158231D01*
X181815500Y-90099748D01*
X181815500Y-89132194D01*
X181834407Y-89074003D01*
X181844496Y-89062190D01*
X182127179Y-88779507D01*
X182464456Y-88442231D01*
X182464458Y-88442226D01*
X182464460Y-88442225D01*
X182489677Y-88398547D01*
X182489678Y-88398544D01*
X182501384Y-88378269D01*
X182520500Y-88306928D01*
X182520500Y-87643084D01*
X182539407Y-87584893D01*
X182549491Y-87573085D01*
X182556482Y-87566093D01*
X182610995Y-87538314D01*
X182671428Y-87547881D01*
G37*
G04 #@! TD.AperFunction*
M02*
