G04 #@! TF.GenerationSoftware,KiCad,Pcbnew,9.0.2*
G04 #@! TF.CreationDate,2025-06-26T14:40:00-07:00*
G04 #@! TF.ProjectId,pawb_sao,70617762-5f73-4616-9f2e-6b696361645f,rev?*
G04 #@! TF.SameCoordinates,Original*
G04 #@! TF.FileFunction,Legend,Top*
G04 #@! TF.FilePolarity,Positive*
%FSLAX46Y46*%
G04 Gerber Fmt 4.6, Leading zero omitted, Abs format (unit mm)*
G04 Created by KiCad (PCBNEW 9.0.2) date 2025-06-26 14:40:00*
%MOMM*%
%LPD*%
G01*
G04 APERTURE LIST*
G04 Aperture macros list*
%AMRoundRect*
0 Rectangle with rounded corners*
0 $1 Rounding radius*
0 $2 $3 $4 $5 $6 $7 $8 $9 X,Y pos of 4 corners*
0 Add a 4 corners polygon primitive as box body*
4,1,4,$2,$3,$4,$5,$6,$7,$8,$9,$2,$3,0*
0 Add four circle primitives for the rounded corners*
1,1,$1+$1,$2,$3*
1,1,$1+$1,$4,$5*
1,1,$1+$1,$6,$7*
1,1,$1+$1,$8,$9*
0 Add four rect primitives between the rounded corners*
20,1,$1+$1,$2,$3,$4,$5,0*
20,1,$1+$1,$4,$5,$6,$7,0*
20,1,$1+$1,$6,$7,$8,$9,0*
20,1,$1+$1,$8,$9,$2,$3,0*%
G04 Aperture macros list end*
%ADD10C,0.000000*%
%ADD11C,0.120000*%
%ADD12C,0.127000*%
%ADD13C,0.010000*%
%ADD14R,2.750000X1.000000*%
%ADD15RoundRect,0.135000X0.185000X-0.135000X0.185000X0.135000X-0.185000X0.135000X-0.185000X-0.135000X0*%
%ADD16RoundRect,0.135000X-0.195520X-0.119255X0.053927X-0.222580X0.195520X0.119255X-0.053927X0.222580X0*%
%ADD17C,2.250000*%
%ADD18RoundRect,0.218750X-0.218750X-0.256250X0.218750X-0.256250X0.218750X0.256250X-0.218750X0.256250X0*%
%ADD19RoundRect,0.135000X-0.185000X0.135000X-0.185000X-0.135000X0.185000X-0.135000X0.185000X0.135000X0*%
%ADD20RoundRect,0.150000X-0.086245X-0.600182X0.363408X0.485377X0.086245X0.600182X-0.363408X-0.485377X0*%
%ADD21RoundRect,0.225000X0.250000X-0.225000X0.250000X0.225000X-0.250000X0.225000X-0.250000X-0.225000X0*%
%ADD22RoundRect,0.100000X-0.637500X-0.100000X0.637500X-0.100000X0.637500X0.100000X-0.637500X0.100000X0*%
%ADD23RoundRect,0.135000X0.195520X0.119255X-0.053927X0.222580X-0.195520X-0.119255X0.053927X-0.222580X0*%
%ADD24RoundRect,0.135000X0.135000X0.185000X-0.135000X0.185000X-0.135000X-0.185000X0.135000X-0.185000X0*%
%ADD25RoundRect,0.218750X0.218750X0.256250X-0.218750X0.256250X-0.218750X-0.256250X0.218750X-0.256250X0*%
%ADD26RoundRect,0.135000X0.119255X-0.195520X0.222580X0.053927X-0.119255X0.195520X-0.222580X-0.053927X0*%
%ADD27RoundRect,0.135000X-0.053927X-0.222580X0.195520X-0.119255X0.053927X0.222580X-0.195520X0.119255X0*%
%ADD28R,1.700000X1.700000*%
%ADD29C,1.700000*%
%ADD30C,0.990600*%
G04 APERTURE END LIST*
D10*
G36*
X185219631Y-81538561D02*
G01*
X185538058Y-81797219D01*
X185890890Y-82187935D01*
X186258097Y-82677671D01*
X186619649Y-83233387D01*
X186955516Y-83822044D01*
X187245669Y-84410604D01*
X187470076Y-84966028D01*
X187608709Y-85455278D01*
X187641537Y-85845313D01*
X187639005Y-85871130D01*
X187606250Y-86154583D01*
X186032770Y-86183942D01*
X184459291Y-86213300D01*
X184531320Y-85866442D01*
X184556961Y-85652863D01*
X184584903Y-85267695D01*
X184612973Y-84750967D01*
X184638995Y-84142711D01*
X184660797Y-83482955D01*
X184660816Y-83482291D01*
X184681272Y-82779313D01*
X184699962Y-82260087D01*
X184720913Y-81896776D01*
X184748154Y-81661547D01*
X184785713Y-81526562D01*
X184837617Y-81463987D01*
X184907896Y-81445986D01*
X184955639Y-81445000D01*
X185219631Y-81538561D01*
G37*
G36*
X176083577Y-71317358D02*
G01*
X176520954Y-71632218D01*
X176971890Y-72110447D01*
X177410944Y-72707371D01*
X177812675Y-73378317D01*
X178151640Y-74078610D01*
X178402399Y-74763576D01*
X178539510Y-75388543D01*
X178557500Y-75661401D01*
X178519268Y-76001968D01*
X178384524Y-76171129D01*
X178123191Y-76189348D01*
X177869583Y-76129462D01*
X177623289Y-76085558D01*
X177232791Y-76047598D01*
X176765552Y-76021419D01*
X176546666Y-76015005D01*
X175541250Y-75994583D01*
X175594166Y-75412500D01*
X175627501Y-74872178D01*
X175643504Y-74225787D01*
X175642709Y-73543239D01*
X175625654Y-72894448D01*
X175592873Y-72349330D01*
X175568960Y-72123724D01*
X175537241Y-71703993D01*
X175580020Y-71435402D01*
X175629548Y-71343999D01*
X175743012Y-71223949D01*
X175875939Y-71221933D01*
X176083577Y-71317358D01*
G37*
G36*
X158775620Y-83455833D02*
G01*
X158806355Y-84075853D01*
X158848928Y-84668825D01*
X158898528Y-85180431D01*
X158950344Y-85556354D01*
X158970513Y-85656143D01*
X159050007Y-86026114D01*
X159059656Y-86272627D01*
X158969858Y-86420725D01*
X158751014Y-86495451D01*
X158373523Y-86521849D01*
X157943549Y-86525000D01*
X157379823Y-86536879D01*
X156994965Y-86575142D01*
X156757370Y-86643728D01*
X156696686Y-86680384D01*
X156454344Y-86817678D01*
X156286660Y-86780353D01*
X156162043Y-86553085D01*
X156115234Y-86398372D01*
X156064570Y-85892021D01*
X156137097Y-85267724D01*
X156320139Y-84569840D01*
X156601020Y-83842728D01*
X156967065Y-83130746D01*
X157119879Y-82882610D01*
X157486192Y-82372703D01*
X157816994Y-82042776D01*
X158138754Y-81870418D01*
X158360648Y-81832015D01*
X158713750Y-81815416D01*
X158775620Y-83455833D01*
G37*
G36*
X167435948Y-71344316D02*
G01*
X167488784Y-71603786D01*
X167499629Y-72027862D01*
X167477628Y-72639049D01*
X167476427Y-72663086D01*
X167459496Y-73560739D01*
X167495945Y-74412813D01*
X167545707Y-74887743D01*
X167594584Y-75321341D01*
X167615093Y-75674961D01*
X167605168Y-75897059D01*
X167588019Y-75942802D01*
X167459547Y-75973190D01*
X167168850Y-76003249D01*
X166764013Y-76031135D01*
X166293126Y-76055000D01*
X165804275Y-76072999D01*
X165345546Y-76083284D01*
X164965028Y-76084010D01*
X164710807Y-76073330D01*
X164631522Y-76056319D01*
X164602692Y-75931497D01*
X164588957Y-75681945D01*
X164588756Y-75632986D01*
X164656866Y-75071160D01*
X164841932Y-74426425D01*
X165120085Y-73742589D01*
X165467455Y-73063462D01*
X165860173Y-72432854D01*
X166274370Y-71894576D01*
X166686174Y-71492436D01*
X166934030Y-71328506D01*
X167167717Y-71229180D01*
X167331974Y-71226948D01*
X167435948Y-71344316D01*
G37*
G36*
X186753397Y-87511034D02*
G01*
X187397902Y-87788590D01*
X188048917Y-88265819D01*
X188530442Y-88733065D01*
X189355052Y-89744146D01*
X189988252Y-90817837D01*
X190427380Y-91938736D01*
X190669776Y-93091441D01*
X190712779Y-94260549D01*
X190553726Y-95430657D01*
X190189957Y-96586364D01*
X189971316Y-97072250D01*
X189436266Y-97947000D01*
X188781346Y-98648831D01*
X188014283Y-99173709D01*
X187142800Y-99517602D01*
X186174623Y-99676476D01*
X185117477Y-99646297D01*
X185055376Y-99638883D01*
X184377832Y-99487458D01*
X183672414Y-99216147D01*
X183024194Y-98862925D01*
X182599054Y-98542460D01*
X182214961Y-98077070D01*
X181924668Y-97455385D01*
X181726674Y-96669639D01*
X181619477Y-95712070D01*
X181601574Y-94574913D01*
X181645034Y-93611671D01*
X181778419Y-92322508D01*
X182000586Y-91212941D01*
X182320003Y-90266726D01*
X182745134Y-89467622D01*
X183284446Y-88799387D01*
X183946405Y-88245779D01*
X184658851Y-87829728D01*
X185403879Y-87536272D01*
X186095392Y-87428484D01*
X186753397Y-87511034D01*
G37*
G36*
X177061170Y-77513694D02*
G01*
X177678530Y-77676484D01*
X178156942Y-77844479D01*
X178973929Y-78258630D01*
X179740130Y-78859939D01*
X180442267Y-79627249D01*
X181067066Y-80539401D01*
X181601250Y-81575238D01*
X182031543Y-82713601D01*
X182344670Y-83933332D01*
X182474751Y-84725833D01*
X182551803Y-85968975D01*
X182461622Y-87150285D01*
X182213727Y-88253454D01*
X181817634Y-89262174D01*
X181282861Y-90160134D01*
X180618926Y-90931027D01*
X179835346Y-91558543D01*
X178941639Y-92026373D01*
X178056887Y-92296167D01*
X177436756Y-92404511D01*
X176920649Y-92431947D01*
X176417113Y-92378754D01*
X176058087Y-92302252D01*
X175266014Y-92005246D01*
X174550358Y-91532524D01*
X173952918Y-90917187D01*
X173589718Y-90347516D01*
X173454680Y-90036649D01*
X173298067Y-89607940D01*
X173151438Y-89148432D01*
X173137118Y-89099205D01*
X173012478Y-88497987D01*
X172929782Y-87741920D01*
X172889014Y-86883623D01*
X172890161Y-85975713D01*
X172933205Y-85070809D01*
X173018132Y-84221528D01*
X173138757Y-83508750D01*
X173388263Y-82503176D01*
X173695617Y-81507217D01*
X174045644Y-80557182D01*
X174423169Y-79689379D01*
X174813016Y-78940117D01*
X175200010Y-78345704D01*
X175395421Y-78109489D01*
X175764682Y-77766455D01*
X176140935Y-77555159D01*
X176560867Y-77472079D01*
X177061170Y-77513694D01*
G37*
G36*
X157972916Y-87849962D02*
G01*
X158447915Y-87863041D01*
X158797768Y-87911790D01*
X159108290Y-88014582D01*
X159400515Y-88155611D01*
X160162539Y-88669571D01*
X160837017Y-89359066D01*
X161407383Y-90200221D01*
X161857072Y-91169161D01*
X162138128Y-92101290D01*
X162410890Y-93504306D01*
X162554237Y-94804265D01*
X162568431Y-95986784D01*
X162453734Y-97037484D01*
X162210409Y-97941986D01*
X162023949Y-98367835D01*
X161795927Y-98770856D01*
X161572707Y-99044038D01*
X161290667Y-99257844D01*
X161140492Y-99346255D01*
X160576315Y-99601615D01*
X159889623Y-99819077D01*
X159142505Y-99987224D01*
X158397048Y-100094638D01*
X157715342Y-100129902D01*
X157159474Y-100081599D01*
X157150938Y-100079880D01*
X156639393Y-99891117D01*
X156082804Y-99542660D01*
X155518708Y-99069711D01*
X154984639Y-98507470D01*
X154518134Y-97891137D01*
X154170357Y-97284724D01*
X153821347Y-96460006D01*
X153594118Y-95672380D01*
X153470351Y-94839979D01*
X153432293Y-93986250D01*
X153431410Y-93462696D01*
X153447896Y-93083255D01*
X153494194Y-92780430D01*
X153582743Y-92486723D01*
X153725984Y-92134638D01*
X153808176Y-91946931D01*
X154348920Y-90814316D01*
X154886031Y-89881204D01*
X155428093Y-89135784D01*
X155983695Y-88566244D01*
X156560216Y-88161443D01*
X156884457Y-87997167D01*
X157171217Y-87902589D01*
X157502803Y-87859562D01*
X157961526Y-87849938D01*
X157972916Y-87849962D01*
G37*
G36*
X167402760Y-77589983D02*
G01*
X167648159Y-77683517D01*
X168145964Y-78046389D01*
X168623007Y-78594332D01*
X169072521Y-79301212D01*
X169487737Y-80140896D01*
X169861887Y-81087251D01*
X170188202Y-82114143D01*
X170459915Y-83195440D01*
X170670256Y-84305008D01*
X170812457Y-85416713D01*
X170879750Y-86504424D01*
X170865367Y-87542005D01*
X170762539Y-88503325D01*
X170621688Y-89164561D01*
X170442804Y-89693429D01*
X170184996Y-90289683D01*
X169890490Y-90864303D01*
X169601514Y-91328270D01*
X169583669Y-91352830D01*
X169258919Y-91718690D01*
X168878806Y-91983604D01*
X168405456Y-92161804D01*
X167800995Y-92267525D01*
X167027547Y-92315000D01*
X167023060Y-92315118D01*
X166415101Y-92322299D01*
X165957479Y-92303244D01*
X165589881Y-92252417D01*
X165251992Y-92164278D01*
X165201089Y-92147809D01*
X164273368Y-91748542D01*
X163477730Y-91200387D01*
X163226289Y-90971924D01*
X162557829Y-90180858D01*
X162019127Y-89246320D01*
X161613999Y-88194959D01*
X161346260Y-87053425D01*
X161219727Y-85848367D01*
X161238215Y-84606436D01*
X161405541Y-83354280D01*
X161725520Y-82118549D01*
X161891437Y-81649632D01*
X162170112Y-81033990D01*
X162538661Y-80379958D01*
X162953890Y-79754853D01*
X163372606Y-79225991D01*
X163595005Y-78994606D01*
X164196690Y-78507937D01*
X164862097Y-78105944D01*
X165553317Y-77800889D01*
X166232441Y-77605036D01*
X166861558Y-77530646D01*
X167402760Y-77589983D01*
G37*
G36*
X172790961Y-94274538D02*
G01*
X173342663Y-94433729D01*
X173939256Y-94714995D01*
X174606895Y-95131386D01*
X175371735Y-95695948D01*
X175648629Y-95915953D01*
X176469020Y-96565027D01*
X177265486Y-97167089D01*
X178079966Y-97751430D01*
X178954395Y-98347342D01*
X179930709Y-98984117D01*
X181050844Y-99691047D01*
X181073760Y-99705329D01*
X182059729Y-100328066D01*
X182881289Y-100869079D01*
X183560005Y-101347718D01*
X184117444Y-101783332D01*
X184575173Y-102195271D01*
X184954757Y-102602883D01*
X185277764Y-103025519D01*
X185565760Y-103482526D01*
X185829732Y-103972371D01*
X186038855Y-104409282D01*
X186159901Y-104748786D01*
X186215092Y-105074133D01*
X186226705Y-105459433D01*
X186196881Y-105952334D01*
X186093213Y-106367858D01*
X185909205Y-106785611D01*
X185479459Y-107485243D01*
X184941968Y-108109468D01*
X184345906Y-108606443D01*
X183975124Y-108824685D01*
X183728282Y-108940789D01*
X183510504Y-109021558D01*
X183276031Y-109073211D01*
X182979101Y-109101969D01*
X182573956Y-109114055D01*
X182014836Y-109115687D01*
X181838333Y-109115165D01*
X181220591Y-109108556D01*
X180718750Y-109088185D01*
X180268081Y-109046084D01*
X179803851Y-108974280D01*
X179261330Y-108864805D01*
X178610416Y-108717714D01*
X177650508Y-108499079D01*
X176851393Y-108327538D01*
X176169094Y-108196594D01*
X175559635Y-108099752D01*
X174979038Y-108030519D01*
X174383325Y-107982397D01*
X173728520Y-107948894D01*
X173300354Y-107933472D01*
X172027867Y-107923244D01*
X170855309Y-107985256D01*
X169707445Y-108128247D01*
X168509042Y-108360957D01*
X167504911Y-108606672D01*
X166446849Y-108874955D01*
X165486639Y-109099872D01*
X164646483Y-109276956D01*
X163948582Y-109401738D01*
X163415137Y-109469750D01*
X163158750Y-109481307D01*
X162747601Y-109452630D01*
X162266294Y-109387015D01*
X161985156Y-109333790D01*
X161024718Y-109028483D01*
X160192951Y-108562262D01*
X159500413Y-107943059D01*
X158957665Y-107178806D01*
X158854468Y-106982002D01*
X158675623Y-106589496D01*
X158584670Y-106275171D01*
X158560507Y-105935761D01*
X158573309Y-105606169D01*
X158706459Y-104826340D01*
X159016533Y-104048107D01*
X159509017Y-103264851D01*
X160189393Y-102469955D01*
X161063147Y-101656800D01*
X162135762Y-100818768D01*
X163082938Y-100164049D01*
X163577334Y-99844425D01*
X164078588Y-99532038D01*
X164522288Y-99266423D01*
X164799331Y-99110539D01*
X165180205Y-98879878D01*
X165674439Y-98532134D01*
X166290100Y-98060988D01*
X167035254Y-97460123D01*
X167917966Y-96723220D01*
X168715000Y-96043197D01*
X169582764Y-95346002D01*
X170364347Y-94824602D01*
X171077023Y-94470128D01*
X171738065Y-94273714D01*
X172257996Y-94224375D01*
X172790961Y-94274538D01*
G37*
D11*
X154720000Y-92830000D02*
X154720000Y-93230000D01*
X154720000Y-97280000D02*
X154720000Y-94580000D01*
X154720000Y-99030000D02*
X154720000Y-98580000D01*
X161420000Y-92830000D02*
X154720000Y-92830000D01*
X161420000Y-93280000D02*
X161420000Y-92830000D01*
X161420000Y-94580000D02*
X161420000Y-97280000D01*
X161420000Y-98580000D02*
X161420000Y-99030000D01*
X161420000Y-99030000D02*
X154720000Y-99030000D01*
X159720000Y-83471141D02*
X159720000Y-83163859D01*
X160480000Y-83471141D02*
X160480000Y-83163859D01*
X174010000Y-84480000D02*
X174010000Y-84880000D01*
X174010000Y-88930000D02*
X174010000Y-86230000D01*
X174010000Y-90680000D02*
X174010000Y-90230000D01*
X180710000Y-84480000D02*
X174010000Y-84480000D01*
X180710000Y-84930000D02*
X180710000Y-84480000D01*
X180710000Y-86230000D02*
X180710000Y-88930000D01*
X180710000Y-90230000D02*
X180710000Y-90680000D01*
X180710000Y-90680000D02*
X174010000Y-90680000D01*
D12*
X168134137Y-75695456D02*
X170255457Y-73574137D01*
X170255456Y-81705863D02*
X168134137Y-79584543D01*
X173614213Y-84357514D02*
X174321321Y-85064620D01*
X173614213Y-85064622D02*
X174321320Y-84357513D01*
X174144543Y-81705863D02*
X176265863Y-79584544D01*
X176265863Y-75695457D02*
X174144544Y-73574137D01*
X178740739Y-78877437D02*
X179447845Y-79584543D01*
D11*
X178282635Y-96772277D02*
X178566526Y-96889870D01*
X178573474Y-96070130D02*
X178857365Y-96187723D01*
X162550000Y-84630000D02*
X162550000Y-85030000D01*
X162550000Y-89080000D02*
X162550000Y-86380000D01*
X162550000Y-90830000D02*
X162550000Y-90380000D01*
X169250000Y-84630000D02*
X162550000Y-84630000D01*
X169250000Y-85080000D02*
X169250000Y-84630000D01*
X169250000Y-86380000D02*
X169250000Y-89080000D01*
X169250000Y-90380000D02*
X169250000Y-90830000D01*
X169250000Y-90830000D02*
X162550000Y-90830000D01*
X184657500Y-90145000D02*
X184657500Y-91615000D01*
X184657500Y-91615000D02*
X186942500Y-91615000D01*
X186942500Y-90145000D02*
X184657500Y-90145000D01*
X183070000Y-82696359D02*
X183070000Y-83003641D01*
X183830000Y-82696359D02*
X183830000Y-83003641D01*
X178199983Y-93069151D02*
X177951238Y-93669674D01*
X178199983Y-93069151D02*
X178448726Y-92468630D01*
X181082485Y-94263125D02*
X180833742Y-94863646D01*
X181082485Y-94263125D02*
X181331230Y-93662602D01*
X177801306Y-94162296D02*
X177404582Y-94257742D01*
X177588270Y-93814279D01*
X177801306Y-94162296D01*
G36*
X177801306Y-94162296D02*
G01*
X177404582Y-94257742D01*
X177588270Y-93814279D01*
X177801306Y-94162296D01*
G37*
X167580000Y-106160580D02*
X167580000Y-105879421D01*
X168600000Y-106160579D02*
X168600000Y-105879420D01*
X163520000Y-96553641D02*
X163520000Y-96246359D01*
X164280000Y-96553641D02*
X164280000Y-96246359D01*
X172690000Y-100775000D02*
X170490000Y-100775000D01*
X172690000Y-100775000D02*
X174890000Y-100775000D01*
X172690000Y-107545000D02*
X170490000Y-107545000D01*
X172690000Y-107545000D02*
X174890000Y-107545000D01*
X168830000Y-101235000D02*
X168500000Y-101475000D01*
X168500000Y-100995000D01*
X168830000Y-101235000D01*
G36*
X168830000Y-101235000D02*
G01*
X168500000Y-101475000D01*
X168500000Y-100995000D01*
X168830000Y-101235000D01*
G37*
X183876526Y-100669870D02*
X183592635Y-100552277D01*
X184167365Y-99967723D02*
X183883474Y-99850130D01*
X156447500Y-90705000D02*
X156447500Y-92175000D01*
X156447500Y-92175000D02*
X158732500Y-92175000D01*
X158732500Y-90705000D02*
X156447500Y-90705000D01*
X164723641Y-93130000D02*
X164416359Y-93130000D01*
X164723641Y-93890000D02*
X164416359Y-93890000D01*
X157670000Y-102311141D02*
X157670000Y-102003859D01*
X158430000Y-102311141D02*
X158430000Y-102003859D01*
X165360000Y-83755000D02*
X167645000Y-83755000D01*
X167645000Y-82285000D02*
X165360000Y-82285000D01*
X167645000Y-83755000D02*
X167645000Y-82285000D01*
X171440000Y-87161141D02*
X171440000Y-86853859D01*
X172200000Y-87161141D02*
X172200000Y-86853859D01*
X183070130Y-87166526D02*
X183187723Y-86882635D01*
X183772277Y-87457365D02*
X183889870Y-87173474D01*
X176057500Y-82295000D02*
X176057500Y-83765000D01*
X176057500Y-83765000D02*
X178342500Y-83765000D01*
X178342500Y-82295000D02*
X176057500Y-82295000D01*
X187592635Y-100037723D02*
X187876526Y-99920130D01*
X187883474Y-100739870D02*
X188167365Y-100622277D01*
X182820000Y-92280000D02*
X182820000Y-92680000D01*
X182820000Y-96730000D02*
X182820000Y-94030000D01*
X182820000Y-98480000D02*
X182820000Y-98030000D01*
X189520000Y-92280000D02*
X182820000Y-92280000D01*
X189520000Y-92730000D02*
X189520000Y-92280000D01*
X189520000Y-94030000D02*
X189520000Y-96730000D01*
X189520000Y-98030000D02*
X189520000Y-98480000D01*
X189520000Y-98480000D02*
X182820000Y-98480000D01*
X180690000Y-81888859D02*
X180690000Y-82196141D01*
X181450000Y-81888859D02*
X181450000Y-82196141D01*
%LPC*%
D13*
X168270353Y-79081423D02*
X166252157Y-79116778D01*
X166252159Y-76233932D01*
X168270353Y-76198577D01*
X168270353Y-79081423D01*
G36*
X168270353Y-79081423D02*
G01*
X166252157Y-79116778D01*
X166252159Y-76233932D01*
X168270353Y-76198577D01*
X168270353Y-79081423D01*
G37*
X173641424Y-72222487D02*
X173535357Y-73674998D01*
X170793934Y-73674997D01*
X170758576Y-72222486D01*
X172200000Y-70781066D01*
X173641424Y-72222487D01*
G36*
X173641424Y-72222487D02*
G01*
X173535357Y-73674998D01*
X170793934Y-73674997D01*
X170758576Y-72222486D01*
X172200000Y-70781066D01*
X173641424Y-72222487D01*
G37*
X173641424Y-83057514D02*
X172200000Y-84498934D01*
X170758576Y-83057513D01*
X170864643Y-81675714D01*
X173606069Y-81675712D01*
X173641424Y-83057514D01*
G36*
X173641424Y-83057514D02*
G01*
X172200000Y-84498934D01*
X170758576Y-83057513D01*
X170864643Y-81675714D01*
X173606069Y-81675712D01*
X173641424Y-83057514D01*
G37*
X177688223Y-76269288D02*
X179058934Y-77640000D01*
X177688223Y-79010712D01*
X176200358Y-79081422D01*
X176200357Y-76198576D01*
X177688223Y-76269288D01*
G36*
X177688223Y-76269288D02*
G01*
X179058934Y-77640000D01*
X177688223Y-79010712D01*
X176200358Y-79081422D01*
X176200357Y-76198576D01*
X177688223Y-76269288D01*
G37*
D14*
X160950000Y-97930000D03*
X155190000Y-97930000D03*
X160950000Y-93930000D03*
X155190000Y-93930000D03*
D15*
X160100000Y-83827500D03*
X160100000Y-82807500D03*
D14*
X180240000Y-89580000D03*
X174480000Y-89580000D03*
X180240000Y-85580000D03*
X174480000Y-85580000D03*
D16*
X178098821Y-96284831D03*
X179041179Y-96675169D03*
D17*
X160060000Y-101250000D03*
D14*
X168780000Y-89730000D03*
X163020000Y-89730000D03*
X168780000Y-85730000D03*
X163020000Y-85730000D03*
D18*
X185355000Y-90880000D03*
X186930000Y-90880000D03*
D17*
X175810000Y-72220000D03*
D19*
X183450000Y-82340000D03*
X183450000Y-83360000D03*
D20*
X178404783Y-94168726D03*
X180160154Y-94895824D03*
X180000000Y-92800000D03*
D21*
X168090000Y-106795000D03*
X168090000Y-105245000D03*
D15*
X163900000Y-96910000D03*
X163900000Y-95890000D03*
D22*
X169827500Y-101235000D03*
X169827500Y-101885000D03*
X169827500Y-102535000D03*
X169827500Y-103185000D03*
X169827500Y-103835000D03*
X169827500Y-104485000D03*
X169827500Y-105135000D03*
X169827500Y-105785000D03*
X169827500Y-106435000D03*
X169827500Y-107085000D03*
X175552500Y-107085000D03*
X175552500Y-106435000D03*
X175552500Y-105785000D03*
X175552500Y-105135000D03*
X175552500Y-104485000D03*
X175552500Y-103835000D03*
X175552500Y-103185000D03*
X175552500Y-102535000D03*
X175552500Y-101885000D03*
X175552500Y-101235000D03*
D23*
X184351179Y-100455169D03*
X183408821Y-100064831D03*
D18*
X157145000Y-91440000D03*
X158720000Y-91440000D03*
D24*
X165080000Y-93510000D03*
X164060000Y-93510000D03*
D15*
X158050000Y-102667500D03*
X158050000Y-101647500D03*
D17*
X159950000Y-87140000D03*
D25*
X166947500Y-83020000D03*
X165372500Y-83020000D03*
D15*
X171820000Y-87517500D03*
X171820000Y-86497500D03*
D26*
X183284831Y-87641179D03*
X183675169Y-86698821D03*
D18*
X176755000Y-83030000D03*
X178330000Y-83030000D03*
D17*
X186640000Y-103110000D03*
D27*
X187408821Y-100525169D03*
X188351179Y-100134831D03*
D14*
X189050000Y-97380000D03*
X183290000Y-97380000D03*
X189050000Y-93380000D03*
X183290000Y-93380000D03*
D19*
X181070000Y-81532500D03*
X181070000Y-82552500D03*
D28*
X169350002Y-92235001D03*
D29*
X169350002Y-94775001D03*
X171890002Y-92235001D03*
X171890002Y-94775001D03*
X174430003Y-92235000D03*
X174430002Y-94775001D03*
D30*
X172674000Y-106720000D03*
X171658000Y-101640000D03*
X173690000Y-101640000D03*
%LPD*%
M02*
